GeoramaCondensed-ThinItalic.ufo
<glyph name="exclam" format="2">
  <advance width="134.2"/>
  <unicode hex="0021"/>
  <outline>
    <contour>
      <point x="56.5" y="264.0" type="line"/>
      <point x="74.5" y="264.0" type="line"/>
      <point x="149.5" y="740.0" type="line"/>
      <point x="131.5" y="740.0" type="line"/>
    </contour>
    <contour>
      <point x="11.3" y="10.0" type="curve" smooth="yes"/>
      <point x="10.3" y="1.9"/>
      <point x="11.600000000000001" y="0.0"/>
      <point x="22.5" y="0.0" type="curve" smooth="yes"/>
      <point x="38.7" y="0.0"/>
      <point x="38.8" y="1.0"/>
      <point x="41.8" y="24.0" type="curve" smooth="yes"/>
      <point x="42.8" y="33.0"/>
      <point x="39.7" y="34.0"/>
      <point x="29.700000000000003" y="34.0" type="curve" smooth="yes"/>
      <point x="15.3" y="34.0"/>
      <point x="14.3" y="33.0"/>
    </contour>
  </outline>
</glyph>
<glyph name="numbersign" format="2">
  <advance width="328.4"/>
  <unicode hex="0023"/>
  <outline>
    <contour>
      <point x="84.2" y="484.1" type="line"/>
      <point x="150.1" y="484.1" type="line"/>
      <point x="75.3" y="216.1" type="line"/>
      <point x="15.8" y="216.1" type="line"/>
      <point x="12.0" y="198.2" type="line"/>
      <point x="70.1" y="198.2" type="line"/>
      <point x="13.8" y="0.0" type="line"/>
      <point x="34.7" y="0.0" type="line"/>
      <point x="90.0" y="198.2" type="line"/>
      <point x="178.9" y="198.2" type="line"/>
      <point x="123.6" y="0.0" type="line"/>
      <point x="143.6" y="0.0" type="line"/>
      <point x="198.9" y="198.2" type="line"/>
      <point x="265.9" y="198.2" type="line"/>
      <point x="268.8" y="216.1" type="line"/>
      <point x="204.2" y="216.1" type="line"/>
      <point x="278.9" y="484.1" type="line"/>
      <point x="337.2" y="484.1" type="line"/>
      <point x="340.2" y="502.0" type="line"/>
      <point x="284.2" y="502.0" type="line"/>
      <point x="340.3" y="700.0" type="line"/>
      <point x="320.3" y="700.0" type="line"/>
      <point x="264.2" y="502.0" type="line"/>
      <point x="175.3" y="502.0" type="line"/>
      <point x="231.4" y="700.0" type="line"/>
      <point x="211.4" y="700.0" type="line"/>
      <point x="155.3" y="502.0" type="line"/>
      <point x="87.2" y="502.0" type="line"/>
    </contour>
    <contour>
      <point x="170.1" y="484.1" type="line"/>
      <point x="259.0" y="484.1" type="line"/>
      <point x="184.2" y="216.1" type="line"/>
      <point x="95.3" y="216.1" type="line"/>
    </contour>
  </outline>
</glyph>
<glyph name="dollar" format="2">
  <advance width="328.4"/>
  <unicode hex="0024"/>
  <outline>
    <contour>
      <point x="323.6" y="692.5" type="line"/>
      <point x="308.8" y="700.1"/>
      <point x="283.0" y="708.9"/>
      <point x="248.8" y="710.0" type="curve"/>
      <point x="263.9" y="805.0" type="line"/>
      <point x="245.9" y="805.0" type="line"/>
      <point x="230.0" y="709.1" type="line"/>
      <point x="133.1" y="702.7"/>
      <point x="88.7" y="604.7"/>
      <point x="88.7" y="527.1" type="curve" smooth="yes"/>
      <point x="88.7" y="383.6"/>
      <point x="240.9" y="306.4"/>
      <point x="240.9" y="169.8" type="curve" smooth="yes"/>
      <point x="240.9" y="87.5"/>
      <point x="183.5" y="9.9"/>
      <point x="100.4" y="9.9" type="curve" smooth="yes"/>
      <point x="62.6" y="9.9"/>
      <point x="25.3" y="18.0"/>
      <point x="4.0" y="29.4" type="curve"/>
      <point x="-6.699999999999999" y="11.2" type="line"/>
      <point x="11.7" y="2.0"/>
      <point x="48.7" y="-8.9"/>
      <point x="90.5" y="-10.0" type="curve"/>
      <point x="75.5" y="-105.0" type="line"/>
      <point x="93.5" y="-105.0" type="line"/>
      <point x="108.5" y="-9.1" type="line"/>
      <point x="210.3" y="-2.7"/>
      <point x="260.9" y="90.0"/>
      <point x="260.9" y="174.6" type="curve" smooth="yes"/>
      <point x="260.9" y="316.8"/>
      <point x="108.6" y="392.4"/>
      <point x="108.6" y="529.3" type="curve" smooth="yes"/>
      <point x="108.6" y="604.6"/>
      <point x="158.5" y="691.9"/>
      <point x="237.3" y="691.9" type="curve" smooth="yes"/>
      <point x="275.1" y="691.9"/>
      <point x="294.4" y="685.4"/>
      <point x="313.8" y="676.1" type="curve"/>
    </contour>
  </outline>
</glyph>
<glyph name="ampersand" format="2">
  <advance width="391.1"/>
  <unicode hex="0026"/>
  <outline>
    <contour>
      <point x="133.7" y="-10.0" type="curve" smooth="yes"/>
      <point x="235.8" y="-10.0"/>
      <point x="328.6" y="147.0"/>
      <point x="316.5" y="292.5" type="curve"/>
      <point x="298.5" y="296.8" type="line"/>
      <point x="311.9" y="165.9"/>
      <point x="225.2" y="8.1"/>
      <point x="135.5" y="8.1" type="curve" smooth="yes"/>
      <point x="71.9" y="8.1"/>
      <point x="38.8" y="51.5"/>
      <point x="38.8" y="127.9" type="curve" smooth="yes"/>
      <point x="38.8" y="283.3"/>
      <point x="141.7" y="395.0"/>
      <point x="265.9" y="395.0" type="curve" smooth="yes"/>
      <point x="275.5" y="395.0" type="line"/>
      <point x="278.2" y="413.2" type="line"/>
      <point x="270.5" y="413.2" type="line" smooth="yes"/>
      <point x="203.7" y="413.2"/>
      <point x="164.9" y="459.5"/>
      <point x="164.9" y="544.7" type="curve" smooth="yes"/>
      <point x="164.9" y="626.0"/>
      <point x="212.6" y="692.3"/>
      <point x="280.2" y="692.3" type="curve" smooth="yes"/>
      <point x="313.1" y="692.3"/>
      <point x="339.7" y="682.0"/>
      <point x="366.4" y="658.5" type="curve"/>
      <point x="375.8" y="674.3" type="line"/>
      <point x="351.7" y="697.0"/>
      <point x="318.1" y="710.0"/>
      <point x="282.8" y="710.0" type="curve" smooth="yes"/>
      <point x="201.2" y="710.0"/>
      <point x="145.8" y="636.7"/>
      <point x="145.8" y="542.9" type="curve" smooth="yes"/>
      <point x="145.8" y="472.7"/>
      <point x="175.1" y="423.9"/>
      <point x="220.4" y="407.0" type="curve"/>
      <point x="104.6" y="383.2"/>
      <point x="19.7" y="270.8"/>
      <point x="19.7" y="127.0" type="curve" smooth="yes"/>
      <point x="19.7" y="40.6"/>
      <point x="58.8" y="-10.0"/>
    </contour>
    <contour>
      <point x="212.4" y="267.2" type="line"/>
      <point x="217.2" y="289.4"/>
      <point x="232.3" y="300.1"/>
      <point x="253.6" y="300.1" type="curve" smooth="yes"/>
      <point x="289.1" y="300.1"/>
      <point x="306.6" y="283.4"/>
      <point x="350.3" y="283.4" type="curve" smooth="yes"/>
      <point x="380.0" y="283.4"/>
      <point x="399.6" y="298.4"/>
      <point x="407.7" y="323.8" type="curve"/>
      <point x="391.4" y="331.9" type="line"/>
      <point x="385.1" y="312.0"/>
      <point x="369.9" y="300.6"/>
      <point x="347.7" y="300.6" type="curve" smooth="yes"/>
      <point x="316.3" y="300.6"/>
      <point x="285.7" y="317.3"/>
      <point x="251.9" y="317.3" type="curve" smooth="yes"/>
      <point x="223.4" y="317.3"/>
      <point x="203.9" y="303.1"/>
      <point x="195.5" y="275.2" type="curve"/>
    </contour>
  </outline>
</glyph>
<glyph name="parenleft" format="2">
  <advance width="191.8"/>
  <unicode hex="0028"/>
  <outline>
    <contour>
      <point x="34.9" y="-5.699999999999999" type="curve" smooth="yes"/>
      <point x="34.9" y="-115.1"/>
      <point x="55.8" y="-195.2"/>
      <point x="95.3" y="-220.0" type="curve"/>
      <point x="107.3" y="-203.8" type="line"/>
      <point x="76.5" y="-187.7"/>
      <point x="53.0" y="-110.9"/>
      <point x="53.0" y="-0.5" type="curve" smooth="yes"/>
      <point x="53.0" y="196.2"/>
      <point x="139.6" y="664.6"/>
      <point x="252.5" y="730.2" type="curve"/>
      <point x="246.5" y="749.1" type="line"/>
      <point x="114.0" y="670.8"/>
      <point x="34.9" y="215.4"/>
    </contour>
  </outline>
</glyph>
<glyph name="parenright" format="2">
  <advance width="191.8"/>
  <unicode hex="0029"/>
  <outline>
    <contour>
      <point x="154.8" y="535.5" type="curve" smooth="yes"/>
      <point x="154.8" y="645.5"/>
      <point x="134.6" y="725.2"/>
      <point x="95.0" y="750.0" type="curve"/>
      <point x="84.8" y="730.9" type="line"/>
      <point x="118.4" y="709.2"/>
      <point x="136.7" y="638.0"/>
      <point x="136.7" y="542.0" type="curve" smooth="yes"/>
      <point x="136.7" y="337.0"/>
      <point x="49.9" y="-136.5"/>
      <point x="-63.9" y="-201.8" type="curve"/>
      <point x="-57.0" y="-220.0" type="line"/>
      <point x="70.0" y="-137.0"/>
      <point x="154.8" y="311.3"/>
    </contour>
  </outline>
</glyph>
<glyph name="asterisk" format="2">
  <advance width="204.4"/>
  <unicode hex="002A"/>
  <outline>
    <contour>
      <point x="70.6" y="388.4" type="line"/>
      <point x="135.3" y="482.5" type="line"/>
      <point x="169.0" y="389.3" type="line"/>
      <point x="183.8" y="399.1" type="line"/>
      <point x="149.3" y="499.0" type="line"/>
      <point x="237.1" y="543.2" type="line"/>
      <point x="233.2" y="559.1" type="line"/>
      <point x="148.4" y="518.7" type="line"/>
      <point x="167.1" y="639.1" type="line"/>
      <point x="150.9" y="639.1" type="line"/>
      <point x="132.2" y="519.6" type="line"/>
      <point x="59.9" y="560.0" type="line"/>
      <point x="52.1" y="545.0" type="line"/>
      <point x="125.2" y="500.8" type="line"/>
      <point x="57.7" y="399.3" type="line"/>
    </contour>
  </outline>
</glyph>
<glyph name="plus" format="2">
  <advance width="357.2"/>
  <unicode hex="002B"/>
  <outline>
    <contour>
      <point x="137.7" y="72.0" type="line"/>
      <point x="156.6" y="72.0" type="line"/>
      <point x="189.5" y="279.1" type="line"/>
      <point x="316.8" y="279.1" type="line"/>
      <point x="319.8" y="298.0" type="line"/>
      <point x="192.5" y="298.0" type="line"/>
      <point x="225.5" y="506.0" type="line"/>
      <point x="206.6" y="506.0" type="line"/>
      <point x="173.6" y="298.0" type="line"/>
      <point x="45.4" y="298.0" type="line"/>
      <point x="42.4" y="279.1" type="line"/>
      <point x="170.6" y="279.1" type="line"/>
    </contour>
  </outline>
</glyph>
<glyph name="comma" format="2">
  <advance width="102.5"/>
  <unicode hex="002C"/>
  <outline>
    <contour>
      <point x="4.2" y="33.4" type="line"/>
      <point x="5.5" y="23.0"/>
      <point x="5.7" y="11.6"/>
      <point x="5.7" y="1.0999999999999999" type="curve" smooth="yes"/>
      <point x="5.7" y="-64.5"/>
      <point x="-29.6" y="-152.6"/>
      <point x="-78.1" y="-187.5" type="curve"/>
      <point x="-72.1" y="-202.7" type="line"/>
      <point x="1.1000000000000005" y="-151.4"/>
      <point x="24.9" y="-41.1"/>
      <point x="24.9" y="4.5" type="curve" smooth="yes"/>
      <point x="24.9" y="16.1"/>
      <point x="24.6" y="26.7"/>
      <point x="22.3" y="40.6" type="curve"/>
    </contour>
  </outline>
</glyph>
<glyph name="hyphen" format="2">
  <advance width="196.3"/>
  <unicode hex="002D"/>
  <outline>
    <contour>
      <point x="17.8" y="253.2" type="line"/>
      <point x="171.6" y="253.2" type="line"/>
      <point x="175.5" y="272.2" type="line"/>
      <point x="21.7" y="272.2" type="line"/>
    </contour>
  </outline>
</glyph>
<glyph name="period" format="2">
  <advance width="102.5"/>
  <unicode hex="002E"/>
  <outline>
    <contour>
      <point x="-5.0" y="10.0" type="curve" smooth="yes"/>
      <point x="-6.0" y="1.9"/>
      <point x="-4.699999999999999" y="0.0"/>
      <point x="6.2" y="0.0" type="curve" smooth="yes"/>
      <point x="22.4" y="0.0"/>
      <point x="22.5" y="1.0"/>
      <point x="25.5" y="24.0" type="curve" smooth="yes"/>
      <point x="26.5" y="33.0"/>
      <point x="23.4" y="34.0"/>
      <point x="13.4" y="34.0" type="curve" smooth="yes"/>
      <point x="-1.0" y="34.0"/>
      <point x="-2.0" y="33.0"/>
    </contour>
  </outline>
</glyph>
<glyph name="slash" format="2">
  <advance width="214.4"/>
  <unicode hex="002F"/>
  <outline>
    <contour>
      <point x="-66.1" y="-210.0" type="line"/>
      <point x="-47.7" y="-210.0" type="line"/>
      <point x="277.5" y="740.0" type="line"/>
      <point x="259.1" y="740.0" type="line"/>
    </contour>
  </outline>
</glyph>
<glyph name="zero" format="2">
  <advance width="328.4"/>
  <unicode hex="0030"/>
  <outline>
    <contour>
      <point x="122.80000000000001" y="-10.0" type="curve" smooth="yes"/>
      <point x="266.8" y="-10.0"/>
      <point x="335.0" y="365.4"/>
      <point x="335.0" y="548.0" type="curve" smooth="yes"/>
      <point x="335.0" y="667.7"/>
      <point x="302.2" y="710.0"/>
      <point x="227.7" y="710.0" type="curve" smooth="yes"/>
      <point x="83.6" y="710.0"/>
      <point x="15.600000000000001" y="334.8"/>
      <point x="15.600000000000001" y="152.2" type="curve" smooth="yes"/>
      <point x="15.600000000000001" y="32.5"/>
      <point x="48.5" y="-10.0"/>
    </contour>
    <contour>
      <point x="122.80000000000001" y="9.0" type="curve" smooth="yes"/>
      <point x="61.2" y="9.0"/>
      <point x="33.7" y="47.0"/>
      <point x="34.6" y="151.3" type="curve" smooth="yes"/>
      <point x="36.4" y="343.8"/>
      <point x="104.3" y="691.0"/>
      <point x="227.7" y="691.0" type="curve" smooth="yes"/>
      <point x="289.5" y="691.0"/>
      <point x="316.9" y="653.2"/>
      <point x="316.0" y="548.9" type="curve" smooth="yes"/>
      <point x="314.2" y="356.5"/>
      <point x="246.1" y="9.0"/>
    </contour>
  </outline>
</glyph>
<glyph name="one" format="2">
  <advance width="328.4"/>
  <unicode hex="0031"/>
  <outline>
    <contour>
      <point x="-3.8999999999999986" y="0.0" type="line"/>
      <point x="273.2" y="0.0" type="line"/>
      <point x="276.2" y="19.9" type="line"/>
      <point x="151.3" y="19.9" type="line"/>
      <point x="259.5" y="701.0" type="line"/>
      <point x="248.5" y="701.0" type="line"/>
      <point x="71.0" y="571.9" type="line"/>
      <point x="80.4" y="557.5" type="line"/>
      <point x="234.8" y="667.0" type="line"/>
      <point x="132.4" y="19.9" type="line"/>
      <point x="-0.8999999999999986" y="19.9" type="line"/>
    </contour>
  </outline>
</glyph>
<glyph name="two" format="2">
  <advance width="328.4"/>
  <unicode hex="0032"/>
  <outline>
    <contour>
      <point x="4.700000000000001" y="17.0" type="curve"/>
      <point x="6.5" y="0.0" type="line"/>
      <point x="256.1" y="0.0" type="line"/>
      <point x="258.8" y="19.0" type="line"/>
      <point x="29.3" y="19.0" type="line"/>
      <point x="167.2" y="196.7"/>
      <point x="303.1" y="419.2"/>
      <point x="303.1" y="597.4" type="curve" smooth="yes"/>
      <point x="303.1" y="668.1"/>
      <point x="268.8" y="710.0"/>
      <point x="209.1" y="710.0" type="curve" smooth="yes"/>
      <point x="166.4" y="710.0"/>
      <point x="128.6" y="692.9"/>
      <point x="94.6" y="655.8" type="curve"/>
      <point x="104.1" y="642.3" type="line"/>
      <point x="142.3" y="678.3"/>
      <point x="169.1" y="691.2"/>
      <point x="206.2" y="691.2" type="curve" smooth="yes"/>
      <point x="254.9" y="691.2"/>
      <point x="284.1" y="655.0"/>
      <point x="284.1" y="590.7" type="curve" smooth="yes"/>
      <point x="283.2" y="431.8"/>
      <point x="156.6" y="214.5"/>
    </contour>
  </outline>
</glyph>
<glyph name="three" format="2">
  <advance width="328.5"/>
  <unicode hex="0033"/>
  <outline>
    <contour>
      <point x="-19.5" y="38.5" type="line"/>
      <point x="6.75" y="6.75"/>
      <point x="49.25" y="-10.0"/>
      <point x="101.25" y="-10.0" type="curve" smooth="yes"/>
      <point x="207.5" y="-10.0"/>
      <point x="275.25" y="98.0"/>
      <point x="275.25" y="249.75" type="curve" smooth="yes"/>
      <point x="275.25" y="319.75"/>
      <point x="249.75" y="361.25"/>
      <point x="212.75" y="371.0" type="curve"/>
      <point x="259.25" y="390.0"/>
      <point x="306.25" y="468.5"/>
      <point x="306.25" y="574.0" type="curve" smooth="yes"/>
      <point x="306.25" y="654.0"/>
      <point x="267.0" y="710.0"/>
      <point x="197.75" y="710.0" type="curve" smooth="yes"/>
      <point x="166.0" y="710.0"/>
      <point x="123.5" y="697.25"/>
      <point x="95.75" y="677.0" type="curve"/>
      <point x="106.25" y="661.75" type="line"/>
      <point x="136.5" y="682.75"/>
      <point x="167.75" y="691.0"/>
      <point x="197.5" y="691.0" type="curve" smooth="yes"/>
      <point x="252.5" y="691.0"/>
      <point x="287.25" y="641.25"/>
      <point x="287.25" y="572.25" type="curve" smooth="yes"/>
      <point x="287.25" y="470.25"/>
      <point x="235.5" y="378.0"/>
      <point x="174.75" y="378.0" type="curve" smooth="yes"/>
      <point x="119.25" y="378.0" type="line"/>
      <point x="116.25" y="360.0" type="line"/>
      <point x="179.5" y="360.0" type="line" smooth="yes"/>
      <point x="227.75" y="360.0"/>
      <point x="255.0" y="322.5"/>
      <point x="255.0" y="244.5" type="curve" smooth="yes"/>
      <point x="255.0" y="109.5"/>
      <point x="193.25" y="9.0"/>
      <point x="102.75" y="9.0" type="curve" smooth="yes"/>
      <point x="55.75" y="9.0"/>
      <point x="22.5" y="23.0"/>
      <point x="-4.75" y="51.0" type="curve"/>
    </contour>
  </outline>
</glyph>
<glyph name="four" format="2">
  <advance width="328.5"/>
  <unicode hex="0034"/>
  <outline>
    <contour>
      <point x="19.0" y="193.25" type="line"/>
      <point x="209.0" y="193.25" type="line"/>
      <point x="178.5" y="-0.75" type="line"/>
      <point x="197.5" y="-0.75" type="line"/>
      <point x="227.75" y="193.25" type="line"/>
      <point x="298.25" y="193.25" type="line"/>
      <point x="301.25" y="213.25" type="line"/>
      <point x="230.75" y="213.25" type="line"/>
      <point x="307.5" y="698.5" type="line"/>
      <point x="294.75" y="704.0" type="line"/>
      <point x="16.25" y="210.25" type="line"/>
    </contour>
    <contour>
      <point x="37.75" y="213.25" type="line"/>
      <point x="279.5" y="634.5" type="line"/>
      <point x="212.0" y="213.25" type="line"/>
    </contour>
  </outline>
</glyph>
<glyph name="five" format="2">
  <advance width="328.4"/>
  <unicode hex="0035"/>
  <outline>
    <contour>
      <point x="-6.699999999999999" y="42.9" type="line"/>
      <point x="17.1" y="9.0"/>
      <point x="51.7" y="-10.0"/>
      <point x="99.1" y="-10.0" type="curve" smooth="yes"/>
      <point x="239.1" y="-10.0"/>
      <point x="280.4" y="157.5"/>
      <point x="280.4" y="255.3" type="curve" smooth="yes"/>
      <point x="280.4" y="334.2"/>
      <point x="247.6" y="382.4"/>
      <point x="176.8" y="382.4" type="curve" smooth="yes"/>
      <point x="89.5" y="382.4" type="line"/>
      <point x="152.5" y="680.1" type="line"/>
      <point x="323.0" y="680.1" type="line"/>
      <point x="326.1" y="700.0" type="line"/>
      <point x="137.7" y="700.0" type="line"/>
      <point x="68.3" y="373.4" type="line"/>
      <point x="77.1" y="362.5" type="line"/>
      <point x="173.4" y="362.5" type="line" smooth="yes"/>
      <point x="237.8" y="362.5"/>
      <point x="261.2" y="320.8"/>
      <point x="261.2" y="252.0" type="curve" smooth="yes"/>
      <point x="261.2" y="167.3"/>
      <point x="219.5" y="9.0"/>
      <point x="103.1" y="9.0" type="curve" smooth="yes"/>
      <point x="57.0" y="9.0"/>
      <point x="28.900000000000002" y="30.8"/>
      <point x="9.700000000000001" y="55.5" type="curve"/>
    </contour>
  </outline>
</glyph>
<glyph name="six" format="2">
  <advance width="328.5"/>
  <unicode hex="0036"/>
  <note>
14
</note>
  <outline>
    <contour>
      <point x="134.75" y="-10.0" type="curve" smooth="yes"/>
      <point x="229.25" y="-10.0"/>
      <point x="294.75" y="104.25"/>
      <point x="294.75" y="261.25" type="curve" smooth="yes"/>
      <point x="294.75" y="354.5"/>
      <point x="256.75" y="400.5"/>
      <point x="186.75" y="400.5" type="curve" smooth="yes"/>
      <point x="134.75" y="400.5"/>
      <point x="74.75" y="359.75"/>
      <point x="39.5" y="278.0" type="curve"/>
      <point x="34.75" y="226.0" type="line"/>
      <point x="65.75" y="316.25"/>
      <point x="124.25" y="381.5"/>
      <point x="187.5" y="381.5" type="curve" smooth="yes"/>
      <point x="245.75" y="381.5"/>
      <point x="275.0" y="338.25"/>
      <point x="275.0" y="258.5" type="curve" smooth="yes"/>
      <point x="275.0" y="119.5"/>
      <point x="214.25" y="8.25"/>
      <point x="135.5" y="8.25" type="curve" smooth="yes"/>
      <point x="73.25" y="8.25"/>
      <point x="39.75" y="59.75"/>
      <point x="39.75" y="156.25" type="curve" smooth="yes"/>
      <point x="39.75" y="310.25"/>
      <point x="69.75" y="458.75"/>
      <point x="117.0" y="559.75" type="curve" smooth="yes"/>
      <point x="154.25" y="639.5"/>
      <point x="203.5" y="691.0"/>
      <point x="261.0" y="691.0" type="curve" smooth="yes"/>
      <point x="290.5" y="691.0"/>
      <point x="314.75" y="682.5"/>
      <point x="341.5" y="664.75" type="curve"/>
      <point x="353.0" y="680.25" type="line"/>
      <point x="323.0" y="701.25"/>
      <point x="296.5" y="710.0"/>
      <point x="259.75" y="710.0" type="curve" smooth="yes"/>
      <point x="118.75" y="710.0"/>
      <point x="20.75" y="447.75"/>
      <point x="20.75" y="152.0" type="curve" smooth="yes"/>
      <point x="20.75" y="45.0"/>
      <point x="59.5" y="-10.0"/>
    </contour>
  </outline>
</glyph>
<glyph name="seven" format="2">
  <advance width="328.4"/>
  <unicode hex="0037"/>
  <note>
9
</note>
  <outline>
    <contour>
      <point x="69.5" y="0.0" type="curve"/>
      <point x="88.9" y="0.0" type="line"/>
      <point x="107.7" y="113.9"/>
      <point x="137.9" y="225.5"/>
      <point x="228.3" y="424.4" type="curve" smooth="yes"/>
      <point x="345.4" y="682.9" type="line"/>
      <point x="348.4" y="700.0" type="line"/>
      <point x="84.4" y="700.0" type="line"/>
      <point x="81.4" y="680.0" type="line"/>
      <point x="323.8" y="680.0" type="line"/>
      <point x="217.7" y="447.0" type="line" smooth="yes"/>
      <point x="132.9" y="261.0"/>
      <point x="92.1" y="143.7"/>
    </contour>
  </outline>
</glyph>
<glyph name="eight" format="2">
  <advance width="328.5"/>
  <unicode hex="0038"/>
  <outline>
    <contour>
      <point x="130.5" y="-10.0" type="curve" smooth="yes"/>
      <point x="234.5" y="-10.0"/>
      <point x="293.25" y="80.75"/>
      <point x="293.25" y="190.0" type="curve" smooth="yes"/>
      <point x="293.25" y="367.25"/>
      <point x="93.0" y="367.0"/>
      <point x="93.0" y="529.5" type="curve" smooth="yes"/>
      <point x="93.0" y="624.75"/>
      <point x="141.25" y="691.0"/>
      <point x="219.5" y="691.0" type="curve" smooth="yes"/>
      <point x="286.5" y="691.0"/>
      <point x="315.75" y="649.0"/>
      <point x="315.75" y="583.75" type="curve" smooth="yes"/>
      <point x="315.75" y="488.25"/>
      <point x="276.75" y="412.5"/>
      <point x="192.25" y="361.0" type="curve"/>
      <point x="205.25" y="350.5" type="line"/>
      <point x="290.25" y="401.0"/>
      <point x="334.75" y="481.5"/>
      <point x="334.75" y="583.75" type="curve" smooth="yes"/>
      <point x="334.75" y="660.0"/>
      <point x="300.25" y="710.0"/>
      <point x="220.25" y="710.0" type="curve" smooth="yes"/>
      <point x="128.25" y="710.0"/>
      <point x="74.0" y="633.5"/>
      <point x="74.0" y="523.75" type="curve" smooth="yes"/>
      <point x="74.0" y="358.5"/>
      <point x="274.25" y="360.25"/>
      <point x="274.25" y="188.25" type="curve" smooth="yes"/>
      <point x="274.25" y="89.5"/>
      <point x="221.75" y="9.0"/>
      <point x="131.5" y="9.0" type="curve" smooth="yes"/>
      <point x="56.5" y="9.0"/>
      <point x="18.25" y="53.25"/>
      <point x="18.25" y="131.25" type="curve" smooth="yes"/>
      <point x="18.25" y="234.5"/>
      <point x="64.0" y="330.5"/>
      <point x="159.0" y="378.75" type="curve"/>
      <point x="145.0" y="391.5" type="line"/>
      <point x="47.5" y="337.0"/>
      <point x="-1.5" y="241.0"/>
      <point x="-1.5" y="126.25" type="curve" smooth="yes"/>
      <point x="-1.5" y="39.25"/>
      <point x="41.75" y="-10.0"/>
    </contour>
  </outline>
</glyph>
<glyph name="nine" format="2">
  <advance width="328.5"/>
  <unicode hex="0039"/>
  <outline>
    <contour>
      <point x="215.75" y="710.0" type="curve" smooth="yes"/>
      <point x="121.25" y="710.0"/>
      <point x="55.75" y="595.75"/>
      <point x="55.75" y="438.75" type="curve" smooth="yes"/>
      <point x="55.75" y="345.5"/>
      <point x="93.75" y="299.5"/>
      <point x="163.75" y="299.5" type="curve" smooth="yes"/>
      <point x="215.75" y="299.5"/>
      <point x="275.75" y="340.25"/>
      <point x="311.0" y="422.0" type="curve"/>
      <point x="315.75" y="474.0" type="line"/>
      <point x="284.75" y="383.75"/>
      <point x="226.25" y="318.5"/>
      <point x="163.0" y="318.5" type="curve" smooth="yes"/>
      <point x="104.75" y="318.5"/>
      <point x="75.5" y="361.75"/>
      <point x="75.5" y="441.5" type="curve" smooth="yes"/>
      <point x="75.5" y="580.5"/>
      <point x="136.25" y="691.75"/>
      <point x="215.0" y="691.75" type="curve" smooth="yes"/>
      <point x="277.25" y="691.75"/>
      <point x="310.75" y="640.25"/>
      <point x="310.75" y="543.75" type="curve" smooth="yes"/>
      <point x="310.75" y="389.75"/>
      <point x="280.75" y="241.25"/>
      <point x="233.5" y="140.25" type="curve" smooth="yes"/>
      <point x="196.25" y="60.5"/>
      <point x="147.0" y="9.0"/>
      <point x="93.25" y="9.0" type="curve" smooth="yes"/>
      <point x="63.75" y="9.0"/>
      <point x="36.5" y="16.75"/>
      <point x="9.0" y="42.75" type="curve"/>
      <point x="-2.5" y="27.25" type="line"/>
      <point x="28.25" y="-2.0"/>
      <point x="57.75" y="-10.0"/>
      <point x="94.5" y="-10.0" type="curve" smooth="yes"/>
      <point x="228.75" y="-10.0"/>
      <point x="329.75" y="252.25"/>
      <point x="329.75" y="548.0" type="curve" smooth="yes"/>
      <point x="329.75" y="655.0"/>
      <point x="291.0" y="710.0"/>
    </contour>
  </outline>
</glyph>
<glyph name="less" format="2">
  <advance width="358.2"/>
  <unicode hex="003C"/>
  <outline>
    <contour>
      <point x="286.5" y="87.0" type="line"/>
      <point x="289.5" y="108.9" type="line"/>
      <point x="59.8" y="289.0" type="line"/>
      <point x="347.1" y="470.0" type="line"/>
      <point x="350.1" y="493.8" type="line"/>
      <point x="47.2" y="302.6" type="line"/>
      <point x="43.3" y="279.0" type="line"/>
    </contour>
  </outline>
</glyph>
<glyph name="equal" format="2">
  <advance width="358.1"/>
  <unicode hex="003D"/>
  <outline>
    <contour>
      <point x="303.8" y="197.0" type="line"/>
      <point x="29.4" y="197.0" type="line"/>
      <point x="26.4" y="177.2" type="line"/>
      <point x="300.8" y="177.2" type="line"/>
    </contour>
    <contour>
      <point x="335.8" y="403.8" type="line"/>
      <point x="61.4" y="403.8" type="line"/>
      <point x="58.4" y="384.0" type="line"/>
      <point x="332.8" y="384.0" type="line"/>
    </contour>
  </outline>
</glyph>
<glyph name="greater" format="2">
  <advance width="358.2"/>
  <unicode hex="003E"/>
  <outline>
    <contour>
      <point x="316.8" y="276.3" type="line"/>
      <point x="320.7" y="299.9" type="line"/>
      <point x="76.6" y="492.0" type="line"/>
      <point x="73.6" y="470.1" type="line"/>
      <point x="304.2" y="289.9" type="line"/>
      <point x="16.9" y="109.9" type="line"/>
      <point x="13.0" y="85.2" type="line"/>
    </contour>
  </outline>
</glyph>
<glyph name="question" format="2">
  <advance width="260.6"/>
  <unicode hex="003F"/>
  <outline>
    <contour>
      <point x="105.4" y="263.7" type="line"/>
      <point x="123.4" y="263.7" type="line"/>
      <point x="135.3" y="340.5" type="line"/>
      <point x="229.1" y="421.8"/>
      <point x="290.8" y="481.4"/>
      <point x="290.8" y="626.9" type="curve" smooth="yes"/>
      <point x="290.8" y="713.0"/>
      <point x="247.0" y="750.0"/>
      <point x="195.9" y="750.0" type="curve" smooth="yes"/>
      <point x="155.2" y="750.0"/>
      <point x="112.9" y="728.2"/>
      <point x="75.8" y="694.0" type="curve"/>
      <point x="84.6" y="680.8" type="line"/>
      <point x="123.3" y="715.4"/>
      <point x="160.7" y="731.2"/>
      <point x="192.9" y="731.2" type="curve" smooth="yes"/>
      <point x="238.7" y="731.2"/>
      <point x="271.6" y="692.7"/>
      <point x="271.6" y="623.7" type="curve" smooth="yes"/>
      <point x="271.6" y="509.7"/>
      <point x="228.2" y="436.1"/>
      <point x="119.3" y="350.2" type="curve"/>
    </contour>
    <contour>
      <point x="61.900000000000006" y="9.7" type="curve" smooth="yes"/>
      <point x="61.0" y="1.9"/>
      <point x="62.3" y="0.0"/>
      <point x="73.1" y="0.0" type="curve" smooth="yes"/>
      <point x="89.1" y="0.0"/>
      <point x="89.7" y="1.0"/>
      <point x="92.4" y="24.2" type="curve" smooth="yes"/>
      <point x="93.3" y="33.0"/>
      <point x="90.2" y="34.0"/>
      <point x="80.3" y="34.0" type="curve" smooth="yes"/>
      <point x="66.1" y="34.0"/>
      <point x="64.6" y="33.0"/>
    </contour>
  </outline>
</glyph>
<glyph name="at" format="2">
  <advance width="451.0"/>
  <unicode hex="0040"/>
  <outline>
    <contour>
      <point x="160.25" y="-123.25" type="curve" smooth="yes"/>
      <point x="217.0" y="-123.25"/>
      <point x="263.0" y="-98.0"/>
      <point x="297.25" y="-47.75" type="curve"/>
      <point x="283.75" y="-40.75" type="line"/>
      <point x="255.0" y="-84.5"/>
      <point x="213.5" y="-107.0"/>
      <point x="162.5" y="-107.0" type="curve" smooth="yes"/>
      <point x="75.0" y="-107.0"/>
      <point x="27.75" y="-38.5"/>
      <point x="27.75" y="90.75" type="curve" smooth="yes"/>
      <point x="27.75" y="414.0"/>
      <point x="157.25" y="696.5"/>
      <point x="316.75" y="696.5" type="curve" smooth="yes"/>
      <point x="393.0" y="696.5"/>
      <point x="442.0" y="658.5"/>
      <point x="442.0" y="535.25" type="curve" smooth="yes"/>
      <point x="442.0" y="331.5"/>
      <point x="365.0" y="79.5"/>
      <point x="304.25" y="79.5" type="curve" smooth="yes"/>
      <point x="269.75" y="79.5"/>
      <point x="280.5" y="152.0"/>
      <point x="288.75" y="192.0" type="curve" smooth="yes"/>
      <point x="361.0" y="520.75" type="line"/>
      <point x="331.5" y="532.5"/>
      <point x="311.0" y="536.75"/>
      <point x="287.5" y="536.75" type="curve" smooth="yes"/>
      <point x="200.25" y="536.75"/>
      <point x="111.75" y="314.75"/>
      <point x="111.75" y="140.5" type="curve" smooth="yes"/>
      <point x="111.75" y="89.0"/>
      <point x="133.0" y="64.5"/>
      <point x="167.75" y="64.5" type="curve" smooth="yes"/>
      <point x="204.0" y="64.5"/>
      <point x="242.0" y="93.5"/>
      <point x="267.0" y="156.75" type="curve"/>
      <point x="264.0" y="130.25"/>
      <point x="254.0" y="64.25"/>
      <point x="305.5" y="64.25" type="curve" smooth="yes"/>
      <point x="384.5" y="64.25"/>
      <point x="459.25" y="338.5"/>
      <point x="459.25" y="540.5" type="curve" smooth="yes"/>
      <point x="459.25" y="661.75"/>
      <point x="407.25" y="714.0"/>
      <point x="317.5" y="714.0" type="curve" smooth="yes"/>
      <point x="147.75" y="714.0"/>
      <point x="10.75" y="429.25"/>
      <point x="10.75" y="84.0" type="curve" smooth="yes"/>
      <point x="10.75" y="-51.0"/>
      <point x="63.75" y="-123.25"/>
    </contour>
    <contour>
      <point x="171.0" y="82.5" type="curve" smooth="yes"/>
      <point x="144.25" y="82.5"/>
      <point x="130.0" y="103.75"/>
      <point x="130.0" y="146.25" type="curve" smooth="yes"/>
      <point x="130.0" y="313.5"/>
      <point x="219.0" y="520.5"/>
      <point x="286.25" y="520.5" type="curve" smooth="yes"/>
      <point x="303.5" y="520.5"/>
      <point x="323.0" y="517.25"/>
      <point x="341.5" y="510.0" type="curve"/>
      <point x="279.25" y="233.0" type="line" smooth="yes"/>
      <point x="254.75" y="138.0"/>
      <point x="209.0" y="82.5"/>
    </contour>
  </outline>
</glyph>
<glyph name="A" format="2">
  <advance width="336.5"/>
  <unicode hex="0041"/>
  <anchor x="121.75" y="0.0" name="bottom"/>
  <anchor x="273.0" y="0.0" name="ogonek"/>
  <anchor x="231.75" y="700.0" name="top"/>
  <outline>
    <contour>
      <point x="-24.5" y="0.0" type="line"/>
      <point x="-5.0" y="0.0" type="line"/>
      <point x="73.75" y="221.0" type="line"/>
      <point x="244.25" y="221.0" type="line"/>
      <point x="253.75" y="0.0" type="line"/>
      <point x="273.0" y="0.0" type="line"/>
      <point x="242.25" y="710.0" type="line"/>
      <point x="225.75" y="710.0" type="line"/>
    </contour>
    <contour>
      <point x="80.5" y="240.0" type="line"/>
      <point x="224.75" y="651.25" type="line"/>
      <point x="243.5" y="240.0" type="line"/>
    </contour>
  </outline>
</glyph>
<glyph name="B" format="2">
  <advance width="332.7"/>
  <unicode hex="0042"/>
  <outline>
    <contour>
      <point x="7.700000000000001" y="-4.9" type="line"/>
      <point x="45.900000000000006" y="-8.6"/>
      <point x="73.2" y="-10.0"/>
      <point x="103.4" y="-10.0" type="curve" smooth="yes"/>
      <point x="235.2" y="-10.0"/>
      <point x="295.1" y="121.2"/>
      <point x="295.1" y="234.0" type="curve" smooth="yes"/>
      <point x="295.1" y="305.9"/>
      <point x="262.3" y="345.5"/>
      <point x="214.7" y="357.7" type="curve"/>
      <point x="295.0" y="387.0"/>
      <point x="331.8" y="509.6"/>
      <point x="331.8" y="594.8" type="curve" smooth="yes"/>
      <point x="331.8" y="674.3"/>
      <point x="294.2" y="710.0"/>
      <point x="211.4" y="710.0" type="curve" smooth="yes"/>
      <point x="186.9" y="710.0"/>
      <point x="159.7" y="707.8"/>
      <point x="119.4" y="703.1" type="curve"/>
    </contour>
    <contour>
      <point x="85.7" y="365.5" type="line"/>
      <point x="136.3" y="686.9" type="line"/>
      <point x="162.6" y="690.3"/>
      <point x="187.5" y="692.0"/>
      <point x="210.9" y="692.0" type="curve" smooth="yes"/>
      <point x="278.9" y="692.0"/>
      <point x="312.7" y="663.3"/>
      <point x="312.7" y="587.5" type="curve" smooth="yes"/>
      <point x="312.7" y="496.7"/>
      <point x="258.0" y="365.5"/>
      <point x="173.8" y="365.5" type="curve" smooth="yes"/>
    </contour>
    <contour>
      <point x="82.7" y="346.6" type="line"/>
      <point x="183.9" y="346.6" type="line" smooth="yes"/>
      <point x="232.2" y="346.6"/>
      <point x="276.1" y="308.1"/>
      <point x="276.1" y="231.0" type="curve" smooth="yes"/>
      <point x="276.1" y="121.3"/>
      <point x="221.1" y="9.0"/>
      <point x="104.9" y="9.0" type="curve" smooth="yes"/>
      <point x="78.2" y="9.0"/>
      <point x="58.900000000000006" y="10.7"/>
      <point x="29.700000000000003" y="13.2" type="curve"/>
    </contour>
  </outline>
</glyph>
<glyph name="C" format="2">
  <advance width="315.3"/>
  <unicode hex="0043"/>
  <anchor x="178.3" y="0.0" name="bottom"/>
  <anchor x="271.6" y="700.0" name="top"/>
  <outline>
    <contour>
      <point x="179.9" y="-10.0" type="curve" smooth="yes"/>
      <point x="214.4" y="-10.0"/>
      <point x="242.2" y="-5.6"/>
      <point x="262.8" y="2.3" type="curve"/>
      <point x="257.7" y="19.3" type="line"/>
      <point x="237.2" y="12.5"/>
      <point x="211.3" y="9.0"/>
      <point x="181.1" y="9.0" type="curve" smooth="yes"/>
      <point x="95.0" y="9.0"/>
      <point x="52.5" y="62.1"/>
      <point x="52.5" y="181.3" type="curve" smooth="yes"/>
      <point x="52.5" y="467.5"/>
      <point x="144.0" y="691.0"/>
      <point x="270.6" y="691.0" type="curve" smooth="yes"/>
      <point x="297.3" y="691.0"/>
      <point x="321.0" y="687.0"/>
      <point x="350.5" y="678.4" type="curve"/>
      <point x="357.4" y="696.4" type="line"/>
      <point x="333.0" y="706.0"/>
      <point x="305.7" y="710.0"/>
      <point x="273.7" y="710.0" type="curve" smooth="yes"/>
      <point x="131.0" y="710.0"/>
      <point x="33.5" y="489.5"/>
      <point x="33.5" y="180.4" type="curve" smooth="yes"/>
      <point x="33.5" y="48.2"/>
      <point x="79.3" y="-10.0"/>
    </contour>
  </outline>
</glyph>
<glyph name="D" format="2">
  <advance width="362.9"/>
  <unicode hex="0044"/>
  <anchor x="121.9" y="0.0" name="bottom"/>
  <anchor x="188.7" y="350.0" name="center"/>
  <anchor x="220.4" y="700.0" name="top"/>
  <outline>
    <contour>
      <point x="92.7" y="-10.0" type="curve" smooth="yes"/>
      <point x="244.1" y="-10.0"/>
      <point x="348.6" y="193.2"/>
      <point x="348.6" y="466.6" type="curve" smooth="yes"/>
      <point x="348.6" y="641.8"/>
      <point x="295.1" y="710.0"/>
      <point x="194.3" y="710.0" type="curve" smooth="yes"/>
      <point x="168.5" y="710.0"/>
      <point x="147.4" y="708.8"/>
      <point x="119.4" y="706.3" type="curve"/>
      <point x="7.5" y="-5.4" type="line"/>
      <point x="37.2" y="-9.0"/>
      <point x="57.900000000000006" y="-10.0"/>
    </contour>
    <contour>
      <point x="93.80000000000001" y="7.2" type="curve" smooth="yes"/>
      <point x="69.8" y="7.2"/>
      <point x="51.8" y="8.3"/>
      <point x="28.6" y="10.8" type="curve"/>
      <point x="136.3" y="689.0" type="line"/>
      <point x="154.0" y="690.5"/>
      <point x="174.8" y="691.0"/>
      <point x="194.3" y="691.0" type="curve" smooth="yes"/>
      <point x="278.1" y="691.0"/>
      <point x="329.5" y="633.7"/>
      <point x="329.5" y="464.6" type="curve" smooth="yes"/>
      <point x="329.5" y="204.8"/>
      <point x="228.4" y="7.2"/>
    </contour>
  </outline>
</glyph>
<glyph name="E" format="2">
  <advance width="295.6"/>
  <unicode hex="0045"/>
  <anchor x="125.30000000000001" y="0.0" name="bottom"/>
  <anchor x="235.8" y="0.0" name="ogonek"/>
  <anchor x="229.5" y="700.0" name="top"/>
  <anchor x="88.2" y="700.0" name="topleft"/>
  <outline>
    <contour>
      <point x="8.4" y="0.0" type="line"/>
      <point x="235.8" y="0.0" type="line"/>
      <point x="238.8" y="19.0" type="line"/>
      <point x="30.4" y="19.0" type="line"/>
      <point x="83.8" y="356.0" type="line"/>
      <point x="265.8" y="356.0" type="line"/>
      <point x="268.8" y="375.0" type="line"/>
      <point x="86.7" y="375.0" type="line"/>
      <point x="134.5" y="681.0" type="line"/>
      <point x="332.1" y="681.0" type="line"/>
      <point x="336.0" y="700.0" type="line"/>
      <point x="118.5" y="700.0" type="line"/>
    </contour>
  </outline>
</glyph>
<glyph name="F" format="2">
  <advance width="277.0"/>
  <unicode hex="0046"/>
  <outline>
    <contour>
      <point x="8.4" y="0.0" type="line"/>
      <point x="26.5" y="0.0" type="line"/>
      <point x="81.8" y="345.4" type="line"/>
      <point x="243.9" y="345.4" type="line"/>
      <point x="246.8" y="364.4" type="line"/>
      <point x="84.7" y="364.4" type="line"/>
      <point x="134.5" y="681.0" type="line"/>
      <point x="333.0" y="681.0" type="line"/>
      <point x="336.0" y="700.0" type="line"/>
      <point x="118.5" y="700.0" type="line"/>
    </contour>
  </outline>
</glyph>
<glyph name="G" format="2">
  <advance width="333.9"/>
  <unicode hex="0047"/>
  <anchor x="163.9" y="0.0" name="bottom"/>
  <anchor x="269.0" y="700.0" name="top"/>
  <outline>
    <contour>
      <point x="175.3" y="-10.0" type="curve" smooth="yes"/>
      <point x="204.3" y="-10.0"/>
      <point x="232.9" y="-4.4"/>
      <point x="251.60000000000002" y="2.5" type="curve"/>
      <point x="304.3" y="336.0" type="line"/>
      <point x="183.3" y="336.0" type="line"/>
      <point x="180.3" y="317.0" type="line"/>
      <point x="282.3" y="317.0" type="line"/>
      <point x="234.60000000000002" y="17.3" type="line"/>
      <point x="220.4" y="12.1"/>
      <point x="199.9" y="9.0"/>
      <point x="178.4" y="9.0" type="curve" smooth="yes"/>
      <point x="97.5" y="9.0"/>
      <point x="52.4" y="60.9"/>
      <point x="52.4" y="181.3" type="curve" smooth="yes"/>
      <point x="52.4" y="468.1"/>
      <point x="144.7" y="691.0"/>
      <point x="270.2" y="691.0" type="curve" smooth="yes"/>
      <point x="296.4" y="691.0"/>
      <point x="319.1" y="687.0"/>
      <point x="348.4" y="678.3" type="curve"/>
      <point x="355.3" y="696.2" type="line"/>
      <point x="334.4" y="703.8"/>
      <point x="304.4" y="710.0"/>
      <point x="273.3" y="710.0" type="curve" smooth="yes"/>
      <point x="130.8" y="710.0"/>
      <point x="33.4" y="490.2"/>
      <point x="33.4" y="179.9" type="curve" smooth="yes"/>
      <point x="33.4" y="47.2"/>
      <point x="81.8" y="-10.0"/>
    </contour>
  </outline>
</glyph>
<glyph name="H" format="2">
  <advance width="376.2"/>
  <unicode hex="0048"/>
  <anchor x="144.64440000000002" y="0.0" name="bottom"/>
  <anchor x="200.5879" y="350.0" name="center"/>
  <anchor x="255.6313" y="700.0" name="top"/>
  <anchor x="85.2313" y="700.0" name="topleft"/>
  <outline>
    <contour>
      <point x="8.4" y="0.0" type="line"/>
      <point x="28.3" y="0.0" type="line"/>
      <point x="74.3" y="291.0" type="line"/>
      <point x="307.7" y="291.0" type="line"/>
      <point x="261.7" y="0.0" type="line"/>
      <point x="280.7" y="0.0" type="line"/>
      <point x="391.7" y="700.0" type="line"/>
      <point x="372.7" y="700.0" type="line"/>
      <point x="310.7" y="310.0" type="line"/>
      <point x="76.4" y="310.0" type="line"/>
      <point x="138.4" y="700.0" type="line"/>
      <point x="118.5" y="700.0" type="line"/>
    </contour>
  </outline>
</glyph>
<glyph name="I" format="2">
  <advance width="122.9"/>
  <unicode hex="0049"/>
  <anchor x="17.544400000000003" y="0.0" name="bottom"/>
  <anchor x="27.4" y="0.0" name="ogonek"/>
  <anchor x="128.5313" y="700.0" name="top"/>
  <anchor x="88.2" y="700.0" name="topleft"/>
  <outline>
    <contour>
      <point x="8.4" y="0.0" type="line"/>
      <point x="27.4" y="0.0" type="line"/>
      <point x="138.4" y="700.0" type="line"/>
      <point x="118.5" y="700.0" type="line"/>
    </contour>
  </outline>
</glyph>
<glyph name="J" format="2">
  <advance width="248.8"/>
  <unicode hex="004A"/>
  <anchor x="36.5" y="0.0" name="bottom"/>
  <anchor x="184.4" y="700.0" name="top"/>
  <outline>
    <contour>
      <point x="-35.6" y="1.4000000000000004" type="line"/>
      <point x="-13.8" y="-5.3"/>
      <point x="7.100000000000001" y="-10.0"/>
      <point x="34.400000000000006" y="-10.0" type="curve" smooth="yes"/>
      <point x="129.3" y="-10.0"/>
      <point x="165.3" y="45.7"/>
      <point x="177.7" y="124.7" type="curve" smooth="yes"/>
      <point x="269.0" y="700.0" type="line"/>
      <point x="90.0" y="700.0" type="line"/>
      <point x="87.0" y="681.0" type="line"/>
      <point x="247.0" y="681.0" type="line"/>
      <point x="157.7" y="122.0" type="line" smooth="yes"/>
      <point x="144.8" y="41.7"/>
      <point x="101.5" y="9.0"/>
      <point x="36.5" y="9.0" type="curve" smooth="yes"/>
      <point x="9.600000000000001" y="9.0"/>
      <point x="-11.3" y="14.7"/>
      <point x="-30.6" y="21.4" type="curve"/>
    </contour>
  </outline>
</glyph>
<glyph name="K" format="2">
  <advance width="317.75"/>
  <unicode hex="004B"/>
  <anchor x="130.25" y="0.0" name="bottom"/>
  <anchor x="220.25" y="700.0" name="top"/>
  <outline>
    <contour>
      <point x="8.25" y="0.0" type="line"/>
      <point x="27.5" y="0.0" type="line"/>
      <point x="138.25" y="700.0" type="line"/>
      <point x="118.5" y="700.0" type="line"/>
    </contour>
    <contour>
      <point x="265.5" y="-9.0" type="curve" smooth="yes"/>
      <point x="270.25" y="-9.0"/>
      <point x="275.5" y="-8.25"/>
      <point x="281.25" y="-5.5" type="curve"/>
      <point x="277.75" y="12.5" type="line"/>
      <point x="275.5" y="11.75"/>
      <point x="272.5" y="10.75"/>
      <point x="268.5" y="10.75" type="curve" smooth="yes"/>
      <point x="251.5" y="10.75"/>
      <point x="242.25" y="21.0"/>
      <point x="214.5" y="90.5" type="curve" smooth="yes"/>
      <point x="83.25" y="419.75" type="line"/>
      <point x="78.75" y="377.75" type="line"/>
      <point x="196.25" y="85.0" type="line" smooth="yes"/>
      <point x="228.0" y="2.0"/>
      <point x="240.0" y="-9.0"/>
    </contour>
    <contour>
      <point x="119.25" y="298.5" type="line"/>
      <point x="178.25" y="364.5"/>
      <point x="290.75" y="511.75"/>
      <point x="360.0" y="703.5" type="curve"/>
      <point x="342.5" y="710.0" type="line"/>
      <point x="272.0" y="518.75"/>
      <point x="170.0" y="385.25"/>
      <point x="113.5" y="320.5" type="curve"/>
    </contour>
  </outline>
</glyph>
<glyph name="L" format="2">
  <advance width="260.6"/>
  <unicode hex="004C"/>
  <anchor x="109.0" y="0.0" name="bottom"/>
  <anchor x="131.9879" y="350.0" name="center"/>
  <anchor x="127.5" y="700.0" name="top"/>
  <anchor x="243.7" y="700.0" name="topright"/>
  <outline>
    <contour>
      <point x="7.5" y="0.0" type="line"/>
      <point x="209.5" y="0.0" type="line"/>
      <point x="212.5" y="19.0" type="line"/>
      <point x="29.5" y="19.0" type="line"/>
      <point x="137.5" y="700.0" type="line"/>
      <point x="118.5" y="700.0" type="line"/>
    </contour>
  </outline>
</glyph>
<glyph name="M" format="2">
  <advance width="405.25"/>
  <unicode hex="004D"/>
  <outline>
    <contour>
      <point x="8.25" y="0.0" type="line"/>
      <point x="27.5" y="0.0" type="line"/>
      <point x="130.0" y="655.75" type="line"/>
      <point x="192.75" y="278.5" type="line"/>
      <point x="213.0" y="278.5" type="line"/>
      <point x="395.75" y="657.25" type="line"/>
      <point x="290.75" y="0.0" type="line"/>
      <point x="309.75" y="0.0" type="line"/>
      <point x="420.75" y="700.0" type="line"/>
      <point x="395.5" y="700.0" type="line"/>
      <point x="206.75" y="303.0" type="line"/>
      <point x="143.25" y="700.0" type="line"/>
      <point x="118.5" y="700.0" type="line"/>
    </contour>
  </outline>
</glyph>
<glyph name="N" format="2">
  <advance width="373.75"/>
  <unicode hex="004E"/>
  <anchor x="150.0" y="0.0" name="bottom"/>
  <anchor x="254.25" y="700.0" name="top"/>
  <outline>
    <contour>
      <point x="8.5" y="0.0" type="line"/>
      <point x="27.75" y="0.0" type="line"/>
      <point x="130.5" y="658.5" type="line"/>
      <point x="257.25" y="-1.0" type="line"/>
      <point x="278.25" y="-1.0" type="line"/>
      <point x="389.25" y="700.0" type="line"/>
      <point x="370.25" y="700.0" type="line"/>
      <point x="268.25" y="44.0" type="line"/>
      <point x="141.75" y="701.0" type="line"/>
      <point x="118.75" y="701.0" type="line"/>
    </contour>
  </outline>
</glyph>
<glyph name="O" format="2">
  <advance width="379.5"/>
  <unicode hex="004F"/>
  <note>
8
</note>
  <anchor x="148.25" y="0.0" name="bottom"/>
  <anchor x="204.25" y="350.0" name="center"/>
  <anchor x="186.5" y="0.0" name="ogonek"/>
  <anchor x="261.75" y="700.0" name="top"/>
  <anchor x="90.0" y="700.0" name="topleft"/>
  <anchor x="320.5" y="695.25" name="topright"/>
  <outline>
    <contour>
      <point x="149.75" y="-10.0" type="curve" smooth="yes"/>
      <point x="283.25" y="-10.0"/>
      <point x="373.25" y="272.75"/>
      <point x="373.25" y="533.75" type="curve" smooth="yes"/>
      <point x="373.25" y="658.5"/>
      <point x="334.5" y="710.0"/>
      <point x="253.75" y="710.0" type="curve" smooth="yes"/>
      <point x="120.25" y="710.0"/>
      <point x="30.25" y="427.25"/>
      <point x="30.25" y="166.25" type="curve" smooth="yes"/>
      <point x="30.25" y="41.5"/>
      <point x="69.0" y="-10.0"/>
    </contour>
    <contour>
      <point x="150.25" y="8.0" type="curve" smooth="yes"/>
      <point x="81.5" y="8.0"/>
      <point x="49.25" y="53.25"/>
      <point x="49.25" y="167.0" type="curve" smooth="yes"/>
      <point x="49.25" y="419.5"/>
      <point x="138.75" y="692.0"/>
      <point x="253.25" y="692.0" type="curve" smooth="yes"/>
      <point x="322.0" y="692.0"/>
      <point x="354.25" y="646.75"/>
      <point x="354.25" y="533.0" type="curve" smooth="yes"/>
      <point x="354.25" y="280.5"/>
      <point x="264.75" y="8.0"/>
    </contour>
  </outline>
</glyph>
<glyph name="P" format="2">
  <advance width="317.25"/>
  <unicode hex="0050"/>
  <outline>
    <contour>
      <point x="8.5" y="0.0" type="line"/>
      <point x="27.5" y="0.0" type="line"/>
      <point x="73.75" y="290.5" type="line"/>
      <point x="91.75" y="289.25"/>
      <point x="107.0" y="289.0"/>
      <point x="150.25" y="289.0" type="curve" smooth="yes"/>
      <point x="265.75" y="289.0"/>
      <point x="334.75" y="403.0"/>
      <point x="335.0" y="573.5" type="curve" smooth="yes"/>
      <point x="335.0" y="670.25"/>
      <point x="295.25" y="710.0"/>
      <point x="205.25" y="710.0" type="curve" smooth="yes"/>
      <point x="183.75" y="710.0"/>
      <point x="159.75" y="708.0"/>
      <point x="119.5" y="703.5" type="curve"/>
    </contour>
    <contour>
      <point x="136.25" y="686.5" type="line"/>
      <point x="162.25" y="689.75"/>
      <point x="181.25" y="691.0"/>
      <point x="202.25" y="691.0" type="curve" smooth="yes"/>
      <point x="282.75" y="691.0"/>
      <point x="316.0" y="659.0"/>
      <point x="316.0" y="568.75" type="curve" smooth="yes"/>
      <point x="316.0" y="418.0"/>
      <point x="255.0" y="308.0"/>
      <point x="151.0" y="308.0" type="curve" smooth="yes"/>
      <point x="126.75" y="308.0"/>
      <point x="104.25" y="309.25"/>
      <point x="76.75" y="310.5" type="curve"/>
    </contour>
  </outline>
</glyph>
<glyph name="Q" format="2">
  <advance width="380.6"/>
  <unicode hex="0051"/>
  <note>
14
</note>
  <outline>
    <contour>
      <point x="258.8" y="-184.0" type="curve" smooth="yes"/>
      <point x="276.9" y="-184.0"/>
      <point x="296.9" y="-181.5"/>
      <point x="315.5" y="-173.5" type="curve"/>
      <point x="311.1" y="-156.5" type="line"/>
      <point x="295.4" y="-162.9"/>
      <point x="277.4" y="-165.9"/>
      <point x="260.5" y="-165.9" type="curve" smooth="yes"/>
      <point x="210.7" y="-165.9"/>
      <point x="165.3" y="-135.6"/>
      <point x="162.6" y="-0.5" type="curve"/>
      <point x="144.4" y="-2.2" type="line"/>
      <point x="148.1" y="-139.9"/>
      <point x="196.9" y="-184.0"/>
    </contour>
    <component base="O"/>
  </outline>
</glyph>
<glyph name="R" format="2">
  <advance width="326.5"/>
  <unicode hex="0052"/>
  <anchor x="137.5" y="0.0" name="bottom"/>
  <anchor x="215.25" y="700.0" name="top"/>
  <outline>
    <contour>
      <point x="8.5" y="0.0" type="line"/>
      <point x="27.5" y="0.0" type="line"/>
      <point x="75.75" y="305.75" type="line"/>
      <point x="96.0" y="305.25"/>
      <point x="119.25" y="304.25"/>
      <point x="150.25" y="304.25" type="curve"/>
      <point x="151.0" y="304.25" type="line"/>
      <point x="261.25" y="304.5"/>
      <point x="334.25" y="409.0"/>
      <point x="334.25" y="570.75" type="curve" smooth="yes"/>
      <point x="334.25" y="669.5"/>
      <point x="298.5" y="710.0"/>
      <point x="207.25" y="710.0" type="curve" smooth="yes"/>
      <point x="178.5" y="710.0"/>
      <point x="152.0" y="708.0"/>
      <point x="119.5" y="703.75" type="curve"/>
    </contour>
    <contour>
      <point x="271.75" y="-10.0" type="curve" smooth="yes"/>
      <point x="278.5" y="-10.0"/>
      <point x="285.0" y="-7.25"/>
      <point x="288.25" y="-5.5" type="curve"/>
      <point x="284.5" y="11.0" type="line"/>
      <point x="279.5" y="9.0"/>
      <point x="276.75" y="9.0"/>
      <point x="274.75" y="9.0" type="curve" smooth="yes"/>
      <point x="251.75" y="10.0"/>
      <point x="237.5" y="38.5"/>
      <point x="186.25" y="322.0" type="curve"/>
      <point x="167.25" y="317.5" type="line"/>
      <point x="223.75" y="20.0"/>
      <point x="231.25" y="-10.0"/>
    </contour>
    <contour>
      <point x="158.0" y="324.0" type="curve" smooth="yes"/>
      <point x="124.25" y="324.0"/>
      <point x="102.0" y="324.0"/>
      <point x="79.75" y="325.5" type="curve"/>
      <point x="136.5" y="687.5" type="line"/>
      <point x="163.5" y="690.75"/>
      <point x="181.0" y="692.0"/>
      <point x="205.25" y="692.0" type="curve" smooth="yes"/>
      <point x="288.75" y="692.0"/>
      <point x="315.25" y="654.5"/>
      <point x="315.25" y="573.5" type="curve" smooth="yes"/>
      <point x="315.25" y="427.5"/>
      <point x="251.0" y="324.0"/>
    </contour>
  </outline>
</glyph>
<glyph name="S" format="2">
  <advance width="295.25"/>
  <unicode hex="0053"/>
  <anchor x="90.0" y="0.0" name="bottom"/>
  <anchor x="223.75" y="700.0" name="top"/>
  <outline>
    <contour>
      <point x="310.75" y="692.5" type="line"/>
      <point x="285.5" y="704.0"/>
      <point x="259.0" y="710.0"/>
      <point x="227.5" y="710.0" type="curve" smooth="yes"/>
      <point x="134.0" y="710.0"/>
      <point x="76.0" y="642.75"/>
      <point x="76.0" y="530.5" type="curve" smooth="yes"/>
      <point x="76.0" y="385.75"/>
      <point x="228.25" y="312.0"/>
      <point x="228.0" y="167.25" type="curve" smooth="yes"/>
      <point x="228.0" y="75.5"/>
      <point x="175.25" y="10.0"/>
      <point x="90.0" y="10.0" type="curve" smooth="yes"/>
      <point x="51.25" y="10.0"/>
      <point x="17.5" y="16.5"/>
      <point x="-8.75" y="29.5" type="curve"/>
      <point x="-19.5" y="11.25" type="line"/>
      <point x="7.75" y="-2.25"/>
      <point x="47.5" y="-10.0"/>
      <point x="86.0" y="-10.0" type="curve" smooth="yes"/>
      <point x="187.25" y="-10.0"/>
      <point x="248.0" y="63.5"/>
      <point x="248.0" y="171.5" type="curve" smooth="yes"/>
      <point x="248.25" y="314.75"/>
      <point x="95.75" y="387.5"/>
      <point x="95.75" y="532.75" type="curve" smooth="yes"/>
      <point x="95.75" y="630.25"/>
      <point x="148.5" y="692.0"/>
      <point x="224.5" y="692.0" type="curve" smooth="yes"/>
      <point x="255.5" y="692.0"/>
      <point x="276.0" y="687.5"/>
      <point x="301.0" y="676.0" type="curve"/>
    </contour>
  </outline>
</glyph>
<glyph name="T" format="2">
  <advance width="277.2"/>
  <unicode hex="0054"/>
  <anchor x="94.6" y="0.0" name="bottom"/>
  <anchor x="150.5879" y="350.0" name="center"/>
  <anchor x="205.6313" y="700.0" name="top"/>
  <outline>
    <contour>
      <point x="335.9" y="681.0" type="line"/>
      <point x="338.9" y="700.0" type="line"/>
      <point x="72.3" y="700.0" type="line"/>
      <point x="69.3" y="681.0" type="line"/>
      <point x="192.7" y="681.0" type="line"/>
      <point x="84.7" y="0.0" type="line"/>
      <point x="103.7" y="0.0" type="line"/>
      <point x="211.7" y="681.0" type="line"/>
    </contour>
  </outline>
</glyph>
<glyph name="U" format="2">
  <advance width="366.1"/>
  <unicode hex="0055"/>
  <anchor x="139.1" y="0.0" name="bottom"/>
  <anchor x="171.8" y="0.0" name="ogonek"/>
  <anchor x="247.9" y="700.0" name="top"/>
  <anchor x="386.3" y="700.0" name="topright"/>
  <outline>
    <contour>
      <point x="137.1" y="-10.0" type="curve" smooth="yes"/>
      <point x="228.9" y="-10.0"/>
      <point x="281.2" y="41.2"/>
      <point x="298.7" y="150.6" type="curve" smooth="yes"/>
      <point x="386.3" y="700.0" type="line"/>
      <point x="366.4" y="700.0" type="line"/>
      <point x="278.7" y="150.6" type="line" smooth="yes"/>
      <point x="264.1" y="56.8"/>
      <point x="219.6" y="9.0"/>
      <point x="141.9" y="9.0" type="curve" smooth="yes"/>
      <point x="68.3" y="9.0"/>
      <point x="31.8" y="54.7"/>
      <point x="44.5" y="132.9" type="curve" smooth="yes"/>
      <point x="132.9" y="700.0" type="line"/>
      <point x="113.9" y="700.0" type="line"/>
      <point x="24.6" y="129.1" type="line" smooth="yes"/>
      <point x="22.4" y="116.3"/>
      <point x="22.3" y="113.1"/>
      <point x="22.3" y="98.3" type="curve" smooth="yes"/>
      <point x="22.3" y="29.3"/>
      <point x="64.5" y="-10.0"/>
    </contour>
  </outline>
</glyph>
<glyph name="V" format="2">
  <advance width="314.0"/>
  <unicode hex="0056"/>
  <outline>
    <contour>
      <point x="122.5" y="0.0" type="line"/>
      <point x="311.25" y="484.5"/>
      <point x="352.5" y="590.5"/>
      <point x="352.5" y="662.0" type="curve" smooth="yes"/>
      <point x="352.5" y="675.25"/>
      <point x="351.5" y="686.0"/>
      <point x="348.5" y="700.0" type="curve"/>
      <point x="330.5" y="700.0" type="line"/>
      <point x="332.5" y="686.5"/>
      <point x="333.5" y="676.5"/>
      <point x="333.5" y="666.25" type="curve" smooth="yes"/>
      <point x="333.5" y="593.75"/>
      <point x="293.5" y="491.25"/>
      <point x="118.0" y="43.25" type="curve"/>
      <point x="94.75" y="701.0" type="line"/>
      <point x="75.0" y="700.25" type="line"/>
      <point x="100.5" y="0.0" type="line"/>
    </contour>
  </outline>
</glyph>
<glyph name="W" format="2">
  <advance width="520.5"/>
  <unicode hex="0057"/>
  <anchor x="213.25" y="0.0" name="bottom"/>
  <anchor x="333.25" y="700.0" name="top"/>
  <outline>
    <contour>
      <point x="333.5" y="-1.0" type="line"/>
      <point x="525.5" y="491.25"/>
      <point x="559.5" y="603.75"/>
      <point x="559.5" y="664.5" type="curve" smooth="yes"/>
      <point x="559.5" y="677.5"/>
      <point x="558.5" y="687.0"/>
      <point x="555.75" y="700.0" type="curve"/>
      <point x="536.5" y="700.0" type="line"/>
      <point x="538.5" y="688.0"/>
      <point x="540.5" y="678.75"/>
      <point x="540.5" y="667.0" type="curve" smooth="yes"/>
      <point x="540.5" y="605.25"/>
      <point x="514.0" y="513.5"/>
      <point x="334.25" y="47.0" type="curve"/>
      <point x="334.0" y="631.5" type="line"/>
      <point x="308.5" y="631.5" type="line"/>
      <point x="241.75" y="439.5"/>
      <point x="174.75" y="246.5"/>
      <point x="108.0" y="54.25" type="curve"/>
      <point x="96.0" y="700.0" type="line"/>
      <point x="76.75" y="700.0" type="line"/>
      <point x="90.0" y="-1.0" type="line"/>
      <point x="108.0" y="-1.0" type="line"/>
      <point x="177.5" y="200.0"/>
      <point x="247.0" y="397.5"/>
      <point x="316.5" y="598.5" type="curve"/>
      <point x="314.5" y="-1.0" type="line"/>
    </contour>
  </outline>
</glyph>
<glyph name="X" format="2">
  <advance width="338.5"/>
  <unicode hex="0058"/>
  <outline>
    <contour>
      <point x="280.0" y="-6.25" type="line"/>
      <point x="298.25" y="-0.5" type="line"/>
      <point x="191.0" y="350.25" type="line"/>
      <point x="297.5" y="491.5"/>
      <point x="359.75" y="582.0"/>
      <point x="364.25" y="700.5" type="curve"/>
      <point x="345.75" y="701.25" type="line"/>
      <point x="339.25" y="586.0"/>
      <point x="301.0" y="535.5"/>
      <point x="185.25" y="373.0" type="curve"/>
      <point x="84.0" y="706.25" type="line"/>
      <point x="67.25" y="699.5" type="line"/>
      <point x="170.25" y="354.5" type="line"/>
      <point x="69.25" y="226.75"/>
      <point x="2.5" y="122.0"/>
      <point x="-0.5" y="0.0" type="curve"/>
      <point x="17.75" y="0.0" type="line"/>
      <point x="20.75" y="111.25"/>
      <point x="80.5" y="215.25"/>
      <point x="177.0" y="331.75" type="curve"/>
    </contour>
  </outline>
</glyph>
<glyph name="Y" format="2">
  <advance width="300.25"/>
  <unicode hex="0059"/>
  <anchor x="104.25" y="0.0" name="bottom"/>
  <anchor x="215.75" y="700.0" name="top"/>
  <anchor x="91.25" y="700.0" name="topleft"/>
  <outline>
    <contour>
      <point x="96.25" y="0.0" type="line"/>
      <point x="115.25" y="0.0" type="line"/>
      <point x="166.25" y="313.5" type="line"/>
      <point x="249.5" y="415.5"/>
      <point x="314.5" y="526.75"/>
      <point x="342.25" y="656.5" type="curve" smooth="yes"/>
      <point x="345.5" y="671.25"/>
      <point x="348.25" y="686.25"/>
      <point x="350.75" y="701.25" type="curve"/>
      <point x="332.5" y="705.5" type="line"/>
      <point x="330.0" y="691.25"/>
      <point x="327.5" y="677.25"/>
      <point x="324.25" y="663.0" type="curve" smooth="yes"/>
      <point x="297.75" y="540.75"/>
      <point x="245.25" y="440.0"/>
      <point x="160.75" y="339.75" type="curve"/>
      <point x="92.0" y="704.5" type="line"/>
      <point x="74.25" y="700.5" type="line"/>
      <point x="145.5" y="313.5" type="line"/>
    </contour>
  </outline>
</glyph>
<glyph name="Z" format="2">
  <advance width="295.5"/>
  <unicode hex="005A"/>
  <anchor x="107.75" y="0.0" name="bottom"/>
  <anchor x="156.25" y="350.0" name="center"/>
  <anchor x="216.5" y="700.0" name="top"/>
  <outline>
    <contour>
      <point x="-28.25" y="0.0" type="line"/>
      <point x="243.75" y="0.0" type="line"/>
      <point x="246.75" y="19.0" type="line"/>
      <point x="-2.25" y="19.0" type="line"/>
      <point x="336.5" y="685.0" type="line"/>
      <point x="338.5" y="700.0" type="line"/>
      <point x="102.75" y="700.0" type="line"/>
      <point x="99.75" y="681.0" type="line"/>
      <point x="313.5" y="681.0" type="line"/>
      <point x="-25.25" y="15.0" type="line"/>
    </contour>
  </outline>
</glyph>
<glyph name="bracketleft" format="2">
  <advance width="191.8"/>
  <unicode hex="005B"/>
  <outline>
    <contour>
      <point x="8.0" y="-192.0" type="line"/>
      <point x="153.0" y="722.1" type="line"/>
      <point x="254.1" y="722.1" type="line"/>
      <point x="257.1" y="740.0" type="line"/>
      <point x="136.1" y="740.0" type="line"/>
      <point x="-14.0" y="-210.0" type="line"/>
      <point x="106.1" y="-210.0" type="line"/>
      <point x="109.1" y="-192.0" type="line"/>
    </contour>
  </outline>
</glyph>
<glyph name="backslash" format="2">
  <advance width="293.5"/>
  <unicode hex="005C"/>
  <outline>
    <contour>
      <point x="95.2" y="740.0" type="line"/>
      <point x="77.0" y="740.0" type="line"/>
      <point x="234.3" y="-210.0" type="line"/>
      <point x="252.5" y="-210.0" type="line"/>
    </contour>
  </outline>
</glyph>
<glyph name="bracketright" format="2">
  <advance width="191.8"/>
  <unicode hex="005D"/>
  <outline>
    <contour>
      <point x="-64.3" y="-192.0" type="line"/>
      <point x="-67.3" y="-210.0" type="line"/>
      <point x="51.8" y="-210.0" type="line"/>
      <point x="202.8" y="740.0" type="line"/>
      <point x="82.7" y="740.0" type="line"/>
      <point x="79.7" y="722.0" type="line"/>
      <point x="180.8" y="722.0" type="line"/>
      <point x="35.8" y="-192.0" type="line"/>
    </contour>
  </outline>
</glyph>
<glyph name="asciicircum" format="2">
  <advance width="356.2"/>
  <unicode hex="005E"/>
  <outline>
    <contour>
      <point x="36.5" y="278.7" type="line"/>
      <point x="55.7" y="278.7" type="line"/>
      <point x="242.7" y="687.7" type="line"/>
      <point x="302.5" y="278.7" type="line"/>
      <point x="321.5" y="278.7" type="line"/>
      <point x="255.6" y="710.0" type="line"/>
      <point x="235.8" y="710.0" type="line"/>
    </contour>
  </outline>
</glyph>
<glyph name="underscore" format="2">
  <advance width="595.8"/>
  <unicode hex="005F"/>
  <outline>
    <contour>
      <point x="-62.7" y="-136.0" type="line"/>
      <point x="528.5" y="-136.0" type="line"/>
      <point x="531.5" y="-116.2" type="line"/>
      <point x="-59.7" y="-116.2" type="line"/>
    </contour>
  </outline>
</glyph>
<glyph name="a" format="2">
  <advance width="305.8"/>
  <unicode hex="0061"/>
  <note>
15
</note>
  <anchor x="113.5" y="0.0" name="bottom"/>
  <anchor x="276.0" y="0.0" name="ogonek"/>
  <anchor x="205.8" y="530.0" name="top"/>
  <outline>
    <contour>
      <point x="235.9" y="-10.0" type="curve" smooth="yes"/>
      <point x="250.0" y="-10.0"/>
      <point x="264.0" y="-6.2"/>
      <point x="276.1" y="-0.30000000000000004" type="curve"/>
      <point x="271.4" y="14.0" type="line"/>
      <point x="259.6" y="9.1"/>
      <point x="250.3" y="6.2"/>
      <point x="239.9" y="6.2" type="curve" smooth="yes"/>
      <point x="222.3" y="6.2"/>
      <point x="214.9" y="15.9"/>
      <point x="214.9" y="35.5" type="curve" smooth="yes"/>
      <point x="214.9" y="43.4"/>
      <point x="222.2" y="92.7"/>
      <point x="290.7" y="521.2" type="curve"/>
      <point x="271.2" y="533.0"/>
      <point x="245.8" y="540.0"/>
      <point x="220.7" y="540.0" type="curve" smooth="yes"/>
      <point x="99.1" y="540.0"/>
      <point x="20.7" y="372.9"/>
      <point x="20.7" y="142.8" type="curve" smooth="yes"/>
      <point x="20.7" y="41.4"/>
      <point x="53.0" y="-10.0"/>
      <point x="115.6" y="-10.0" type="curve" smooth="yes"/>
      <point x="148.1" y="-10.0"/>
      <point x="176.4" y="2.7"/>
      <point x="197.9" y="19.1" type="curve"/>
      <point x="201.5" y="2.4000000000000004"/>
      <point x="215.9" y="-10.0"/>
    </contour>
    <contour>
      <point x="195.0" y="35.5" type="line"/>
      <point x="173.4" y="19.1"/>
      <point x="143.0" y="8.1"/>
      <point x="115.2" y="8.1" type="curve" smooth="yes"/>
      <point x="66.9" y="8.1"/>
      <point x="39.8" y="55.3"/>
      <point x="39.8" y="144.9" type="curve" smooth="yes"/>
      <point x="39.8" y="376.0"/>
      <point x="118.2" y="522.9"/>
      <point x="218.7" y="522.9" type="curve" smooth="yes"/>
      <point x="239.8" y="522.9"/>
      <point x="256.2" y="518.9"/>
      <point x="269.5" y="511.0" type="curve"/>
    </contour>
  </outline>
</glyph>
<glyph name="b" format="2">
  <advance width="310.9"/>
  <unicode hex="0062"/>
  <note>
12
</note>
  <outline>
    <contour>
      <point x="147.7" y="740.0" type="line"/>
      <point x="128.7" y="740.0" type="line"/>
      <point x="12.9" y="5.7" type="line"/>
      <point x="39.6" y="-4.9"/>
      <point x="62.6" y="-10.0"/>
      <point x="89.6" y="-10.0" type="curve" smooth="yes"/>
      <point x="214.3" y="-10.0"/>
      <point x="289.1" y="200.4"/>
      <point x="289.1" y="388.1" type="curve" smooth="yes"/>
      <point x="289.1" y="492.7"/>
      <point x="259.5" y="540.0"/>
      <point x="197.1" y="540.0" type="curve" smooth="yes"/>
      <point x="165.8" y="540.0"/>
      <point x="139.4" y="528.2"/>
      <point x="111.0" y="511.9" type="curve"/>
    </contour>
    <contour>
      <point x="194.8" y="521.9" type="curve" smooth="yes"/>
      <point x="251.1" y="521.9"/>
      <point x="270.1" y="464.4"/>
      <point x="270.1" y="385.1" type="curve" smooth="yes"/>
      <point x="270.1" y="204.4"/>
      <point x="199.0" y="8.1"/>
      <point x="88.0" y="8.1" type="curve" smooth="yes"/>
      <point x="67.4" y="8.1"/>
      <point x="48.0" y="12.4"/>
      <point x="34.0" y="18.9" type="curve"/>
      <point x="108.0" y="490.6" type="line"/>
      <point x="134.4" y="509.8"/>
      <point x="169.2" y="521.9"/>
    </contour>
  </outline>
</glyph>
<glyph name="c" format="2">
  <advance width="242.5"/>
  <unicode hex="0063"/>
  <note>
10
</note>
  <anchor x="124.6" y="0.0" name="bottom"/>
  <anchor x="204.5" y="530.0" name="top"/>
  <outline>
    <contour>
      <point x="122.2" y="-10.0" type="curve" smooth="yes"/>
      <point x="151.3" y="-10.0"/>
      <point x="174.8" y="-5.4"/>
      <point x="194.5" y="1.3000000000000003" type="curve"/>
      <point x="191.3" y="17.5" type="line"/>
      <point x="174.2" y="11.7"/>
      <point x="149.6" y="7.2"/>
      <point x="126.1" y="7.2" type="curve" smooth="yes"/>
      <point x="68.0" y="7.2"/>
      <point x="37.7" y="46.5"/>
      <point x="37.7" y="129.2" type="curve" smooth="yes"/>
      <point x="37.7" y="332.3"/>
      <point x="113.7" y="521.0"/>
      <point x="205.7" y="521.0" type="curve" smooth="yes"/>
      <point x="227.6" y="521.0"/>
      <point x="243.3" y="518.8"/>
      <point x="263.3" y="511.8" type="curve"/>
      <point x="270.2" y="530.0" type="line"/>
      <point x="246.5" y="537.0"/>
      <point x="229.2" y="540.0"/>
      <point x="208.7" y="540.0" type="curve" smooth="yes"/>
      <point x="101.7" y="540.0"/>
      <point x="19.6" y="350.8"/>
      <point x="19.6" y="125.8" type="curve" smooth="yes"/>
      <point x="19.6" y="38.0"/>
      <point x="56.4" y="-10.0"/>
    </contour>
  </outline>
</glyph>
<glyph name="d" format="2">
  <advance width="306.0"/>
  <unicode hex="0064"/>
  <note>
17
</note>
  <anchor x="105.1" y="0.0" name="bottom"/>
  <anchor x="160.1" y="360.5" name="center"/>
  <anchor x="218.0" y="740.0" name="top"/>
  <anchor x="394.5" y="740.0" name="topright"/>
  <outline>
    <contour>
      <point x="234.4" y="-10.0" type="curve" smooth="yes"/>
      <point x="246.2" y="-10.0"/>
      <point x="260.1" y="-7.1"/>
      <point x="274.2" y="-0.30000000000000004" type="curve"/>
      <point x="269.2" y="14.0" type="line"/>
      <point x="259.2" y="10.0"/>
      <point x="248.1" y="6.2"/>
      <point x="236.8" y="6.2" type="curve" smooth="yes"/>
      <point x="221.2" y="6.2"/>
      <point x="212.7" y="15.0"/>
      <point x="212.7" y="34.6" type="curve" smooth="yes"/>
      <point x="212.7" y="42.4"/>
      <point x="231.3" y="154.10000000000002"/>
      <point x="324.0" y="740.0" type="curve"/>
      <point x="305.0" y="740.0" type="line"/>
      <point x="271.7" y="530.2" type="line"/>
      <point x="251.9" y="535.9"/>
      <point x="233.8" y="540.0"/>
      <point x="211.1" y="540.0" type="curve" smooth="yes"/>
      <point x="93.0" y="540.0"/>
      <point x="18.9" y="352.8"/>
      <point x="18.9" y="125.7" type="curve" smooth="yes"/>
      <point x="18.9" y="35.4"/>
      <point x="52.1" y="-10.0"/>
      <point x="112.2" y="-10.0" type="curve" smooth="yes"/>
      <point x="143.0" y="-10.0"/>
      <point x="175.9" y="4.5"/>
      <point x="195.6" y="21.6" type="curve"/>
      <point x="200.2" y="1.0"/>
      <point x="213.0" y="-10.0"/>
    </contour>
    <contour>
      <point x="112.5" y="9.0" type="curve" smooth="yes"/>
      <point x="65.1" y="9.0"/>
      <point x="37.1" y="52.1"/>
      <point x="37.1" y="122.6" type="curve" smooth="yes"/>
      <point x="37.1" y="334.1"/>
      <point x="106.6" y="522.9"/>
      <point x="212.7" y="522.9" type="curve" smooth="yes"/>
      <point x="234.3" y="522.9"/>
      <point x="250.1" y="518.6"/>
      <point x="268.7" y="513.0" type="curve"/>
      <point x="193.9" y="37.1" type="line"/>
      <point x="172.1" y="19.6"/>
      <point x="144.2" y="9.0"/>
    </contour>
  </outline>
</glyph>
<glyph name="e" format="2">
  <advance width="282.0"/>
  <unicode hex="0065"/>
  <note>
14 points
</note>
  <anchor x="135.8" y="0.0" name="bottom"/>
  <anchor x="203.1" y="1.3" name="ogonek"/>
  <anchor x="210.9" y="531.8" name="top"/>
  <outline>
    <contour>
      <point x="42.9" y="264.0" type="curve"/>
      <point x="39.8" y="246.1" type="line"/>
      <point x="70.5" y="250.0"/>
      <point x="106.3" y="258.0"/>
      <point x="139.5" y="271.5" type="curve" smooth="yes"/>
      <point x="232.0" y="309.3"/>
      <point x="295.5" y="379.6"/>
      <point x="295.5" y="464.2" type="curve" smooth="yes"/>
      <point x="295.5" y="509.6"/>
      <point x="270.0" y="540.0"/>
      <point x="218.1" y="540.0" type="curve" smooth="yes"/>
      <point x="107.0" y="540.0"/>
      <point x="24.1" y="389.7"/>
      <point x="24.1" y="169.1" type="curve" smooth="yes"/>
      <point x="24.1" y="54.4"/>
      <point x="61.2" y="-10.0"/>
      <point x="136.3" y="-10.0" type="curve" smooth="yes"/>
      <point x="168.4" y="-10.0"/>
      <point x="207.0" y="-1.4"/>
      <point x="233.5" y="13.4" type="curve"/>
      <point x="227.5" y="28.7" type="line"/>
      <point x="195.8" y="13.8"/>
      <point x="166.9" y="7.2"/>
      <point x="137.3" y="7.2" type="curve" smooth="yes"/>
      <point x="76.8" y="7.2"/>
      <point x="42.2" y="69.0"/>
      <point x="42.2" y="170.0" type="curve" smooth="yes"/>
      <point x="42.2" y="372.2"/>
      <point x="121.8" y="522.8"/>
      <point x="215.3" y="522.8" type="curve" smooth="yes"/>
      <point x="253.8" y="522.8"/>
      <point x="277.4" y="501.1"/>
      <point x="277.4" y="460.3" type="curve" smooth="yes"/>
      <point x="277.4" y="389.9"/>
      <point x="221.4" y="324.7"/>
      <point x="140.1" y="290.5" type="curve" smooth="yes"/>
      <point x="107.6" y="277.0"/>
      <point x="74.7" y="267.8"/>
    </contour>
  </outline>
</glyph>
<glyph name="f" format="2">
  <advance width="190.2"/>
  <unicode hex="0066"/>
  <outline>
    <contour>
      <point x="-72.9" y="-220.0" type="curve" smooth="yes"/>
      <point x="-8.5" y="-220.0"/>
      <point x="23.3" y="-166.0"/>
      <point x="39.7" y="-61.2" type="curve" smooth="yes"/>
      <point x="123.0" y="465.0" type="line"/>
      <point x="226.6" y="465.0" type="line"/>
      <point x="229.6" y="484.0" type="line"/>
      <point x="126.0" y="484.0" type="line"/>
      <point x="153.7" y="660.9"/>
      <point x="191.4" y="731.0"/>
      <point x="260.9" y="731.0" type="curve" smooth="yes"/>
      <point x="281.0" y="731.0"/>
      <point x="299.4" y="726.9"/>
      <point x="317.5" y="722.0" type="curve"/>
      <point x="324.4" y="740.0" type="line"/>
      <point x="302.3" y="747.1"/>
      <point x="283.6" y="750.0"/>
      <point x="265.9" y="750.0" type="curve" smooth="yes"/>
      <point x="181.6" y="750.0"/>
      <point x="137.1" y="676.4"/>
      <point x="106.9" y="484.0" type="curve"/>
      <point x="42.0" y="478.1" type="line"/>
      <point x="40.0" y="465.0" type="line"/>
      <point x="103.9" y="465.0" type="line"/>
      <point x="21.3" y="-57.9" type="line" smooth="yes"/>
      <point x="7.0" y="-148.0"/>
      <point x="-15.9" y="-203.0"/>
      <point x="-75.7" y="-203.0" type="curve" smooth="yes"/>
      <point x="-89.8" y="-203.0"/>
      <point x="-101.2" y="-200.9"/>
      <point x="-117.5" y="-195.7" type="curve"/>
      <point x="-121.7" y="-212.7" type="line"/>
      <point x="-107.0" y="-217.9"/>
      <point x="-91.7" y="-220.0"/>
    </contour>
  </outline>
</glyph>
<glyph name="g" format="2">
  <advance width="304.7"/>
  <unicode hex="0067"/>
  <note>
16
</note>
  <anchor x="67.5" y="-211.0" name="bottom"/>
  <anchor x="202.2" y="530.0" name="top"/>
  <outline>
    <contour>
      <point x="-3.6999999999999997" y="-208.7" type="line"/>
      <point x="17.3" y="-216.3"/>
      <point x="42.8" y="-220.0"/>
      <point x="68.5" y="-220.0" type="curve" smooth="yes"/>
      <point x="139.9" y="-220.0"/>
      <point x="179.8" y="-169.8"/>
      <point x="197.1" y="-57.7" type="curve" smooth="yes"/>
      <point x="290.4" y="522.2" type="line"/>
      <point x="268.3" y="533.0"/>
      <point x="245.3" y="540.0"/>
      <point x="221.6" y="540.0" type="curve" smooth="yes"/>
      <point x="89.2" y="540.0"/>
      <point x="19.8" y="339.8"/>
      <point x="19.8" y="143.0" type="curve" smooth="yes"/>
      <point x="19.8" y="46.1"/>
      <point x="52.7" y="-10.0"/>
      <point x="111.5" y="-10.0" type="curve" smooth="yes"/>
      <point x="137.4" y="-10.0"/>
      <point x="166.2" y="-0.8999999999999999"/>
      <point x="190.9" y="17.1" type="curve"/>
      <point x="179.9" y="-54.5" type="line" smooth="yes"/>
      <point x="163.0" y="-161.1"/>
      <point x="129.7" y="-202.9"/>
      <point x="66.4" y="-202.9" type="curve" smooth="yes"/>
      <point x="44.400000000000006" y="-202.9"/>
      <point x="22.6" y="-199.1"/>
      <point x="0.8000000000000003" y="-191.4" type="curve"/>
    </contour>
    <contour>
      <point x="269.4" y="511.9" type="curve"/>
      <point x="194.1" y="37.5" type="line"/>
      <point x="174.5" y="20.5"/>
      <point x="139.0" y="8.1"/>
      <point x="114.4" y="8.1" type="curve" smooth="yes"/>
      <point x="66.4" y="8.1"/>
      <point x="38.9" y="57.2"/>
      <point x="38.9" y="149.5" type="curve" smooth="yes"/>
      <point x="38.9" y="341.1"/>
      <point x="111.7" y="522.8"/>
      <point x="220.2" y="522.8" type="curve" smooth="yes"/>
      <point x="237.6" y="522.8"/>
      <point x="253.9" y="518.1"/>
    </contour>
  </outline>
</glyph>
<glyph name="h" format="2">
  <advance width="317.0"/>
  <unicode hex="0068"/>
  <note>
16
</note>
  <anchor x="120.2" y="0.0" name="bottom"/>
  <anchor x="174.8" y="370.0" name="center"/>
  <anchor x="236.4" y="740.0" name="top"/>
  <outline>
    <contour>
      <point x="226.2" y="34.8" type="curve" smooth="yes"/>
      <point x="226.2" y="67.8"/>
      <point x="289.6" y="430.9"/>
      <point x="289.6" y="462.0" type="curve" smooth="yes"/>
      <point x="289.6" y="507.2"/>
      <point x="269.1" y="540.0"/>
      <point x="216.9" y="540.0" type="curve" smooth="yes"/>
      <point x="180.9" y="540.0"/>
      <point x="142.4" y="526.0"/>
      <point x="111.3" y="508.7" type="curve"/>
      <point x="147.7" y="740.0" type="line"/>
      <point x="128.7" y="740.0" type="line"/>
      <point x="11.7" y="0.0" type="line"/>
      <point x="30.7" y="0.0" type="line"/>
      <point x="107.4" y="487.5" type="line"/>
      <point x="138.4" y="507.2"/>
      <point x="178.8" y="521.9"/>
      <point x="209.4" y="521.9" type="curve" smooth="yes"/>
      <point x="256.6" y="521.9"/>
      <point x="269.6" y="494.8"/>
      <point x="269.6" y="459.4" type="curve" smooth="yes"/>
      <point x="269.6" y="428.2"/>
      <point x="208.1" y="70.5"/>
      <point x="208.1" y="31.8" type="curve" smooth="yes"/>
      <point x="208.1" y="4.2"/>
      <point x="227.3" y="-10.0"/>
      <point x="249.8" y="-10.0" type="curve" smooth="yes"/>
      <point x="260.1" y="-10.0"/>
      <point x="271.2" y="-8.9"/>
      <point x="285.4" y="-1.9" type="curve"/>
      <point x="281.4" y="13.4" type="line"/>
      <point x="269.3" y="8.4"/>
      <point x="261.2" y="7.2"/>
      <point x="254.2" y="7.2" type="curve" smooth="yes"/>
      <point x="233.9" y="7.2"/>
      <point x="226.2" y="17.3"/>
    </contour>
  </outline>
</glyph>
<glyph name="i" format="2">
  <advance width="130.2"/>
  <unicode hex="0069"/>
  <note>
Ajuster pts sur points
8
</note>
  <anchor x="20.6" y="0.0" name="bottom"/>
  <anchor x="30.6" y="0.0" name="ogonek"/>
  <anchor x="104.7" y="530.0" name="top"/>
  <outline>
    <contour>
      <point x="12.5" y="0.0" type="line"/>
      <point x="30.6" y="0.0" type="line"/>
      <point x="114.6" y="530.0" type="line"/>
      <point x="95.6" y="530.0" type="line"/>
    </contour>
    <contour>
      <point x="134.5" y="710.0" type="curve" smooth="yes"/>
      <point x="120.6" y="710.0"/>
      <point x="120.1" y="708.2"/>
      <point x="117.3" y="684.0" type="curve" smooth="yes"/>
      <point x="116.4" y="676.1"/>
      <point x="121.5" y="676.0"/>
      <point x="127.4" y="676.0" type="curve" smooth="yes"/>
      <point x="141.8" y="676.0"/>
      <point x="141.9" y="677.8"/>
      <point x="144.8" y="702.1" type="curve" smooth="yes"/>
      <point x="145.7" y="709.9"/>
      <point x="140.9" y="710.0"/>
    </contour>
  </outline>
</glyph>
<glyph name="j" format="2">
  <advance width="138.7"/>
  <unicode hex="006A"/>
  <note>
idem /i
12
</note>
  <outline>
    <contour>
      <point x="143.0" y="710.0" type="curve" smooth="yes"/>
      <point x="129.1" y="710.0"/>
      <point x="128.8" y="708.2"/>
      <point x="126.0" y="684.0" type="curve" smooth="yes"/>
      <point x="125.1" y="676.1"/>
      <point x="130.0" y="676.0"/>
      <point x="135.9" y="676.0" type="curve" smooth="yes"/>
      <point x="150.0" y="676.0"/>
      <point x="150.2" y="677.8"/>
      <point x="153.1" y="702.1" type="curve" smooth="yes"/>
      <point x="154.0" y="709.9"/>
      <point x="149.4" y="710.0"/>
    </contour>
    <contour>
      <point x="123.1" y="530.0" type="line"/>
      <point x="104.1" y="530.0" type="line"/>
      <point x="10.100000000000001" y="-66.0" type="line" smooth="yes"/>
      <point x="-3.0" y="-148.6"/>
      <point x="-25.7" y="-203.0"/>
      <point x="-84.0" y="-203.0" type="curve" smooth="yes"/>
      <point x="-99.0" y="-203.0"/>
      <point x="-111.1" y="-201.0"/>
      <point x="-128.1" y="-195.4" type="curve"/>
      <point x="-132.2" y="-212.4" type="line"/>
      <point x="-117.7" y="-217.9"/>
      <point x="-100.3" y="-220.0"/>
      <point x="-82.1" y="-220.0" type="curve" smooth="yes"/>
      <point x="-18.3" y="-220.0"/>
      <point x="13.100000000000001" y="-167.8"/>
      <point x="28.1" y="-71.0" type="curve" smooth="yes"/>
    </contour>
  </outline>
</glyph>
<glyph name="k" format="2">
  <advance width="293.0"/>
  <unicode hex="006B"/>
  <anchor x="123.25" y="0.0" name="bottom"/>
  <anchor x="138.75" y="740.0" name="top"/>
  <outline>
    <contour>
      <point x="11.75" y="0.0" type="line"/>
      <point x="30.75" y="0.0" type="line"/>
      <point x="147.75" y="740.0" type="line"/>
      <point x="128.75" y="740.0" type="line"/>
    </contour>
    <contour>
      <point x="252.75" y="-10.0" type="curve" smooth="yes"/>
      <point x="259.25" y="-10.0"/>
      <point x="265.75" y="-8.75"/>
      <point x="272.75" y="-5.75" type="curve"/>
      <point x="269.25" y="10.0" type="line"/>
      <point x="263.25" y="8.0"/>
      <point x="258.0" y="7.0"/>
      <point x="253.75" y="7.0" type="curve" smooth="yes"/>
      <point x="226.75" y="7.0"/>
      <point x="202.75" y="41.5"/>
      <point x="152.75" y="162.75" type="curve" smooth="yes"/>
      <point x="78.25" y="339.5" type="line"/>
      <point x="67.0" y="319.0" type="line"/>
      <point x="145.25" y="131.0" type="line" smooth="yes"/>
      <point x="191.25" y="20.0"/>
      <point x="216.5" y="-10.0"/>
    </contour>
    <contour>
      <point x="110.0" y="247.0" type="line"/>
      <point x="192.0" y="307.0"/>
      <point x="266.25" y="412.5"/>
      <point x="311.0" y="531.5" type="curve"/>
      <point x="294.25" y="539.0" type="line"/>
      <point x="245.0" y="415.25"/>
      <point x="189.0" y="330.0"/>
      <point x="103.75" y="265.25" type="curve"/>
    </contour>
  </outline>
</glyph>
<glyph name="l" format="2">
  <advance width="142.6"/>
  <unicode hex="006C"/>
  <anchor x="68.2" y="0.0" name="bottom"/>
  <anchor x="79.7" y="370.0" name="center"/>
  <anchor x="137.8" y="740.0" name="top"/>
  <anchor x="218.3" y="740.0" name="topright"/>
  <outline>
    <contour>
      <point x="128.7" y="740.0" type="line"/>
      <point x="21.4" y="62.9" type="line" smooth="yes"/>
      <point x="20.3" y="54.4"/>
      <point x="19.0" y="44.5"/>
      <point x="19.0" y="35.8" type="curve" smooth="yes"/>
      <point x="19.0" y="7.6"/>
      <point x="31.9" y="-10.0"/>
      <point x="66.8" y="-10.0" type="curve" smooth="yes"/>
      <point x="81.3" y="-10.0"/>
      <point x="98.8" y="-6.7"/>
      <point x="113.2" y="-1.5" type="curve"/>
      <point x="109.1" y="13.9" type="line"/>
      <point x="92.9" y="8.7"/>
      <point x="80.3" y="6.3"/>
      <point x="69.8" y="6.3" type="curve" smooth="yes"/>
      <point x="44.3" y="6.3"/>
      <point x="37.2" y="17.5"/>
      <point x="37.2" y="32.4" type="curve" smooth="yes"/>
      <point x="37.2" y="45.1"/>
      <point x="40.3" y="60.1"/>
      <point x="44.1" y="84.5" type="curve" smooth="yes"/>
      <point x="147.8" y="740.0" type="line"/>
    </contour>
  </outline>
</glyph>
<glyph name="m" format="2">
  <advance width="476.7"/>
  <unicode hex="006D"/>
  <note>
24&gt;23 points
un point de trop dans la jointure avec 2e jambage
</note>
  <outline>
    <contour>
      <point x="409.5" y="-10.0" type="curve" smooth="yes"/>
      <point x="419.8" y="-10.0"/>
      <point x="430.9" y="-8.9"/>
      <point x="445.1" y="-1.9" type="curve"/>
      <point x="441.1" y="13.4" type="line"/>
      <point x="429.0" y="8.4"/>
      <point x="420.9" y="7.2"/>
      <point x="413.9" y="7.2" type="curve" smooth="yes"/>
      <point x="393.6" y="7.2"/>
      <point x="385.1" y="17.2"/>
      <point x="385.1" y="34.7" type="curve" smooth="yes"/>
      <point x="385.1" y="67.7"/>
      <point x="448.5" y="430.9"/>
      <point x="448.5" y="462.0" type="curve" smooth="yes"/>
      <point x="448.5" y="507.2"/>
      <point x="428.8" y="540.0"/>
      <point x="376.6" y="540.0" type="curve" smooth="yes"/>
      <point x="345.8" y="540.0"/>
      <point x="306.3" y="527.6"/>
      <point x="268.5" y="501.3" type="curve"/>
      <point x="257.7" y="524.9"/>
      <point x="234.4" y="540.0"/>
      <point x="203.0" y="540.0" type="curve" smooth="yes"/>
      <point x="172.4" y="540.0"/>
      <point x="139.5" y="525.5"/>
      <point x="109.7" y="508.0" type="curve"/>
      <point x="113.7" y="530.0" type="line"/>
      <point x="94.7" y="530.0" type="line"/>
      <point x="10.8" y="0.0" type="line"/>
      <point x="29.8" y="0.0" type="line"/>
      <point x="106.6" y="488.5" type="line"/>
      <point x="136.1" y="508.7"/>
      <point x="169.5" y="521.9"/>
      <point x="199.9" y="521.9" type="curve" smooth="yes"/>
      <point x="240.7" y="521.9"/>
      <point x="256.6" y="495.9"/>
      <point x="256.6" y="461.8" type="curve" smooth="yes"/>
      <point x="256.6" y="429.7"/>
      <point x="190.7" y="33.7"/>
      <point x="185.8" y="0.0" type="curve"/>
      <point x="205.7" y="0.0" type="line"/>
      <point x="210.6" y="33.4"/>
      <point x="276.5" y="438.9"/>
      <point x="276.5" y="469.3" type="curve" smooth="yes"/>
      <point x="276.5" y="475.1"/>
      <point x="275.5" y="480.9"/>
      <point x="274.4" y="485.8" type="curve"/>
      <point x="302.8" y="505.5"/>
      <point x="337.3" y="521.9"/>
      <point x="372.8" y="521.9" type="curve" smooth="yes"/>
      <point x="414.8" y="521.9"/>
      <point x="428.4" y="494.7"/>
      <point x="428.4" y="458.8" type="curve" smooth="yes"/>
      <point x="428.4" y="425.4"/>
      <point x="367.0" y="70.5"/>
      <point x="367.0" y="31.8" type="curve" smooth="yes"/>
      <point x="367.0" y="4.2"/>
      <point x="387.0" y="-10.0"/>
    </contour>
  </outline>
</glyph>
<glyph name="n" format="2">
  <advance width="315.2"/>
  <unicode hex="006E"/>
  <note>
16
</note>
  <anchor x="127.5" y="0.0" name="bottom"/>
  <anchor x="195.4" y="530.0" name="top"/>
  <outline>
    <contour>
      <point x="94.7" y="530.0" type="line"/>
      <point x="10.8" y="0.0" type="line"/>
      <point x="29.8" y="0.0" type="line"/>
      <point x="106.5" y="487.5" type="line"/>
      <point x="138.1" y="507.5"/>
      <point x="177.0" y="522.8"/>
      <point x="207.6" y="522.8" type="curve" smooth="yes"/>
      <point x="254.7" y="522.8"/>
      <point x="268.6" y="494.7"/>
      <point x="268.6" y="458.8" type="curve" smooth="yes"/>
      <point x="268.6" y="428.1"/>
      <point x="207.2" y="70.5"/>
      <point x="207.2" y="31.8" type="curve" smooth="yes"/>
      <point x="207.2" y="4.2"/>
      <point x="225.5" y="-10.0"/>
      <point x="248.0" y="-10.0" type="curve" smooth="yes"/>
      <point x="258.3" y="-10.0"/>
      <point x="269.4" y="-8.9"/>
      <point x="283.6" y="-1.9" type="curve"/>
      <point x="279.6" y="13.4" type="line"/>
      <point x="267.5" y="8.4"/>
      <point x="259.4" y="7.2"/>
      <point x="252.4" y="7.2" type="curve" smooth="yes"/>
      <point x="232.1" y="7.2"/>
      <point x="225.3" y="17.3"/>
      <point x="225.3" y="34.8" type="curve" smooth="yes"/>
      <point x="225.3" y="67.8"/>
      <point x="288.7" y="430.9"/>
      <point x="288.7" y="462.0" type="curve" smooth="yes"/>
      <point x="288.7" y="507.2"/>
      <point x="267.3" y="540.0"/>
      <point x="215.1" y="540.0" type="curve" smooth="yes"/>
      <point x="179.1" y="540.0"/>
      <point x="141.4" y="524.7"/>
      <point x="109.5" y="506.8" type="curve"/>
      <point x="113.7" y="530.0" type="line"/>
    </contour>
  </outline>
</glyph>
<glyph name="o" format="2">
  <advance width="304.25"/>
  <unicode hex="006F"/>
  <note>
8
</note>
  <anchor x="115.0" y="0.0" name="bottom"/>
  <anchor x="154.5" y="266.0" name="center"/>
  <anchor x="153.25" y="2.5" name="ogonek"/>
  <anchor x="196.0" y="530.0" name="top"/>
  <anchor x="250.0" y="521.0" name="topright"/>
  <outline>
    <contour>
      <point x="112.5" y="-10.0" type="curve" smooth="yes"/>
      <point x="233.0" y="-10.0"/>
      <point x="282.0" y="276.75"/>
      <point x="282.0" y="415.25" type="curve" smooth="yes"/>
      <point x="282.0" y="511.75"/>
      <point x="248.5" y="539.25"/>
      <point x="188.5" y="539.25" type="curve" smooth="yes"/>
      <point x="68.75" y="539.25"/>
      <point x="19.0" y="251.0"/>
      <point x="19.0" y="113.5" type="curve" smooth="yes"/>
      <point x="19.0" y="16.5"/>
      <point x="51.75" y="-10.0"/>
    </contour>
    <contour>
      <point x="113.0" y="7.25" type="curve" smooth="yes"/>
      <point x="64.75" y="7.25"/>
      <point x="37.25" y="29.5"/>
      <point x="37.25" y="113.0" type="curve" smooth="yes"/>
      <point x="37.25" y="230.0"/>
      <point x="86.0" y="522.0"/>
      <point x="188.25" y="522.0" type="curve" smooth="yes"/>
      <point x="235.5" y="522.0"/>
      <point x="263.75" y="498.5"/>
      <point x="263.75" y="415.5" type="curve" smooth="yes"/>
      <point x="263.75" y="297.25"/>
      <point x="216.0" y="7.25"/>
    </contour>
  </outline>
</glyph>
<glyph name="q" format="2">
  <advance width="303.8"/>
  <unicode hex="0071"/>
  <note>
12
</note>
  <outline>
    <contour>
      <point x="289.7" y="524.3" type="line"/>
      <point x="264.8" y="533.1"/>
      <point x="239.0" y="540.0"/>
      <point x="212.0" y="540.0" type="curve" smooth="yes"/>
      <point x="61.8" y="540.0"/>
      <point x="18.9" y="264.4"/>
      <point x="18.9" y="124.8" type="curve" smooth="yes"/>
      <point x="18.9" y="30.9"/>
      <point x="57.2" y="-10.0"/>
      <point x="108.3" y="-10.0" type="curve" smooth="yes"/>
      <point x="142.1" y="-10.0"/>
      <point x="167.5" y="2.9000000000000004"/>
      <point x="190.6" y="19.700000000000003" type="curve"/>
      <point x="152.2" y="-210.0" type="line"/>
      <point x="173.0" y="-210.0" type="line"/>
    </contour>
    <contour>
      <point x="268.7" y="512.8" type="curve"/>
      <point x="193.6" y="39.9" type="line"/>
      <point x="167.8" y="18.4"/>
      <point x="137.7" y="8.1"/>
      <point x="111.2" y="8.1" type="curve" smooth="yes"/>
      <point x="61.8" y="8.1"/>
      <point x="36.2" y="59.8"/>
      <point x="36.2" y="119.9" type="curve" smooth="yes"/>
      <point x="36.2" y="292.9"/>
      <point x="91.0" y="522.8"/>
      <point x="212.6" y="522.8" type="curve" smooth="yes"/>
      <point x="230.5" y="522.8"/>
      <point x="251.0" y="518.4"/>
    </contour>
  </outline>
</glyph>
<glyph name="r" format="2">
  <advance width="213.5"/>
  <unicode hex="0072"/>
  <anchor x="19.8" y="0.0" name="bottom"/>
  <anchor x="171.7" y="530.0" name="top"/>
  <outline>
    <contour>
      <point x="113.6" y="530.0" type="line"/>
      <point x="94.7" y="530.0" type="line"/>
      <point x="10.8" y="0.0" type="line"/>
      <point x="29.7" y="0.0" type="line"/>
      <point x="102.3" y="460.9" type="line"/>
      <point x="143.0" y="504.5"/>
      <point x="177.6" y="521.9"/>
      <point x="210.8" y="521.9" type="curve" smooth="yes"/>
      <point x="225.5" y="521.9"/>
      <point x="240.1" y="519.4"/>
      <point x="254.2" y="514.8" type="curve"/>
      <point x="261.1" y="531.9" type="line"/>
      <point x="247.7" y="537.3"/>
      <point x="231.2" y="540.0"/>
      <point x="213.4" y="540.0" type="curve" smooth="yes"/>
      <point x="177.3" y="540.0"/>
      <point x="139.3" y="521.2"/>
      <point x="106.3" y="488.1" type="curve"/>
    </contour>
  </outline>
</glyph>
<glyph name="s" format="2">
  <advance width="260.5"/>
  <unicode hex="0073"/>
  <anchor x="79.75" y="0.0" name="bottom"/>
  <anchor x="184.25" y="530.0" name="top"/>
  <outline>
    <contour>
      <point x="-12.75" y="8.75" type="line"/>
      <point x="10.75" y="-3.0"/>
      <point x="43.25" y="-10.0"/>
      <point x="77.75" y="-10.0" type="curve" smooth="yes"/>
      <point x="177.0" y="-10.0"/>
      <point x="218.75" y="69.75"/>
      <point x="218.75" y="136.75" type="curve" smooth="yes"/>
      <point x="218.75" y="256.25"/>
      <point x="80.0" y="295.0"/>
      <point x="80.0" y="403.0" type="curve" smooth="yes"/>
      <point x="80.0" y="463.5"/>
      <point x="118.5" y="521.25"/>
      <point x="189.25" y="521.25" type="curve" smooth="yes"/>
      <point x="217.5" y="521.25"/>
      <point x="240.25" y="513.25"/>
      <point x="259.75" y="504.75" type="curve"/>
      <point x="268.25" y="522.0" type="line"/>
      <point x="250.0" y="532.25"/>
      <point x="220.25" y="540.0"/>
      <point x="192.5" y="540.0" type="curve" smooth="yes"/>
      <point x="101.25" y="540.0"/>
      <point x="61.25" y="467.5"/>
      <point x="61.25" y="404.5" type="curve" smooth="yes"/>
      <point x="61.25" y="279.0"/>
      <point x="199.0" y="251.25"/>
      <point x="199.0" y="135.5" type="curve" smooth="yes"/>
      <point x="199.0" y="70.5"/>
      <point x="157.0" y="8.75"/>
      <point x="81.25" y="8.75" type="curve" smooth="yes"/>
      <point x="49.25" y="8.75"/>
      <point x="20.0" y="15.25"/>
      <point x="-4.0" y="27.0" type="curve"/>
    </contour>
  </outline>
</glyph>
<glyph name="t" format="2">
  <advance width="202.3"/>
  <unicode hex="0074"/>
  <anchor x="102.8" y="0.0" name="bottom"/>
  <anchor x="91.2" y="327.2" name="center"/>
  <anchor x="135.7" y="665.0" name="top"/>
  <anchor x="241.6" y="745.5" name="topright"/>
  <outline>
    <contour>
      <point x="163.4" y="17.5" type="line"/>
      <point x="146.4" y="12.5"/>
      <point x="128.7" y="9.0"/>
      <point x="113.1" y="9.0" type="curve" smooth="yes"/>
      <point x="70.3" y="9.0"/>
      <point x="52.6" y="30.1"/>
      <point x="52.6" y="73.1" type="curve" smooth="yes"/>
      <point x="52.6" y="85.4"/>
      <point x="54.5" y="98.7"/>
      <point x="56.6" y="114.7" type="curve" smooth="yes"/>
      <point x="119.5" y="511.2" type="line"/>
      <point x="244.6" y="511.2" type="line"/>
      <point x="247.6" y="530.0" type="line"/>
      <point x="122.5" y="530.0" type="line"/>
      <point x="143.6" y="665.0" type="line"/>
      <point x="129.9" y="665.0" type="line"/>
      <point x="103.5" y="530.0" type="line"/>
      <point x="41.5" y="524.0" type="line"/>
      <point x="39.4" y="511.2" type="line"/>
      <point x="100.5" y="511.2" type="line"/>
      <point x="37.6" y="114.7" type="line" smooth="yes"/>
      <point x="34.6" y="97.6"/>
      <point x="33.5" y="81.0"/>
      <point x="33.5" y="67.3" type="curve" smooth="yes"/>
      <point x="33.5" y="19.9"/>
      <point x="52.8" y="-10.0"/>
      <point x="109.7" y="-10.0" type="curve" smooth="yes"/>
      <point x="125.9" y="-10.0"/>
      <point x="146.2" y="-7.1"/>
      <point x="168.5" y="0.40000000000000036" type="curve"/>
    </contour>
  </outline>
</glyph>
<glyph name="u" format="2">
  <advance width="312.6"/>
  <unicode hex="0075"/>
  <note>
15
</note>
  <anchor x="114.0" y="0.0" name="bottom"/>
  <anchor x="279.5" y="0.0" name="ogonek"/>
  <anchor x="192.9" y="530.0" name="top"/>
  <anchor x="294.9" y="530.0" name="topright"/>
  <outline>
    <contour>
      <point x="92.9" y="-10.0" type="curve" smooth="yes"/>
      <point x="129.8" y="-10.0"/>
      <point x="162.6" y="2.6"/>
      <point x="201.0" y="26.9" type="curve"/>
      <point x="203.7" y="0.8"/>
      <point x="219.0" y="-10.0"/>
      <point x="241.1" y="-10.0" type="curve" smooth="yes"/>
      <point x="249.1" y="-10.0"/>
      <point x="267.3" y="-6.1"/>
      <point x="279.5" y="0.0" type="curve"/>
      <point x="274.7" y="14.3" type="line"/>
      <point x="262.5" y="9.3"/>
      <point x="250.0" y="6.3"/>
      <point x="243.0" y="6.3" type="curve" smooth="yes"/>
      <point x="223.9" y="6.3"/>
      <point x="218.2" y="17.2"/>
      <point x="218.2" y="32.9" type="curve" smooth="yes"/>
      <point x="218.2" y="44.2"/>
      <point x="221.0" y="66.1"/>
      <point x="294.9" y="530.0" type="curve"/>
      <point x="275.8" y="530.0" type="line"/>
      <point x="200.2" y="45.0" type="line"/>
      <point x="163.4" y="19.8"/>
      <point x="130.1" y="7.2"/>
      <point x="96.9" y="7.2" type="curve" smooth="yes"/>
      <point x="60.0" y="7.2"/>
      <point x="40.4" y="32.1"/>
      <point x="40.4" y="64.4" type="curve" smooth="yes"/>
      <point x="40.4" y="78.4"/>
      <point x="41.4" y="86.6"/>
      <point x="110.8" y="530.0" type="curve"/>
      <point x="91.8" y="530.0" type="line"/>
      <point x="43.1" y="209.6"/>
      <point x="21.4" y="97.9"/>
      <point x="21.4" y="58.9" type="curve" smooth="yes"/>
      <point x="21.4" y="16.7"/>
      <point x="48.6" y="-10.0"/>
    </contour>
  </outline>
</glyph>
<glyph name="v" format="2">
  <advance width="269.75"/>
  <unicode hex="0076"/>
  <outline>
    <contour>
      <point x="103.75" y="-3.5" type="line"/>
      <point x="237.25" y="357.75"/>
      <point x="281.75" y="424.5"/>
      <point x="282.0" y="530.0" type="curve"/>
      <point x="263.25" y="530.0" type="line"/>
      <point x="259.75" y="429.5"/>
      <point x="236.25" y="399.0"/>
      <point x="97.25" y="29.5" type="curve"/>
      <point x="73.25" y="531.0" type="line"/>
      <point x="54.5" y="530.25" type="line"/>
      <point x="82.0" y="-3.5" type="line"/>
    </contour>
  </outline>
</glyph>
<glyph name="w" format="2">
  <advance width="449.5"/>
  <unicode hex="0077"/>
  <note>
15
</note>
  <anchor x="195.5" y="0.0" name="bottom"/>
  <anchor x="258.75" y="530.0" name="top"/>
  <outline>
    <contour>
      <point x="302.5" y="0.0" type="line"/>
      <point x="431.0" y="380.0"/>
      <point x="452.25" y="418.25"/>
      <point x="460.25" y="530.0" type="curve"/>
      <point x="441.5" y="530.0" type="line"/>
      <point x="431.5" y="415.25"/>
      <point x="415.25" y="380.75"/>
      <point x="296.5" y="33.75" type="curve"/>
      <point x="267.25" y="477.0" type="line"/>
      <point x="245.5" y="477.0" type="line"/>
      <point x="196.5" y="328.5"/>
      <point x="148.5" y="180.0"/>
      <point x="99.5" y="31.5" type="curve"/>
      <point x="67.5" y="531.0" type="line"/>
      <point x="49.5" y="530.25" type="line"/>
      <point x="83.75" y="0.0" type="line"/>
      <point x="105.5" y="0.0" type="line"/>
      <point x="154.5" y="147.5"/>
      <point x="204.25" y="295.75"/>
      <point x="253.25" y="443.25" type="curve"/>
      <point x="280.75" y="0.0" type="line"/>
    </contour>
  </outline>
</glyph>
<glyph name="x" format="2">
  <advance width="264.5"/>
  <unicode hex="0078"/>
  <outline>
    <contour>
      <point x="256.75" y="530.0" type="line"/>
      <point x="252.0" y="461.75"/>
      <point x="228.5" y="382.75"/>
      <point x="140.75" y="283.25" type="curve"/>
      <point x="82.0" y="534.75" type="line"/>
      <point x="65.0" y="530.0" type="line"/>
      <point x="125.75" y="269.25" type="line"/>
      <point x="34.0" y="165.75"/>
      <point x="-9.0" y="77.5"/>
      <point x="-12.25" y="0.0" type="curve"/>
      <point x="5.0" y="0.0" type="line"/>
      <point x="11.25" y="80.5"/>
      <point x="49.25" y="155.25"/>
      <point x="130.75" y="248.25" type="curve"/>
      <point x="190.75" y="-3.0" type="line"/>
      <point x="207.5" y="1.0" type="line"/>
      <point x="145.5" y="263.25" type="line"/>
      <point x="239.25" y="363.0"/>
      <point x="272.0" y="459.5"/>
      <point x="275.25" y="530.0" type="curve"/>
    </contour>
  </outline>
</glyph>
<glyph name="y" format="2">
  <advance width="269.5"/>
  <unicode hex="0079"/>
  <anchor x="76.25" y="-210.0" name="bottom"/>
  <anchor x="164.25" y="530.0" name="top"/>
  <outline>
    <contour>
      <point x="266.25" y="539.0" type="line"/>
      <point x="237.25" y="337.75"/>
      <point x="174.75" y="171.75"/>
      <point x="111.75" y="23.0" type="curve"/>
      <point x="64.5" y="540.0" type="line"/>
      <point x="45.5" y="537.5" type="line"/>
      <point x="95.0" y="-1.0" type="line"/>
      <point x="99.5" y="-1.0" type="line"/>
      <point x="66.0" y="-79.75"/>
      <point x="31.0" y="-150.0"/>
      <point x="-1.0" y="-209.5" type="curve"/>
      <point x="15.5" y="-220.0" type="line"/>
      <point x="126.75" y="-11.25"/>
      <point x="249.5" y="288.25"/>
      <point x="284.25" y="535.5" type="curve"/>
    </contour>
  </outline>
</glyph>
<glyph name="z" format="2">
  <advance width="272.75"/>
  <unicode hex="007A"/>
  <anchor x="109.5" y="0.0" name="bottom"/>
  <anchor x="132.25" y="275.0" name="center"/>
  <anchor x="183.0" y="530.0" name="top"/>
  <outline>
    <contour>
      <point x="-11.5" y="0.0" type="line"/>
      <point x="228.0" y="0.0" type="line"/>
      <point x="231.0" y="18.75" type="line"/>
      <point x="11.25" y="18.75" type="line"/>
      <point x="290.0" y="512.0" type="line"/>
      <point x="292.25" y="530.0" type="line"/>
      <point x="79.25" y="530.0" type="line"/>
      <point x="76.25" y="511.25" type="line"/>
      <point x="269.5" y="511.25" type="line"/>
      <point x="-9.5" y="18.0" type="line"/>
    </contour>
  </outline>
</glyph>
<glyph name="braceleft" format="2">
  <advance width="212.5"/>
  <unicode hex="007B"/>
  <outline>
    <contour>
      <point x="21.9" y="-122.5" type="curve" smooth="yes"/>
      <point x="21.9" y="-172.5"/>
      <point x="40.4" y="-210.0"/>
      <point x="84.1" y="-210.0" type="curve" smooth="yes"/>
      <point x="106.4" y="-210.0" type="line"/>
      <point x="109.4" y="-190.0" type="line"/>
      <point x="87.1" y="-190.0" type="line" smooth="yes"/>
      <point x="53.8" y="-190.0"/>
      <point x="40.1" y="-161.3"/>
      <point x="40.1" y="-121.2" type="curve" smooth="yes"/>
      <point x="40.1" y="-3.2"/>
      <point x="114.8" y="101.5"/>
      <point x="114.8" y="213.4" type="curve" smooth="yes"/>
      <point x="114.8" y="239.3"/>
      <point x="111.5" y="263.7"/>
      <point x="89.5" y="273.0" type="curve"/>
      <point x="132.8" y="277.6"/>
      <point x="148.2" y="356.9"/>
      <point x="148.2" y="410.9" type="curve" smooth="yes"/>
      <point x="148.2" y="461.8"/>
      <point x="146.0" y="491.9"/>
      <point x="146.0" y="557.1" type="curve" smooth="yes"/>
      <point x="146.0" y="635.1"/>
      <point x="167.6" y="720.0"/>
      <point x="233.9" y="720.0" type="curve" smooth="yes"/>
      <point x="252.6" y="720.0" type="line"/>
      <point x="255.6" y="740.0" type="line"/>
      <point x="237.8" y="740.0" type="line" smooth="yes"/>
      <point x="152.9" y="740.0"/>
      <point x="127.7" y="640.7"/>
      <point x="127.7" y="549.0" type="curve" smooth="yes"/>
      <point x="127.7" y="489.4"/>
      <point x="129.9" y="456.9"/>
      <point x="129.9" y="422.6" type="curve" smooth="yes"/>
      <point x="129.9" y="366.1"/>
      <point x="119.9" y="283.9"/>
      <point x="73.9" y="283.9" type="curve" smooth="yes"/>
      <point x="60.4" y="283.9" type="line"/>
      <point x="57.4" y="264.9" type="line"/>
      <point x="69.2" y="264.9" type="line" smooth="yes"/>
      <point x="92.2" y="264.9"/>
      <point x="97.6" y="242.2"/>
      <point x="97.6" y="216.3" type="curve" smooth="yes"/>
      <point x="97.6" y="95.7"/>
      <point x="21.9" y="8.8"/>
    </contour>
  </outline>
</glyph>
<glyph name="bar" format="2">
  <advance width="125.6"/>
  <unicode hex="007C"/>
  <outline>
    <contour>
      <point x="153.8" y="790.0" type="line"/>
      <point x="135.8" y="790.0" type="line"/>
      <point x="-23.2" y="-210.0" type="line"/>
      <point x="-5.199999999999999" y="-210.0" type="line"/>
    </contour>
  </outline>
</glyph>
<glyph name="braceright" format="2">
  <advance width="212.5"/>
  <unicode hex="007D"/>
  <outline>
    <contour>
      <point x="187.5" y="652.5" type="curve" smooth="yes"/>
      <point x="187.5" y="702.5"/>
      <point x="169.0" y="740.0"/>
      <point x="125.3" y="740.0" type="curve" smooth="yes"/>
      <point x="103.0" y="740.0" type="line"/>
      <point x="100.0" y="720.0" type="line"/>
      <point x="122.3" y="720.0" type="line" smooth="yes"/>
      <point x="155.6" y="720.0"/>
      <point x="169.3" y="691.3"/>
      <point x="169.3" y="651.2" type="curve" smooth="yes"/>
      <point x="169.3" y="533.2"/>
      <point x="94.6" y="436.6"/>
      <point x="94.6" y="324.7" type="curve" smooth="yes"/>
      <point x="94.6" y="298.8"/>
      <point x="97.9" y="274.4"/>
      <point x="119.9" y="265.1" type="curve"/>
      <point x="76.6" y="260.5"/>
      <point x="61.2" y="181.2"/>
      <point x="61.2" y="127.2" type="curve" smooth="yes"/>
      <point x="61.2" y="76.3"/>
      <point x="63.4" y="38.1"/>
      <point x="63.4" y="-27.1" type="curve" smooth="yes"/>
      <point x="63.4" y="-105.1"/>
      <point x="41.8" y="-190.0"/>
      <point x="-24.5" y="-190.0" type="curve" smooth="yes"/>
      <point x="-43.2" y="-190.0" type="line"/>
      <point x="-46.2" y="-210.0" type="line"/>
      <point x="-28.4" y="-210.0" type="line" smooth="yes"/>
      <point x="56.5" y="-210.0"/>
      <point x="81.7" y="-110.7"/>
      <point x="81.7" y="-19.0" type="curve" smooth="yes"/>
      <point x="81.7" y="40.6"/>
      <point x="79.5" y="81.2"/>
      <point x="79.5" y="115.5" type="curve" smooth="yes"/>
      <point x="79.5" y="172.0"/>
      <point x="89.5" y="254.2"/>
      <point x="135.5" y="254.2" type="curve" smooth="yes"/>
      <point x="149.0" y="254.2" type="line"/>
      <point x="152.0" y="273.2" type="line"/>
      <point x="140.2" y="273.2" type="line" smooth="yes"/>
      <point x="117.2" y="273.2"/>
      <point x="111.8" y="295.9"/>
      <point x="111.8" y="321.8" type="curve" smooth="yes"/>
      <point x="111.8" y="442.4"/>
      <point x="187.5" y="521.2"/>
    </contour>
  </outline>
</glyph>
<glyph name="asciitilde" format="2">
  <advance width="362.0"/>
  <unicode hex="007E"/>
  <outline>
    <contour>
      <point x="302.2" y="253.9" type="curve"/>
      <point x="306.2" y="278.8" type="line"/>
      <point x="286.5" y="253.4"/>
      <point x="271.0" y="240.8"/>
      <point x="250.1" y="240.8" type="curve" smooth="yes"/>
      <point x="195.1" y="240.8"/>
      <point x="181.6" y="359.9"/>
      <point x="122.2" y="359.9" type="curve" smooth="yes"/>
      <point x="99.4" y="359.9"/>
      <point x="84.3" y="349.6"/>
      <point x="65.6" y="327.0" type="curve"/>
      <point x="61.6" y="302.0" type="line"/>
      <point x="81.9" y="327.1"/>
      <point x="96.7" y="339.9"/>
      <point x="117.6" y="339.9" type="curve" smooth="yes"/>
      <point x="168.2" y="339.9"/>
      <point x="182.5" y="220.8"/>
      <point x="246.4" y="220.8" type="curve" smooth="yes"/>
      <point x="270.1" y="220.8"/>
      <point x="284.5" y="231.2"/>
    </contour>
  </outline>
</glyph>
<glyph name="cent" format="2">
  <advance width="328.4"/>
  <unicode hex="00A2"/>
  <outline>
    <contour>
      <point x="131.6" y="-105.0" type="line"/>
      <point x="149.6" y="-105.0" type="line"/>
      <point x="164.6" y="-9.9" type="line"/>
      <point x="192.3" y="-8.5"/>
      <point x="217.1" y="-4.4"/>
      <point x="234.2" y="1.3000000000000003" type="curve"/>
      <point x="231.0" y="17.6" type="line"/>
      <point x="213.3" y="11.8"/>
      <point x="183.3" y="7.2"/>
      <point x="164.4" y="7.2" type="curve" smooth="yes"/>
      <point x="102.1" y="7.2"/>
      <point x="78.3" y="51.7"/>
      <point x="78.3" y="130.5" type="curve" smooth="yes"/>
      <point x="78.3" y="349.7"/>
      <point x="154.7" y="521.0"/>
      <point x="245.4" y="521.0" type="curve" smooth="yes"/>
      <point x="266.3" y="521.0"/>
      <point x="285.5" y="516.3"/>
      <point x="303.0" y="510.9" type="curve"/>
      <point x="309.9" y="529.1" type="line"/>
      <point x="292.6" y="534.0"/>
      <point x="276.3" y="538.2"/>
      <point x="257.0" y="539.1" type="curve"/>
      <point x="272.9" y="635.0" type="line"/>
      <point x="254.9" y="635.0" type="line"/>
      <point x="239.0" y="539.0" type="line"/>
      <point x="137.9" y="532.8"/>
      <point x="59.3" y="361.9"/>
      <point x="59.3" y="127.1" type="curve" smooth="yes"/>
      <point x="59.3" y="28.8"/>
      <point x="98.8" y="-3.6"/>
      <point x="145.6" y="-9.0" type="curve"/>
    </contour>
  </outline>
</glyph>
<glyph name="sterling" format="2">
  <advance width="328.4"/>
  <unicode hex="00A3"/>
  <outline>
    <contour>
      <point x="27.9" y="0.0" type="line"/>
      <point x="243.5" y="0.0" type="line"/>
      <point x="246.5" y="20.0" type="line"/>
      <point x="53.8" y="20.0" type="line"/>
      <point x="115.3" y="100.2"/>
      <point x="155.5" y="175.4"/>
      <point x="155.5" y="290.2" type="curve" smooth="yes"/>
      <point x="155.5" y="355.0"/>
      <point x="136.1" y="406.1"/>
      <point x="136.1" y="470.8" type="curve" smooth="yes"/>
      <point x="136.1" y="630.9"/>
      <point x="206.7" y="690.2"/>
      <point x="260.9" y="690.2" type="curve" smooth="yes"/>
      <point x="289.2" y="690.2"/>
      <point x="314.0" y="684.7"/>
      <point x="339.6" y="672.6" type="curve"/>
      <point x="349.2" y="690.5" type="line"/>
      <point x="325.5" y="702.9"/>
      <point x="296.0" y="710.0"/>
      <point x="270.9" y="710.0" type="curve" smooth="yes"/>
      <point x="186.5" y="710.0"/>
      <point x="118.0" y="637.6"/>
      <point x="118.0" y="475.8" type="curve" smooth="yes"/>
      <point x="118.0" y="390.9"/>
      <point x="136.5" y="361.1"/>
      <point x="136.5" y="284.6" type="curve" smooth="yes"/>
      <point x="136.5" y="169.3"/>
      <point x="89.4" y="98.3"/>
      <point x="28.200000000000003" y="20.0" type="curve"/>
    </contour>
    <contour>
      <point x="69.0" y="365.9" type="line"/>
      <point x="279.2" y="366.1" type="line"/>
      <point x="282.2" y="384.9" type="line"/>
      <point x="72.0" y="384.9" type="line"/>
    </contour>
  </outline>
</glyph>
<glyph name="currency" format="2">
  <advance width="380.0"/>
  <unicode hex="00A4"/>
  <outline>
    <contour>
      <point x="22.8" y="113.0" type="line"/>
      <point x="102.6" y="188.0" type="line"/>
      <point x="119.7" y="168.0"/>
      <point x="144.6" y="157.0"/>
      <point x="174.6" y="157.0" type="curve" smooth="yes"/>
      <point x="204.5" y="157.0"/>
      <point x="233.5" y="168.1"/>
      <point x="257.5" y="188.0" type="curve"/>
      <point x="313.5" y="113.0" type="line"/>
      <point x="329.3" y="127.0" type="line"/>
      <point x="272.5" y="202.0" type="line"/>
      <point x="299.4" y="230.1"/>
      <point x="317.4" y="270.0"/>
      <point x="317.4" y="313.1" type="curve" smooth="yes"/>
      <point x="317.4" y="337.0"/>
      <point x="311.4" y="358.1"/>
      <point x="300.4" y="376.0" type="curve"/>
      <point x="380.3" y="451.0" type="line"/>
      <point x="369.4" y="465.0" type="line"/>
      <point x="289.5" y="390.0" type="line"/>
      <point x="271.6" y="410.0"/>
      <point x="246.5" y="422.0"/>
      <point x="216.6" y="422.0" type="curve" smooth="yes"/>
      <point x="186.6" y="422.0"/>
      <point x="157.7" y="410.0"/>
      <point x="133.7" y="390.0" type="curve"/>
      <point x="78.7" y="465.0" type="line"/>
      <point x="64.7" y="451.0" type="line"/>
      <point x="118.7" y="376.9" type="line"/>
      <point x="91.7" y="348.0"/>
      <point x="74.7" y="309.0"/>
      <point x="74.7" y="266.0" type="curve" smooth="yes"/>
      <point x="74.7" y="241.0"/>
      <point x="80.7" y="219.0"/>
      <point x="91.7" y="201.0" type="curve"/>
      <point x="13.7" y="127.0" type="line"/>
    </contour>
    <contour>
      <point x="178.6" y="177.0" type="curve" smooth="yes"/>
      <point x="128.6" y="177.0"/>
      <point x="92.8" y="217.0"/>
      <point x="92.8" y="269.2" type="curve" smooth="yes"/>
      <point x="92.8" y="341.1"/>
      <point x="152.7" y="402.0"/>
      <point x="213.6" y="402.0" type="curve" smooth="yes"/>
      <point x="264.5" y="402.0"/>
      <point x="299.4" y="362.1"/>
      <point x="299.4" y="309.1" type="curve" smooth="yes"/>
      <point x="299.4" y="238.1"/>
      <point x="240.6" y="177.0"/>
    </contour>
  </outline>
</glyph>
<glyph name="yen" format="2">
  <advance width="328.5"/>
  <unicode hex="00A5"/>
  <outline>
    <contour>
      <point x="83.75" y="365.0" type="line"/>
      <point x="171.75" y="365.0" type="line"/>
      <point x="149.25" y="224.75" type="line"/>
      <point x="63.0" y="224.75" type="line"/>
      <point x="59.0" y="205.75" type="line"/>
      <point x="146.25" y="205.75" type="line"/>
      <point x="113.75" y="0.0" type="line"/>
      <point x="131.75" y="0.0" type="line"/>
      <point x="164.25" y="205.75" type="line"/>
      <point x="256.0" y="205.75" type="line"/>
      <point x="259.0" y="224.75" type="line"/>
      <point x="167.25" y="224.75" type="line"/>
      <point x="189.75" y="365.0" type="line"/>
      <point x="280.5" y="365.0" type="line"/>
      <point x="284.5" y="384.25" type="line"/>
      <point x="194.5" y="384.25" type="line"/>
      <point x="341.25" y="700.0" type="line"/>
      <point x="324.25" y="708.0" type="line"/>
      <point x="189.75" y="414.25" type="line"/>
      <point x="139.75" y="702.5" type="line"/>
      <point x="122.0" y="699.25" type="line"/>
      <point x="174.75" y="384.25" type="line"/>
      <point x="87.75" y="384.25" type="line"/>
    </contour>
  </outline>
</glyph>
<glyph name="brokenbar" format="2">
  <advance width="126.5"/>
  <unicode hex="00A6"/>
  <outline>
    <contour>
      <point x="89.8" y="391.0" type="line"/>
      <point x="153.8" y="790.0" type="line"/>
      <point x="135.8" y="790.0" type="line"/>
      <point x="71.8" y="391.0" type="line"/>
    </contour>
    <contour>
      <point x="40.8" y="190.0" type="line"/>
      <point x="-22.299999999999997" y="-210.0" type="line"/>
      <point x="-4.299999999999999" y="-210.0" type="line"/>
      <point x="58.8" y="190.0" type="line"/>
    </contour>
  </outline>
</glyph>
<glyph name="section" format="2">
  <advance width="352.25"/>
  <unicode hex="00A7"/>
  <outline>
    <contour>
      <point x="-2.5" y="-163.0" type="curve"/>
      <point x="-17.5" y="-179.0" type="line"/>
      <point x="13.25" y="-208.5"/>
      <point x="37.75" y="-220.0"/>
      <point x="77.25" y="-220.0" type="curve" smooth="yes"/>
      <point x="196.0" y="-220.0"/>
      <point x="303.0" y="-58.0"/>
      <point x="303.0" y="140.0" type="curve" smooth="yes"/>
      <point x="303.0" y="323.25"/>
      <point x="205.5" y="437.75"/>
      <point x="205.5" y="595.5" type="curve" smooth="yes"/>
      <point x="205.5" y="673.0"/>
      <point x="237.5" y="728.5"/>
      <point x="286.5" y="728.5" type="curve" smooth="yes"/>
      <point x="300.25" y="728.5"/>
      <point x="313.5" y="724.5"/>
      <point x="328.5" y="717.0" type="curve"/>
      <point x="339.0" y="737.0" type="line"/>
      <point x="319.5" y="745.25"/>
      <point x="297.5" y="749.0"/>
      <point x="275.5" y="749.0" type="curve" smooth="yes"/>
      <point x="151.5" y="749.0"/>
      <point x="51.25" y="602.5"/>
      <point x="51.25" y="401.5" type="curve" smooth="yes"/>
      <point x="51.25" y="199.5"/>
      <point x="147.0" y="69.0"/>
      <point x="147.0" y="-76.0" type="curve" smooth="yes"/>
      <point x="147.0" y="-149.0"/>
      <point x="111.5" y="-199.5"/>
      <point x="64.5" y="-199.5" type="curve" smooth="yes"/>
      <point x="40.75" y="-199.5"/>
      <point x="15.25" y="-184.75"/>
    </contour>
    <contour>
      <point x="236.75" y="725.25" type="curve"/>
      <point x="207.0" y="701.0"/>
      <point x="188.5" y="650.0"/>
      <point x="188.5" y="599.0" type="curve" smooth="yes"/>
      <point x="188.5" y="417.0"/>
      <point x="285.0" y="320.0"/>
      <point x="285.0" y="126.0" type="curve" smooth="yes"/>
      <point x="285.0" y="-29.0"/>
      <point x="199.0" y="-178.0"/>
      <point x="115.5" y="-194.5" type="curve"/>
      <point x="148.75" y="-163.25"/>
      <point x="165.0" y="-120.0"/>
      <point x="165.0" y="-70.0" type="curve" smooth="yes"/>
      <point x="165.0" y="75.75"/>
      <point x="69.5" y="220.5"/>
      <point x="69.5" y="393.5" type="curve" smooth="yes"/>
      <point x="69.5" y="565.5"/>
      <point x="133.25" y="693.5"/>
    </contour>
  </outline>
</glyph>
<glyph name="copyright" format="2">
  <advance width="368.0"/>
  <unicode hex="00A9"/>
  <outline>
    <contour>
      <point x="143.75" y="-10.0" type="curve" smooth="yes"/>
      <point x="282.5" y="-10.0"/>
      <point x="355.75" y="307.75"/>
      <point x="355.75" y="553.25" type="curve" smooth="yes"/>
      <point x="355.75" y="660.75"/>
      <point x="317.5" y="712.25"/>
      <point x="249.0" y="712.25" type="curve" smooth="yes"/>
      <point x="109.5" y="712.25"/>
      <point x="36.25" y="394.5"/>
      <point x="36.25" y="149.0" type="curve" smooth="yes"/>
      <point x="36.25" y="41.5"/>
      <point x="74.5" y="-10.0"/>
    </contour>
    <contour>
      <point x="179.75" y="168.0" type="curve" smooth="yes"/>
      <point x="192.75" y="168.0"/>
      <point x="211.25" y="171.0"/>
      <point x="223.75" y="174.25" type="curve"/>
      <point x="223.25" y="192.25" type="line"/>
      <point x="213.5" y="189.0"/>
      <point x="193.75" y="187.0"/>
      <point x="182.25" y="187.0" type="curve" smooth="yes"/>
      <point x="150.5" y="187.0"/>
      <point x="134.75" y="214.75"/>
      <point x="134.75" y="258.25" type="curve" smooth="yes"/>
      <point x="134.75" y="374.0"/>
      <point x="177.25" y="498.75"/>
      <point x="230.75" y="498.75" type="curve" smooth="yes"/>
      <point x="245.0" y="498.75"/>
      <point x="256.0" y="498.0"/>
      <point x="268.25" y="493.75" type="curve"/>
      <point x="274.25" y="512.0" type="line"/>
      <point x="262.0" y="516.25"/>
      <point x="248.0" y="517.75"/>
      <point x="232.75" y="517.75" type="curve" smooth="yes"/>
      <point x="168.75" y="517.75"/>
      <point x="116.75" y="397.75"/>
      <point x="116.75" y="258.5" type="curve" smooth="yes"/>
      <point x="116.75" y="198.75"/>
      <point x="137.75" y="168.0"/>
    </contour>
    <contour>
      <point x="144.25" y="8.25" type="curve" smooth="yes"/>
      <point x="86.25" y="8.25"/>
      <point x="55.25" y="53.5"/>
      <point x="55.25" y="153.5" type="curve" smooth="yes"/>
      <point x="55.25" y="379.25"/>
      <point x="123.0" y="694.0"/>
      <point x="247.75" y="694.0" type="curve" smooth="yes"/>
      <point x="305.75" y="694.0"/>
      <point x="336.75" y="648.75"/>
      <point x="336.75" y="548.75" type="curve" smooth="yes"/>
      <point x="336.75" y="323.0"/>
      <point x="269.0" y="8.25"/>
    </contour>
  </outline>
</glyph>
<glyph name="ordfeminine" format="2">
  <advance width="227.2"/>
  <unicode hex="00AA"/>
  <outline>
    <contour>
      <point x="42.0" y="299.3" type="line"/>
      <point x="198.9" y="299.3" type="line"/>
      <point x="201.9" y="315.5" type="line"/>
      <point x="45.0" y="315.5" type="line"/>
    </contour>
    <component base="a.superior" xOffset="10.8"/>
  </outline>
</glyph>
<glyph name="logicalnot" format="2">
  <advance width="356.4"/>
  <unicode hex="00AC"/>
  <outline>
    <contour>
      <point x="62.0" y="385.8" type="line"/>
      <point x="310.3" y="385.8" type="line"/>
      <point x="277.4" y="177.0" type="line"/>
      <point x="296.3" y="177.0" type="line"/>
      <point x="332.2" y="403.8" type="line"/>
      <point x="65.0" y="403.8" type="line"/>
    </contour>
  </outline>
</glyph>
<glyph name="registered" format="2">
  <advance width="342.5"/>
  <unicode hex="00AE"/>
  <outline>
    <contour>
      <point x="165.5" y="208.5" type="curve" smooth="yes"/>
      <point x="275.5" y="208.5"/>
      <point x="362.0" y="467.5"/>
      <point x="362.0" y="744.0" type="curve" smooth="yes"/>
      <point x="362.0" y="845.5"/>
      <point x="329.25" y="894.5"/>
      <point x="264.5" y="894.5" type="curve" smooth="yes"/>
      <point x="154.5" y="894.5"/>
      <point x="68.5" y="635.25"/>
      <point x="68.5" y="359.0" type="curve" smooth="yes"/>
      <point x="68.5" y="257.5"/>
      <point x="100.75" y="208.5"/>
    </contour>
    <contour>
      <point x="165.5" y="224.5" type="curve" smooth="yes"/>
      <point x="111.75" y="224.5"/>
      <point x="85.75" y="269.5"/>
      <point x="85.75" y="360.75" type="curve" smooth="yes"/>
      <point x="85.75" y="620.75"/>
      <point x="165.5" y="878.25"/>
      <point x="264.5" y="878.25" type="curve" smooth="yes"/>
      <point x="318.25" y="878.25"/>
      <point x="344.75" y="833.5"/>
      <point x="344.75" y="742.0" type="curve" smooth="yes"/>
      <point x="344.75" y="482.0"/>
      <point x="264.5" y="224.5"/>
    </contour>
    <contour>
      <point x="139.5" y="407.25" type="line"/>
      <point x="156.5" y="407.25" type="line"/>
      <point x="178.5" y="541.75" type="line"/>
      <point x="193.0" y="539.75"/>
      <point x="205.5" y="537.75"/>
      <point x="224.75" y="538.75" type="curve"/>
      <point x="233.5" y="541.5" type="line"/>
      <point x="272.75" y="557.25"/>
      <point x="289.0" y="602.0"/>
      <point x="289.0" y="650.0" type="curve" smooth="yes"/>
      <point x="289.0" y="703.75"/>
      <point x="271.25" y="719.25"/>
      <point x="235.0" y="719.25" type="curve" smooth="yes"/>
      <point x="216.25" y="719.25"/>
      <point x="203.5" y="717.5"/>
      <point x="187.75" y="713.5" type="curve"/>
    </contour>
    <contour>
      <point x="211.0" y="554.25" type="curve" smooth="yes"/>
      <point x="198.5" y="554.25"/>
      <point x="189.5" y="556.0"/>
      <point x="180.75" y="557.0" type="curve"/>
      <point x="202.5" y="699.75" type="line"/>
      <point x="214.75" y="702.0"/>
      <point x="221.5" y="703.0"/>
      <point x="234.75" y="703.0" type="curve" smooth="yes"/>
      <point x="261.25" y="703.0"/>
      <point x="273.0" y="687.25"/>
      <point x="273.0" y="651.5" type="curve" smooth="yes"/>
      <point x="273.0" y="588.25"/>
      <point x="250.5" y="554.25"/>
    </contour>
    <contour>
      <point x="261.25" y="404.5" type="curve" smooth="yes"/>
      <point x="263.75" y="404.5"/>
      <point x="266.75" y="405.25"/>
      <point x="269.0" y="406.25" type="curve"/>
      <point x="270.25" y="423.75" type="line"/>
      <point x="268.25" y="422.0"/>
      <point x="266.25" y="422.0"/>
      <point x="265.25" y="422.0" type="curve" smooth="yes"/>
      <point x="251.25" y="422.0"/>
      <point x="246.0" y="454.0"/>
      <point x="235.0" y="551.25" type="curve"/>
      <point x="219.5" y="548.25" type="line"/>
      <point x="230.5" y="422.5"/>
      <point x="239.25" y="404.5"/>
    </contour>
  </outline>
</glyph>
<glyph name="degree" format="2">
  <advance width="207.3"/>
  <unicode hex="00B0"/>
  <outline>
    <contour>
      <point x="142.2" y="520.0" type="curve" smooth="yes"/>
      <point x="194.7" y="520.0"/>
      <point x="234.2" y="580.6"/>
      <point x="234.2" y="649.0" type="curve" smooth="yes"/>
      <point x="234.2" y="694.4"/>
      <point x="213.9" y="728.0"/>
      <point x="175.1" y="728.0" type="curve" smooth="yes"/>
      <point x="120.9" y="728.0"/>
      <point x="83.1" y="664.2"/>
      <point x="83.1" y="596.0" type="curve" smooth="yes"/>
      <point x="83.1" y="552.5"/>
      <point x="102.5" y="520.0"/>
    </contour>
    <contour>
      <point x="145.2" y="540.0" type="curve" smooth="yes"/>
      <point x="114.5" y="540.0"/>
      <point x="101.2" y="564.6"/>
      <point x="101.2" y="598.2" type="curve" smooth="yes"/>
      <point x="101.2" y="654.4"/>
      <point x="128.9" y="708.0"/>
      <point x="172.1" y="708.0" type="curve" smooth="yes"/>
      <point x="203.1" y="708.0"/>
      <point x="216.2" y="681.5"/>
      <point x="216.2" y="647.8" type="curve" smooth="yes"/>
      <point x="216.2" y="591.0"/>
      <point x="188.4" y="540.0"/>
    </contour>
  </outline>
</glyph>
<glyph name="plusminus" format="2">
  <advance width="358.2"/>
  <unicode hex="00B1"/>
  <outline>
    <contour>
      <point x="284.8" y="74.0" type="line"/>
      <point x="287.8" y="92.9" type="line"/>
      <point x="159.6" y="92.9" type="line"/>
      <point x="192.5" y="299.0" type="line"/>
      <point x="319.8" y="299.0" type="line"/>
      <point x="322.8" y="317.9" type="line"/>
      <point x="195.5" y="317.9" type="line"/>
      <point x="228.5" y="504.3" type="line"/>
      <point x="209.6" y="504.3" type="line"/>
      <point x="177.5" y="317.9" type="line"/>
      <point x="48.4" y="317.9" type="line"/>
      <point x="45.4" y="299.0" type="line"/>
      <point x="173.6" y="299.0" type="line"/>
      <point x="140.7" y="92.9" type="line"/>
      <point x="13.4" y="92.9" type="line"/>
      <point x="10.4" y="74.0" type="line"/>
    </contour>
  </outline>
</glyph>
<glyph name="uni00B2" format="2">
  <advance width="233.25"/>
  <unicode hex="00B2"/>
  <outline>
    <contour>
      <point x="56.75" y="367.25" type="line"/>
      <point x="203.0" y="367.25" type="line"/>
      <point x="204.75" y="384.25" type="line"/>
      <point x="78.5" y="384.25" type="line"/>
      <point x="152.75" y="493.75"/>
      <point x="229.0" y="610.75"/>
      <point x="229.0" y="708.0" type="curve" smooth="yes"/>
      <point x="229.0" y="748.5"/>
      <point x="212.25" y="772.75"/>
      <point x="178.0" y="772.75" type="curve" smooth="yes"/>
      <point x="154.25" y="772.75"/>
      <point x="130.5" y="762.0"/>
      <point x="109.25" y="739.25" type="curve"/>
      <point x="118.75" y="727.75" type="line"/>
      <point x="142.5" y="749.75"/>
      <point x="157.0" y="756.0"/>
      <point x="176.25" y="756.0" type="curve" smooth="yes"/>
      <point x="200.5" y="756.0"/>
      <point x="213.0" y="736.5"/>
      <point x="213.0" y="704.0" type="curve" smooth="yes"/>
      <point x="212.0" y="613.0"/>
      <point x="134.25" y="489.25"/>
      <point x="56.0" y="381.25" type="curve"/>
    </contour>
  </outline>
</glyph>
<glyph name="uni00B3" format="2">
  <advance width="236.0"/>
  <unicode hex="00B3"/>
  <outline>
    <contour>
      <point x="48.5" y="394.75" type="line"/>
      <point x="63.75" y="373.75"/>
      <point x="87.75" y="364.0"/>
      <point x="113.5" y="364.0" type="curve" smooth="yes"/>
      <point x="185.75" y="364.0"/>
      <point x="219.5" y="437.25"/>
      <point x="219.5" y="516.0" type="curve" smooth="yes"/>
      <point x="219.5" y="547.0"/>
      <point x="209.25" y="571.5"/>
      <point x="190.5" y="578.75" type="curve"/>
      <point x="216.75" y="593.5"/>
      <point x="239.0" y="643.5"/>
      <point x="239.0" y="696.0" type="curve" smooth="yes"/>
      <point x="239.0" y="747.25"/>
      <point x="213.5" y="773.5"/>
      <point x="174.75" y="773.5" type="curve" smooth="yes"/>
      <point x="156.5" y="773.5"/>
      <point x="135.0" y="769.0"/>
      <point x="112.5" y="752.25" type="curve"/>
      <point x="122.5" y="739.75" type="line"/>
      <point x="140.75" y="752.25"/>
      <point x="159.25" y="756.75"/>
      <point x="174.5" y="756.75" type="curve" smooth="yes"/>
      <point x="201.75" y="756.75"/>
      <point x="222.0" y="737.0"/>
      <point x="222.0" y="694.5" type="curve" smooth="yes"/>
      <point x="222.0" y="636.5"/>
      <point x="195.5" y="586.0"/>
      <point x="163.25" y="586.0" type="curve" smooth="yes"/>
      <point x="127.5" y="586.0" type="line"/>
      <point x="125.5" y="571.0" type="line"/>
      <point x="163.5" y="571.0" type="line" smooth="yes"/>
      <point x="188.5" y="571.0"/>
      <point x="203.5" y="552.25"/>
      <point x="203.5" y="512.25" type="curve" smooth="yes"/>
      <point x="203.5" y="450.0"/>
      <point x="175.5" y="380.75"/>
      <point x="113.75" y="380.75" type="curve" smooth="yes"/>
      <point x="91.75" y="380.75"/>
      <point x="74.5" y="389.0"/>
      <point x="61.25" y="406.25" type="curve"/>
    </contour>
  </outline>
</glyph>
<glyph name="uni00B5" format="2">
  <advance width="315.5"/>
  <unicode hex="00B5"/>
  <outline>
    <contour>
      <point x="-20.3" y="-210.0" type="line"/>
      <point x="-2.1999999999999993" y="-210.0" type="line"/>
      <point x="34.9" y="24.6" type="line"/>
      <point x="44.7" y="1.1"/>
      <point x="66.4" y="-10.0"/>
      <point x="95.8" y="-10.0" type="curve" smooth="yes"/>
      <point x="132.7" y="-10.0"/>
      <point x="165.5" y="2.6"/>
      <point x="203.9" y="26.9" type="curve"/>
      <point x="206.6" y="0.8"/>
      <point x="221.9" y="-10.0"/>
      <point x="244.0" y="-10.0" type="curve" smooth="yes"/>
      <point x="252.0" y="-10.0"/>
      <point x="270.2" y="-6.1"/>
      <point x="282.4" y="0.0" type="curve"/>
      <point x="277.6" y="14.3" type="line"/>
      <point x="265.4" y="9.3"/>
      <point x="252.9" y="6.3"/>
      <point x="245.9" y="6.3" type="curve" smooth="yes"/>
      <point x="226.8" y="6.3"/>
      <point x="221.1" y="17.2"/>
      <point x="221.1" y="32.9" type="curve" smooth="yes"/>
      <point x="221.1" y="44.2"/>
      <point x="223.9" y="66.1"/>
      <point x="297.8" y="530.0" type="curve"/>
      <point x="278.7" y="530.0" type="line"/>
      <point x="203.1" y="45.0" type="line"/>
      <point x="166.3" y="19.8"/>
      <point x="125.8" y="7.2"/>
      <point x="98.0" y="7.2" type="curve" smooth="yes"/>
      <point x="61.1" y="7.2"/>
      <point x="42.4" y="27.6"/>
      <point x="42.4" y="59.9" type="curve" smooth="yes"/>
      <point x="42.4" y="77.5"/>
      <point x="63.2" y="209.0"/>
      <point x="113.7" y="530.0" type="curve"/>
      <point x="94.7" y="530.0" type="line"/>
    </contour>
  </outline>
</glyph>
<glyph name="paragraph" format="2">
  <advance width="388.5"/>
  <unicode hex="00B6"/>
  <outline>
    <contour>
      <point x="240.9" y="-210.0" type="line"/>
      <point x="258.9" y="-210.0" type="line"/>
      <point x="408.9" y="740.0" type="line"/>
      <point x="390.9" y="740.0" type="line"/>
    </contour>
    <contour>
      <point x="149.5" y="195.9" type="line"/>
      <point x="90.5" y="209.5"/>
      <point x="61.3" y="267.6"/>
      <point x="61.3" y="354.0" type="curve" smooth="yes"/>
      <point x="61.3" y="542.5"/>
      <point x="140.9" y="716.6"/>
      <point x="276.1" y="722.3" type="curve"/>
      <point x="129.1" y="-210.0" type="line"/>
      <point x="147.1" y="-210.0" type="line"/>
      <point x="297.1" y="740.0" type="line"/>
      <point x="283.4" y="740.0" type="line" smooth="yes"/>
      <point x="131.1" y="740.0"/>
      <point x="43.1" y="550.4"/>
      <point x="43.1" y="353.4" type="curve" smooth="yes"/>
      <point x="43.1" y="258.1"/>
      <point x="76.4" y="192.4"/>
      <point x="144.5" y="176.1" type="curve"/>
    </contour>
  </outline>
</glyph>
<glyph name="periodcentered" format="2">
  <advance width="102.5"/>
  <unicode hex="00B7"/>
  <outline>
    <contour>
      <point x="38.9" y="286.3" type="curve" smooth="yes"/>
      <point x="37.0" y="272.8"/>
      <point x="38.3" y="270.0"/>
      <point x="50.1" y="270.0" type="curve" smooth="yes"/>
      <point x="62.7" y="270.0"/>
      <point x="63.7" y="271.0"/>
      <point x="65.8" y="287.7" type="curve" smooth="yes"/>
      <point x="67.7" y="300.3"/>
      <point x="67.3" y="304.0"/>
      <point x="55.5" y="304.0" type="curve" smooth="yes"/>
      <point x="42.9" y="304.0"/>
      <point x="41.0" y="303.0"/>
    </contour>
  </outline>
</glyph>
<glyph name="uni00B9" format="2">
  <advance width="235.4"/>
  <unicode hex="00B9"/>
  <outline>
    <contour>
      <point x="45.3" y="370.0" type="line"/>
      <point x="223.0" y="370.0" type="line"/>
      <point x="225.0" y="386.9" type="line"/>
      <point x="149.7" y="386.9" type="line"/>
      <point x="210.8" y="769.8" type="line"/>
      <point x="199.9" y="769.8" type="line"/>
      <point x="97.2" y="695.9" type="line"/>
      <point x="104.6" y="681.7" type="line"/>
      <point x="189.1" y="741.4" type="line"/>
      <point x="132.7" y="386.9" type="line"/>
      <point x="48.1" y="386.9" type="line"/>
    </contour>
  </outline>
</glyph>
<glyph name="ordmasculine" format="2">
  <advance width="220.3"/>
  <unicode hex="00BA"/>
  <outline>
    <contour>
      <point x="41.7" y="299.3" type="line"/>
      <point x="180.6" y="299.3" type="line"/>
      <point x="182.7" y="315.5" type="line"/>
      <point x="43.8" y="315.5" type="line"/>
    </contour>
    <component base="o.superior" xOffset="17.0"/>
  </outline>
</glyph>
<glyph name="AE" format="2">
  <advance width="488.1"/>
  <unicode hex="00C6"/>
  <anchor x="214.9444" y="0.0" name="bottom"/>
  <anchor x="332.1" y="700.0" name="top"/>
  <outline>
    <contour>
      <point x="200.9" y="0.0" type="line"/>
      <point x="428.3" y="0.0" type="line"/>
      <point x="431.3" y="19.0" type="line"/>
      <point x="222.9" y="19.0" type="line"/>
      <point x="272.2" y="335.3" type="line"/>
      <point x="452.4" y="335.3" type="line"/>
      <point x="455.4" y="354.3" type="line"/>
      <point x="275.2" y="354.3" type="line"/>
      <point x="327.0" y="681.0" type="line"/>
      <point x="524.6" y="681.0" type="line"/>
      <point x="528.5" y="700.0" type="line"/>
      <point x="299.3" y="700.0" type="line"/>
      <point x="-36.3" y="0.0" type="line"/>
      <point x="-14.7" y="0.0" type="line"/>
      <point x="145.1" y="335.3" type="line"/>
      <point x="253.2" y="335.3" type="line"/>
    </contour>
    <contour>
      <point x="154.3" y="354.3" type="line"/>
      <point x="307.1" y="678.3" type="line"/>
      <point x="256.2" y="354.3" type="line"/>
    </contour>
  </outline>
</glyph>
<glyph name="multiply" format="2">
  <advance width="339.3"/>
  <unicode hex="00D7"/>
  <outline>
    <contour>
      <point x="37.7" y="77.0" type="line"/>
      <point x="168.0" y="266.7" type="line"/>
      <point x="237.6" y="77.6" type="line"/>
      <point x="255.1" y="87.1" type="line"/>
      <point x="181.0" y="287.9" type="line"/>
      <point x="321.4" y="491.1" type="line"/>
      <point x="305.9" y="500.7" type="line"/>
      <point x="173.6" y="309.2" type="line"/>
      <point x="103.5" y="500.7" type="line"/>
      <point x="86.0" y="491.2" type="line"/>
      <point x="159.7" y="288.9" type="line"/>
      <point x="22.2" y="86.6" type="line"/>
    </contour>
  </outline>
</glyph>
<glyph name="Oslash" format="2">
  <advance width="379.5"/>
  <unicode hex="00D8"/>
  <anchor x="251.0" y="700.0" name="top"/>
  <outline>
    <contour>
      <point x="401.75" y="710.0" type="line"/>
      <point x="381.25" y="710.0" type="line"/>
      <point x="344.0" y="647.75" type="line"/>
      <point x="342.25" y="647.75" type="line"/>
      <point x="52.25" y="75.25" type="line"/>
      <point x="50.5" y="75.25" type="line"/>
      <point x="2.0" y="-10.0" type="line"/>
      <point x="22.25" y="-10.0" type="line"/>
      <point x="60.75" y="55.0" type="line"/>
      <point x="62.5" y="55.0" type="line"/>
      <point x="352.25" y="625.75" type="line"/>
      <point x="354.0" y="625.75" type="line"/>
    </contour>
    <contour>
      <point x="150.5" y="-10.0" type="curve" smooth="yes"/>
      <point x="284.0" y="-10.0"/>
      <point x="374.0" y="272.75"/>
      <point x="374.0" y="533.75" type="curve" smooth="yes"/>
      <point x="374.0" y="658.5"/>
      <point x="335.25" y="710.0"/>
      <point x="254.5" y="710.0" type="curve" smooth="yes"/>
      <point x="121.0" y="710.0"/>
      <point x="31.0" y="427.25"/>
      <point x="31.0" y="166.25" type="curve" smooth="yes"/>
      <point x="31.0" y="41.5"/>
      <point x="69.75" y="-10.0"/>
    </contour>
    <contour>
      <point x="151.0" y="8.0" type="curve" smooth="yes"/>
      <point x="82.25" y="8.0"/>
      <point x="50.0" y="53.25"/>
      <point x="50.0" y="167.0" type="curve" smooth="yes"/>
      <point x="50.0" y="419.5"/>
      <point x="139.5" y="692.0"/>
      <point x="254.0" y="692.0" type="curve" smooth="yes"/>
      <point x="322.75" y="692.0"/>
      <point x="355.0" y="646.75"/>
      <point x="355.0" y="533.0" type="curve" smooth="yes"/>
      <point x="355.0" y="280.5"/>
      <point x="265.5" y="8.0"/>
    </contour>
  </outline>
</glyph>
<glyph name="Thorn" format="2">
  <advance width="317.5"/>
  <unicode hex="00DE"/>
  <outline>
    <contour>
      <point x="8.5" y="0.0" type="line"/>
      <point x="27.5" y="0.0" type="line"/>
      <point x="57.25" y="185.25" type="line"/>
      <point x="79.25" y="184.0"/>
      <point x="107.0" y="184.0"/>
      <point x="134.75" y="184.0" type="curve" smooth="yes"/>
      <point x="246.5" y="184.0"/>
      <point x="318.5" y="292.5"/>
      <point x="318.5" y="470.0" type="curve" smooth="yes"/>
      <point x="318.5" y="561.75"/>
      <point x="281.0" y="604.75"/>
      <point x="192.75" y="604.75" type="curve" smooth="yes"/>
      <point x="174.5" y="604.75"/>
      <point x="153.25" y="603.75"/>
      <point x="121.75" y="601.0" type="curve"/>
      <point x="137.5" y="700.0" type="line"/>
      <point x="118.5" y="700.0" type="line"/>
    </contour>
    <contour>
      <point x="132.75" y="202.75" type="curve" smooth="yes"/>
      <point x="97.5" y="202.75"/>
      <point x="81.0" y="203.75"/>
      <point x="60.25" y="205.25" type="curve"/>
      <point x="119.75" y="581.25" type="line"/>
      <point x="152.25" y="584.75"/>
      <point x="172.0" y="585.75"/>
      <point x="189.75" y="585.75" type="curve" smooth="yes"/>
      <point x="266.0" y="585.75"/>
      <point x="299.5" y="552.75"/>
      <point x="299.5" y="465.0" type="curve" smooth="yes"/>
      <point x="299.5" y="308.0"/>
      <point x="237.25" y="202.75"/>
    </contour>
  </outline>
</glyph>
<glyph name="germandbls" format="2">
  <advance width="341.75"/>
  <unicode hex="00DF"/>
  <outline>
    <contour>
      <point x="18.75" y="-66.0" type="line" smooth="yes"/>
      <point x="5.5" y="-148.5"/>
      <point x="-15.25" y="-204.75"/>
      <point x="-73.5" y="-204.75" type="curve" smooth="yes"/>
      <point x="-88.5" y="-204.75"/>
      <point x="-100.75" y="-202.75"/>
      <point x="-117.75" y="-197.25" type="curve"/>
      <point x="-121.75" y="-212.5" type="line"/>
      <point x="-107.25" y="-218.0"/>
      <point x="-90.0" y="-220.0"/>
      <point x="-71.75" y="-220.0" type="curve" smooth="yes"/>
      <point x="-8.0" y="-220.0"/>
      <point x="21.75" y="-167.0"/>
      <point x="36.75" y="-71.0" type="curve" smooth="yes"/>
      <point x="133.75" y="543.5" type="line" smooth="yes"/>
      <point x="153.0" y="663.0"/>
      <point x="190.0" y="731.25"/>
      <point x="262.25" y="731.25" type="curve" smooth="yes"/>
      <point x="301.5" y="731.25"/>
      <point x="325.25" y="713.0"/>
      <point x="325.25" y="666.0" type="curve" smooth="yes"/>
      <point x="325.25" y="619.25"/>
      <point x="307.75" y="589.0"/>
      <point x="256.0" y="543.0" type="curve" smooth="yes"/>
      <point x="198.25" y="491.0"/>
      <point x="174.25" y="453.75"/>
      <point x="174.25" y="391.75" type="curve" smooth="yes"/>
      <point x="174.25" y="344.75"/>
      <point x="199.75" y="303.5"/>
      <point x="246.0" y="251.5" type="curve" smooth="yes"/>
      <point x="285.0" y="209.0"/>
      <point x="299.5" y="180.75"/>
      <point x="299.5" y="136.5" type="curve" smooth="yes"/>
      <point x="299.5" y="65.5"/>
      <point x="251.0" y="9.75"/>
      <point x="184.5" y="9.75" type="curve" smooth="yes"/>
      <point x="155.25" y="9.75"/>
      <point x="125.75" y="17.5"/>
      <point x="101.0" y="29.5" type="curve"/>
      <point x="92.0" y="12.25" type="line"/>
      <point x="117.0" y="-1.75"/>
      <point x="152.0" y="-10.0"/>
      <point x="183.25" y="-10.0" type="curve" smooth="yes"/>
      <point x="264.5" y="-10.0"/>
      <point x="318.75" y="54.0"/>
      <point x="318.75" y="140.5" type="curve" smooth="yes"/>
      <point x="318.75" y="186.0"/>
      <point x="301.5" y="217.75"/>
      <point x="255.25" y="271.25" type="curve" smooth="yes"/>
      <point x="211.25" y="324.0"/>
      <point x="192.5" y="352.0"/>
      <point x="192.5" y="395.0" type="curve" smooth="yes"/>
      <point x="192.5" y="445.0"/>
      <point x="213.75" y="477.75"/>
      <point x="266.5" y="528.5" type="curve" smooth="yes"/>
      <point x="325.0" y="584.0"/>
      <point x="343.5" y="616.25"/>
      <point x="343.5" y="670.0" type="curve" smooth="yes"/>
      <point x="343.5" y="726.0"/>
      <point x="313.5" y="750.0"/>
      <point x="262.5" y="750.0" type="curve" smooth="yes"/>
      <point x="179.5" y="750.0"/>
      <point x="136.25" y="682.25"/>
      <point x="115.0" y="544.25" type="curve" smooth="yes"/>
      <point x="106.0" y="484.0" type="line"/>
      <point x="42.0" y="477.75" type="line"/>
      <point x="39.75" y="464.75" type="line"/>
      <point x="101.75" y="464.75" type="line"/>
    </contour>
  </outline>
</glyph>
<glyph name="ae" format="2">
  <advance width="496.75"/>
  <unicode hex="00E6"/>
  <anchor x="219.25" y="0.0" name="bottom"/>
  <anchor x="291.0" y="530.0" name="top"/>
  <outline>
    <contour>
      <point x="115.5" y="-10.0" type="curve" smooth="yes"/>
      <point x="147.5" y="-10.0"/>
      <point x="174.25" y="1.5"/>
      <point x="194.0" y="16.0" type="curve"/>
      <point x="190.0" y="-7.25" type="line"/>
      <point x="208.0" y="-7.25" type="line"/>
      <point x="230.25" y="129.0" type="line"/>
      <point x="237.0" y="41.5"/>
      <point x="278.0" y="-10.0"/>
      <point x="347.0" y="-10.0" type="curve" smooth="yes"/>
      <point x="383.5" y="-10.0"/>
      <point x="422.5" y="-1.0"/>
      <point x="449.0" y="13.5" type="curve"/>
      <point x="442.0" y="29.5" type="line"/>
      <point x="410.25" y="15.0"/>
      <point x="379.25" y="7.25"/>
      <point x="349.75" y="7.25" type="curve" smooth="yes"/>
      <point x="284.0" y="7.25"/>
      <point x="245.0" y="68.25"/>
      <point x="245.0" y="169.25" type="curve" smooth="yes"/>
      <point x="245.0" y="373.5"/>
      <point x="318.75" y="522.75"/>
      <point x="418.75" y="522.75" type="curve" smooth="yes"/>
      <point x="465.0" y="522.75"/>
      <point x="484.75" y="497.0"/>
      <point x="484.75" y="456.0" type="curve" smooth="yes"/>
      <point x="484.75" y="390.0"/>
      <point x="430.5" y="325.5"/>
      <point x="349.25" y="291.5" type="curve" smooth="yes"/>
      <point x="314.5" y="276.0"/>
      <point x="275.75" y="267.25"/>
      <point x="237.75" y="263.5" type="curve"/>
      <point x="236.5" y="245.5" type="line"/>
      <point x="271.5" y="249.0"/>
      <point x="313.25" y="257.0"/>
      <point x="348.5" y="272.5" type="curve" smooth="yes"/>
      <point x="441.0" y="309.25"/>
      <point x="502.75" y="378.0"/>
      <point x="502.75" y="458.0" type="curve" smooth="yes"/>
      <point x="502.75" y="509.75"/>
      <point x="473.0" y="540.0"/>
      <point x="420.75" y="540.0" type="curve" smooth="yes"/>
      <point x="361.75" y="540.0"/>
      <point x="310.25" y="500.75"/>
      <point x="275.25" y="425.0" type="curve"/>
      <point x="293.75" y="539.0" type="line"/>
      <point x="276.5" y="539.0" type="line"/>
      <point x="274.0" y="524.0" type="line"/>
      <point x="257.5" y="535.0"/>
      <point x="236.5" y="540.0"/>
      <point x="218.5" y="540.0" type="curve" smooth="yes"/>
      <point x="105.5" y="540.0"/>
      <point x="20.75" y="381.25"/>
      <point x="20.75" y="142.75" type="curve" smooth="yes"/>
      <point x="20.75" y="42.25"/>
      <point x="54.0" y="-10.0"/>
    </contour>
    <contour>
      <point x="115.25" y="8.0" type="curve" smooth="yes"/>
      <point x="68.0" y="8.0"/>
      <point x="39.75" y="57.25"/>
      <point x="39.75" y="144.5" type="curve" smooth="yes"/>
      <point x="39.75" y="355.5"/>
      <point x="113.5" y="523.0"/>
      <point x="216.5" y="523.0" type="curve" smooth="yes"/>
      <point x="235.75" y="523.0"/>
      <point x="256.0" y="518.25"/>
      <point x="271.0" y="504.0" type="curve"/>
      <point x="197.0" y="36.5" type="line"/>
      <point x="175.25" y="20.0"/>
      <point x="144.0" y="8.0"/>
    </contour>
  </outline>
</glyph>
<glyph name="eth" format="2">
  <advance width="315.0"/>
  <unicode hex="00F0"/>
  <outline>
    <contour>
      <point x="300.0" y="480.25" type="curve"/>
      <point x="304.75" y="500.0" type="line"/>
      <point x="285.25" y="522.25"/>
      <point x="252.25" y="534.0"/>
      <point x="216.0" y="534.0" type="curve" smooth="yes"/>
      <point x="84.0" y="534.0"/>
      <point x="20.0" y="307.0"/>
      <point x="20.0" y="124.75" type="curve" smooth="yes"/>
      <point x="20.0" y="32.0"/>
      <point x="52.5" y="-10.0"/>
      <point x="118.25" y="-10.0" type="curve" smooth="yes"/>
      <point x="203.5" y="-10.0"/>
      <point x="248.0" y="69.25"/>
      <point x="285.5" y="304.0" type="curve" smooth="yes"/>
      <point x="300.75" y="401.0"/>
      <point x="309.5" y="474.5"/>
      <point x="309.5" y="533.0" type="curve" smooth="yes"/>
      <point x="309.5" y="653.5"/>
      <point x="266.0" y="710.0"/>
      <point x="171.5" y="710.0" type="curve" smooth="yes"/>
      <point x="151.5" y="710.0"/>
      <point x="126.0" y="707.5"/>
      <point x="100.0" y="701.5" type="curve"/>
      <point x="103.0" y="684.25" type="line"/>
      <point x="128.5" y="689.75"/>
      <point x="147.5" y="692.75"/>
      <point x="171.25" y="692.75" type="curve" smooth="yes"/>
      <point x="251.5" y="692.75"/>
      <point x="291.0" y="644.25"/>
      <point x="291.0" y="531.75" type="curve" smooth="yes"/>
      <point x="291.0" y="474.75"/>
      <point x="283.0" y="398.25"/>
      <point x="267.25" y="303.25" type="curve" smooth="yes"/>
      <point x="231.0" y="84.75"/>
      <point x="190.75" y="7.25"/>
      <point x="119.25" y="7.25" type="curve" smooth="yes"/>
      <point x="65.0" y="7.25"/>
      <point x="38.25" y="43.75"/>
      <point x="38.25" y="123.0" type="curve" smooth="yes"/>
      <point x="38.25" y="288.75"/>
      <point x="96.5" y="517.0"/>
      <point x="215.75" y="517.0" type="curve" smooth="yes"/>
      <point x="247.25" y="517.0"/>
      <point x="278.25" y="508.5"/>
    </contour>
    <contour>
      <point x="138.0" y="569.25" type="line"/>
      <point x="267.0" y="651.75" type="line"/>
      <point x="267.75" y="651.75" type="line"/>
      <point x="370.0" y="716.5" type="line"/>
      <point x="340.0" y="716.5" type="line"/>
      <point x="259.75" y="666.25" type="line"/>
      <point x="258.75" y="666.25" type="line"/>
      <point x="107.25" y="569.25" type="line"/>
    </contour>
  </outline>
</glyph>
<glyph name="divide" format="2">
  <advance width="357.3"/>
  <unicode hex="00F7"/>
  <outline>
    <contour>
      <point x="133.4" y="81.9" type="curve" smooth="yes"/>
      <point x="132.4" y="73.8"/>
      <point x="133.7" y="71.9"/>
      <point x="144.6" y="71.9" type="curve" smooth="yes"/>
      <point x="160.8" y="71.9"/>
      <point x="160.9" y="72.9"/>
      <point x="163.9" y="95.9" type="curve" smooth="yes"/>
      <point x="164.9" y="104.9"/>
      <point x="161.8" y="105.9"/>
      <point x="151.8" y="105.9" type="curve" smooth="yes"/>
      <point x="137.4" y="105.9"/>
      <point x="136.4" y="104.9"/>
    </contour>
    <contour>
      <point x="197.5" y="482.1" type="curve" smooth="yes"/>
      <point x="196.5" y="474.0"/>
      <point x="197.8" y="472.1"/>
      <point x="208.7" y="472.1" type="curve" smooth="yes"/>
      <point x="224.9" y="472.1"/>
      <point x="225.0" y="473.1"/>
      <point x="228.0" y="496.1" type="curve" smooth="yes"/>
      <point x="229.0" y="505.1"/>
      <point x="225.9" y="506.1"/>
      <point x="215.9" y="506.1" type="curve" smooth="yes"/>
      <point x="201.5" y="506.1"/>
      <point x="200.5" y="505.1"/>
    </contour>
    <contour>
      <point x="42.4" y="279.0" type="line"/>
      <point x="316.8" y="279.0" type="line"/>
      <point x="319.9" y="299.0" type="line"/>
      <point x="45.5" y="299.0" type="line"/>
    </contour>
  </outline>
</glyph>
<glyph name="oslash" format="2">
  <advance width="304.25"/>
  <unicode hex="00F8"/>
  <anchor x="195.0" y="530.0" name="top"/>
  <outline>
    <contour>
      <point x="294.0" y="539.25" type="line"/>
      <point x="264.25" y="486.25" type="line"/>
      <point x="262.5" y="486.25" type="line"/>
      <point x="34.25" y="63.5" type="line"/>
      <point x="32.5" y="63.5" type="line"/>
      <point x="-8.0" y="-10.0" type="line"/>
      <point x="12.0" y="-10.0" type="line"/>
      <point x="39.5" y="37.75" type="line"/>
      <point x="41.25" y="37.75" type="line"/>
      <point x="270.25" y="462.75" type="line"/>
      <point x="272.0" y="462.75" type="line"/>
      <point x="314.0" y="539.25" type="line"/>
    </contour>
    <contour>
      <point x="113.5" y="-10.0" type="curve" smooth="yes"/>
      <point x="234.0" y="-10.0"/>
      <point x="283.0" y="276.75"/>
      <point x="283.0" y="415.25" type="curve" smooth="yes"/>
      <point x="283.0" y="511.75"/>
      <point x="249.5" y="539.25"/>
      <point x="189.5" y="539.25" type="curve" smooth="yes"/>
      <point x="69.75" y="539.25"/>
      <point x="20.0" y="251.0"/>
      <point x="20.0" y="113.5" type="curve" smooth="yes"/>
      <point x="20.0" y="16.5"/>
      <point x="52.75" y="-10.0"/>
    </contour>
    <contour>
      <point x="114.0" y="7.25" type="curve" smooth="yes"/>
      <point x="65.75" y="7.25"/>
      <point x="38.25" y="29.5"/>
      <point x="38.25" y="113.0" type="curve" smooth="yes"/>
      <point x="38.25" y="230.0"/>
      <point x="87.0" y="522.0"/>
      <point x="189.25" y="522.0" type="curve" smooth="yes"/>
      <point x="236.5" y="522.0"/>
      <point x="264.75" y="498.5"/>
      <point x="264.75" y="415.5" type="curve" smooth="yes"/>
      <point x="264.75" y="297.25"/>
      <point x="217.0" y="7.25"/>
    </contour>
  </outline>
</glyph>
<glyph name="thorn" format="2">
  <advance width="311.0"/>
  <unicode hex="00FE"/>
  <outline>
    <contour>
      <point x="-21.3" y="-210.0" type="line"/>
      <point x="-3.1999999999999993" y="-210.0" type="line"/>
      <point x="30.1" y="-1.0999999999999999" type="line"/>
      <point x="48.1" y="-6.8"/>
      <point x="66.7" y="-10.0"/>
      <point x="88.9" y="-10.0" type="curve" smooth="yes"/>
      <point x="210.5" y="-10.0"/>
      <point x="289.1" y="185.0"/>
      <point x="289.1" y="387.8" type="curve" smooth="yes"/>
      <point x="289.1" y="492.6"/>
      <point x="259.7" y="540.0"/>
      <point x="197.3" y="540.0" type="curve" smooth="yes"/>
      <point x="165.8" y="540.0"/>
      <point x="139.7" y="528.3"/>
      <point x="111.0" y="512.0" type="curve"/>
      <point x="147.7" y="740.0" type="line"/>
      <point x="128.7" y="740.0" type="line"/>
    </contour>
    <contour>
      <point x="87.2" y="8.1" type="curve" smooth="yes"/>
      <point x="66.6" y="8.1"/>
      <point x="48.0" y="11.6"/>
      <point x="33.1" y="18.1" type="curve"/>
      <point x="107.9" y="490.5" type="line"/>
      <point x="133.5" y="508.4"/>
      <point x="168.9" y="521.9"/>
      <point x="194.8" y="521.9" type="curve" smooth="yes"/>
      <point x="245.0" y="521.9"/>
      <point x="270.1" y="477.0"/>
      <point x="270.1" y="384.7" type="curve" smooth="yes"/>
      <point x="270.1" y="195.0"/>
      <point x="197.5" y="8.1"/>
    </contour>
  </outline>
</glyph>
<glyph name="Dcroat" format="2">
  <advance width="369.2"/>
  <unicode hex="0110"/>
  <outline>
    <contour>
      <point x="22.3" y="352.9" type="line"/>
      <point x="193.5" y="352.9" type="line"/>
      <point x="196.5" y="370.0" type="line"/>
      <point x="25.5" y="370.0" type="line"/>
    </contour>
    <component base="D" xOffset="6.3"/>
  </outline>
</glyph>
<glyph name="dcroat" format="2">
  <advance width="313.7"/>
  <unicode hex="0111"/>
  <outline>
    <contour>
      <point x="178.7" y="620.7" type="line"/>
      <point x="372.0" y="620.7" type="line"/>
      <point x="375.0" y="636.0" type="line"/>
      <point x="181.7" y="636.0" type="line"/>
    </contour>
    <component base="d"/>
  </outline>
</glyph>
<glyph name="Hbar" format="2">
  <advance width="381.7"/>
  <unicode hex="0126"/>
  <outline>
    <contour>
      <point x="45.2" y="501.8" type="line"/>
      <point x="408.5" y="501.8" type="line"/>
      <point x="410.6" y="517.3" type="line"/>
      <point x="47.3" y="517.3" type="line"/>
    </contour>
    <component base="H" xOffset="1.0"/>
  </outline>
</glyph>
<glyph name="hbar" format="2">
  <advance width="317.0"/>
  <unicode hex="0127"/>
  <outline>
    <contour>
      <point x="56.4" y="620.7" type="line"/>
      <point x="224.1" y="620.7" type="line"/>
      <point x="227.1" y="636.0" type="line"/>
      <point x="59.4" y="636.0" type="line"/>
    </contour>
    <component base="h"/>
  </outline>
</glyph>
<glyph name="Idotaccent" format="2">
  <advance width="126.5"/>
  <unicode hex="0130"/>
  <outline>
    <contour>
      <point x="153.8" y="844.0" type="curve" smooth="yes"/>
      <point x="139.9" y="844.0"/>
      <point x="139.4" y="842.2"/>
      <point x="136.6" y="818.0" type="curve" smooth="yes"/>
      <point x="135.7" y="810.1"/>
      <point x="140.8" y="810.0"/>
      <point x="146.7" y="810.0" type="curve" smooth="yes"/>
      <point x="161.1" y="810.0"/>
      <point x="161.2" y="811.8"/>
      <point x="164.1" y="836.1" type="curve" smooth="yes"/>
      <point x="165.0" y="843.9"/>
      <point x="160.2" y="844.0"/>
    </contour>
    <component base="I"/>
  </outline>
</glyph>
<glyph name="dotlessi" format="2">
  <advance width="128.4"/>
  <unicode hex="0131"/>
  <anchor x="19.7" y="0.0" name="bottom"/>
  <anchor x="29.7" y="0.0" name="ogonek"/>
  <anchor x="103.8" y="530.0" name="top"/>
  <outline>
    <contour>
      <point x="29.7" y="0.0" type="line"/>
      <point x="113.7" y="530.0" type="line"/>
      <point x="94.7" y="530.0" type="line"/>
      <point x="11.600000000000001" y="0.0" type="line"/>
    </contour>
  </outline>
</glyph>
<glyph name="Ldot" format="2">
  <advance width="260.6"/>
  <unicode hex="013F"/>
  <outline>
    <contour>
      <point x="190.6" y="357.5" type="curve" smooth="yes"/>
      <point x="188.7" y="344.0"/>
      <point x="190.0" y="341.2"/>
      <point x="201.8" y="341.2" type="curve" smooth="yes"/>
      <point x="214.4" y="341.2"/>
      <point x="215.4" y="342.2"/>
      <point x="217.5" y="358.9" type="curve" smooth="yes"/>
      <point x="219.4" y="371.5"/>
      <point x="219.0" y="375.2"/>
      <point x="207.2" y="375.2" type="curve" smooth="yes"/>
      <point x="194.6" y="375.2"/>
      <point x="192.7" y="374.2"/>
    </contour>
    <component base="L"/>
  </outline>
</glyph>
<glyph name="ldot" format="2">
  <advance width="180.4"/>
  <unicode hex="0140"/>
  <outline>
    <contour>
      <point x="156.8" y="356.3" type="curve" smooth="yes"/>
      <point x="154.9" y="342.8"/>
      <point x="156.2" y="340.0"/>
      <point x="168.0" y="340.0" type="curve" smooth="yes"/>
      <point x="180.6" y="340.0"/>
      <point x="181.6" y="341.0"/>
      <point x="183.7" y="357.7" type="curve" smooth="yes"/>
      <point x="185.6" y="370.3"/>
      <point x="185.2" y="374.0"/>
      <point x="173.4" y="374.0" type="curve" smooth="yes"/>
      <point x="160.8" y="374.0"/>
      <point x="158.9" y="373.0"/>
    </contour>
    <component base="l"/>
  </outline>
</glyph>
<glyph name="Lslash" format="2">
  <advance width="266.0"/>
  <unicode hex="0141"/>
  <outline>
    <contour>
      <point x="12.9" y="0.0" type="line"/>
      <point x="214.9" y="0.0" type="line"/>
      <point x="217.9" y="19.0" type="line"/>
      <point x="34.9" y="19.0" type="line"/>
      <point x="75.3" y="271.8" type="line"/>
      <point x="220.2" y="389.9" type="line"/>
      <point x="224.2" y="415.5" type="line"/>
      <point x="79.3" y="297.4" type="line"/>
      <point x="142.9" y="700.0" type="line"/>
      <point x="123.9" y="700.0" type="line"/>
      <point x="57.4" y="278.2" type="line"/>
      <point x="8.3" y="237.0" type="line"/>
      <point x="3.4000000000000004" y="210.5" type="line"/>
      <point x="52.5" y="251.7" type="line"/>
    </contour>
  </outline>
</glyph>
<glyph name="lslash" format="2">
  <advance width="142.6"/>
  <unicode hex="0142"/>
  <outline>
    <contour>
      <point x="-0.2999999999999998" y="189.6" type="line"/>
      <point x="154.9" y="355.5" type="line"/>
      <point x="158.9" y="383.5" type="line"/>
      <point x="3.7" y="217.6" type="line"/>
    </contour>
    <component base="l"/>
  </outline>
</glyph>
<glyph name="Eng" format="2">
  <advance width="373.75"/>
  <unicode hex="014A"/>
  <outline>
    <contour>
      <point x="8.5" y="0.0" type="line"/>
      <point x="27.75" y="0.0" type="line"/>
      <point x="130.5" y="657.5" type="line"/>
      <point x="258.75" y="2.0" type="line"/>
      <point x="246.5" y="-89.0"/>
      <point x="201.0" y="-118.25"/>
      <point x="139.25" y="-118.25" type="curve" smooth="yes"/>
      <point x="120.75" y="-118.25"/>
      <point x="101.25" y="-114.5"/>
      <point x="82.75" y="-109.0" type="curve"/>
      <point x="77.75" y="-129.0" type="line"/>
      <point x="99.0" y="-134.5"/>
      <point x="118.5" y="-137.25"/>
      <point x="137.25" y="-137.25" type="curve" smooth="yes"/>
      <point x="232.0" y="-137.25"/>
      <point x="265.0" y="-81.75"/>
      <point x="278.75" y="3.5" type="curve" smooth="yes"/>
      <point x="389.25" y="700.0" type="line"/>
      <point x="370.25" y="700.0" type="line"/>
      <point x="269.0" y="49.25" type="line"/>
      <point x="141.75" y="701.0" type="line"/>
      <point x="118.75" y="701.0" type="line"/>
    </contour>
  </outline>
</glyph>
<glyph name="eng" format="2">
  <advance width="314.9"/>
  <unicode hex="014B"/>
  <outline>
    <contour>
      <point x="204.9" y="-71.6" type="curve" smooth="yes"/>
      <point x="281.4" y="419.8"/>
      <point x="288.7" y="466.7"/>
      <point x="288.7" y="473.7" type="curve" smooth="yes"/>
      <point x="288.7" y="512.6"/>
      <point x="263.7" y="540.0"/>
      <point x="216.0" y="540.0" type="curve" smooth="yes"/>
      <point x="180.0" y="540.0"/>
      <point x="141.4" y="524.7"/>
      <point x="109.5" y="506.8" type="curve"/>
      <point x="113.7" y="530.0" type="line"/>
      <point x="94.7" y="530.0" type="line"/>
      <point x="10.8" y="0.0" type="line"/>
      <point x="28.9" y="0.0" type="line"/>
      <point x="106.5" y="487.5" type="line"/>
      <point x="138.1" y="507.5"/>
      <point x="177.9" y="522.8"/>
      <point x="208.5" y="522.8" type="curve" smooth="yes"/>
      <point x="251.1" y="522.8"/>
      <point x="269.5" y="503.7"/>
      <point x="269.5" y="468.7" type="curve" smooth="yes"/>
      <point x="269.5" y="461.3"/>
      <point x="262.5" y="416.7"/>
      <point x="186.9" y="-66.6" type="curve" smooth="yes"/>
      <point x="173.8" y="-149.2"/>
      <point x="151.1" y="-203.6"/>
      <point x="92.80000000000001" y="-203.6" type="curve" smooth="yes"/>
      <point x="82.30000000000001" y="-203.6"/>
      <point x="73.80000000000001" y="-202.5"/>
      <point x="62.2" y="-199.6" type="curve"/>
      <point x="57.2" y="-216.6" type="line"/>
      <point x="68.1" y="-219.4"/>
      <point x="81.9" y="-220.6"/>
      <point x="94.7" y="-220.6" type="curve" smooth="yes"/>
      <point x="158.5" y="-220.6"/>
      <point x="189.9" y="-168.4"/>
    </contour>
  </outline>
</glyph>
<glyph name="OE" format="2">
  <advance width="537.0"/>
  <unicode hex="0152"/>
  <outline>
    <contour>
      <point x="477.2" y="0.0" type="line"/>
      <point x="480.2" y="19.0" type="line"/>
      <point x="271.9" y="19.0" type="line"/>
      <point x="325.2" y="356.0" type="line"/>
      <point x="507.2" y="356.0" type="line"/>
      <point x="510.2" y="375.0" type="line"/>
      <point x="328.2" y="375.0" type="line"/>
      <point x="376.0" y="681.0" type="line"/>
      <point x="573.5" y="681.0" type="line"/>
      <point x="577.4" y="700.0" type="line"/>
      <point x="374.5" y="700.0" type="line"/>
      <point x="350.9" y="703.4"/>
      <point x="323.9" y="710.0"/>
      <point x="292.8" y="710.0" type="curve" smooth="yes"/>
      <point x="138.1" y="710.0"/>
      <point x="34.3" y="517.3"/>
      <point x="34.3" y="178.3" type="curve" smooth="yes"/>
      <point x="34.3" y="38.1"/>
      <point x="82.7" y="-10.0"/>
      <point x="188.7" y="-10.0" type="curve" smooth="yes"/>
      <point x="207.6" y="-10.0"/>
      <point x="235.7" y="-6.1"/>
      <point x="266.2" y="0.0" type="curve"/>
    </contour>
    <contour>
      <point x="252.0" y="14.6" type="line"/>
      <point x="227.3" y="9.4"/>
      <point x="207.9" y="8.1"/>
      <point x="189.0" y="8.1" type="curve" smooth="yes"/>
      <point x="86.0" y="8.1"/>
      <point x="53.4" y="64.5"/>
      <point x="53.4" y="184.9" type="curve" smooth="yes"/>
      <point x="53.4" y="493.5"/>
      <point x="149.8" y="692.8"/>
      <point x="294.2" y="692.8" type="curve" smooth="yes"/>
      <point x="314.0" y="692.8"/>
      <point x="345.8" y="687.9"/>
      <point x="357.9" y="685.6" type="curve"/>
    </contour>
  </outline>
</glyph>
<glyph name="oe" format="2">
  <advance width="515.5"/>
  <unicode hex="0153"/>
  <outline>
    <contour>
      <point x="114.75" y="-10.0" type="curve" smooth="yes"/>
      <point x="174.5" y="-10.0"/>
      <point x="218.75" y="60.25"/>
      <point x="245.0" y="157.25" type="curve"/>
      <point x="249.0" y="47.75"/>
      <point x="291.0" y="-10.0"/>
      <point x="365.0" y="-10.0" type="curve" smooth="yes"/>
      <point x="401.5" y="-10.0"/>
      <point x="440.5" y="-1.0"/>
      <point x="467.0" y="13.5" type="curve"/>
      <point x="460.0" y="29.5" type="line"/>
      <point x="428.25" y="15.0"/>
      <point x="397.25" y="7.25"/>
      <point x="367.75" y="7.25" type="curve" smooth="yes"/>
      <point x="302.25" y="7.25"/>
      <point x="263.0" y="67.25"/>
      <point x="263.0" y="168.25" type="curve" smooth="yes"/>
      <point x="263.0" y="372.75"/>
      <point x="337.5" y="522.75"/>
      <point x="436.75" y="522.75" type="curve" smooth="yes"/>
      <point x="482.5" y="522.75"/>
      <point x="502.75" y="497.25"/>
      <point x="502.75" y="455.0" type="curve" smooth="yes"/>
      <point x="502.75" y="389.25"/>
      <point x="448.25" y="324.75"/>
      <point x="367.25" y="290.5" type="curve" smooth="yes"/>
      <point x="335.25" y="277.0"/>
      <point x="299.5" y="268.0"/>
      <point x="264.5" y="264.25" type="curve"/>
      <point x="261.5" y="246.0" type="line"/>
      <point x="297.25" y="250.0"/>
      <point x="335.5" y="258.25"/>
      <point x="366.5" y="271.5" type="curve" smooth="yes"/>
      <point x="459.0" y="309.25"/>
      <point x="520.75" y="378.25"/>
      <point x="520.75" y="458.0" type="curve" smooth="yes"/>
      <point x="520.75" y="509.75"/>
      <point x="491.0" y="540.0"/>
      <point x="438.75" y="540.0" type="curve" smooth="yes"/>
      <point x="372.0" y="540.0"/>
      <point x="315.25" y="488.0"/>
      <point x="281.75" y="399.0" type="curve"/>
      <point x="283.0" y="497.0"/>
      <point x="259.25" y="539.25"/>
      <point x="185.75" y="539.25" type="curve" smooth="yes"/>
      <point x="70.75" y="539.25"/>
      <point x="18.75" y="251.0"/>
      <point x="18.75" y="113.5" type="curve" smooth="yes"/>
      <point x="18.75" y="16.5"/>
      <point x="51.5" y="-10.0"/>
    </contour>
    <contour>
      <point x="115.25" y="7.25" type="curve" smooth="yes"/>
      <point x="64.5" y="7.25"/>
      <point x="37.0" y="29.5"/>
      <point x="37.0" y="113.0" type="curve" smooth="yes"/>
      <point x="37.0" y="230.0"/>
      <point x="88.75" y="522.0"/>
      <point x="185.5" y="522.0" type="curve" smooth="yes"/>
      <point x="235.25" y="522.0"/>
      <point x="263.5" y="498.5"/>
      <point x="263.5" y="415.5" type="curve" smooth="yes"/>
      <point x="263.5" y="297.25"/>
      <point x="212.75" y="7.25"/>
    </contour>
  </outline>
</glyph>
<glyph name="uni0162" format="2">
  <advance width="273.6"/>
  <unicode hex="0162"/>
  <anchor x="92.8" y="0.0" name="_bottom"/>
  <anchor x="52.900000000000006" y="-220.0" name="bottom"/>
  <outline>
    <contour>
      <point x="11.900000000000002" y="-207.0" type="line"/>
      <point x="25.200000000000003" y="-217.0"/>
      <point x="39.900000000000006" y="-220.0"/>
      <point x="53.8" y="-220.0" type="curve" smooth="yes"/>
      <point x="100.80000000000001" y="-220.0"/>
      <point x="121.0" y="-163.1"/>
      <point x="121.0" y="-108.5" type="curve" smooth="yes"/>
      <point x="121.0" y="-70.5"/>
      <point x="112.6" y="-31.6"/>
      <point x="100.5" y="0.5" type="curve"/>
      <point x="82.9" y="0.0" type="line"/>
      <point x="95.4" y="-38.2"/>
      <point x="102.80000000000001" y="-74.4"/>
      <point x="102.80000000000001" y="-107.8" type="curve" smooth="yes"/>
      <point x="102.80000000000001" y="-166.9"/>
      <point x="83.2" y="-202.9"/>
      <point x="53.5" y="-202.9" type="curve" smooth="yes"/>
      <point x="41.400000000000006" y="-202.9"/>
      <point x="30.5" y="-198.8"/>
      <point x="20.0" y="-191.8" type="curve"/>
    </contour>
    <component base="T"/>
  </outline>
</glyph>
<glyph name="Tbar" format="2">
  <advance width="277.2"/>
  <unicode hex="0166"/>
  <outline>
    <contour>
      <point x="335.9" y="681.0" type="line"/>
      <point x="338.9" y="700.0" type="line"/>
      <point x="72.3" y="700.0" type="line"/>
      <point x="69.3" y="681.0" type="line"/>
      <point x="192.7" y="681.0" type="line"/>
      <point x="145.8" y="390.0" type="line"/>
      <point x="49.6" y="390.0" type="line"/>
      <point x="46.6" y="372.9" type="line"/>
      <point x="143.7" y="372.9" type="line"/>
      <point x="84.7" y="0.0" type="line"/>
      <point x="103.7" y="0.0" type="line"/>
      <point x="162.7" y="372.9" type="line"/>
      <point x="262.4" y="372.9" type="line"/>
      <point x="265.4" y="390.0" type="line"/>
      <point x="165.7" y="390.0" type="line"/>
      <point x="211.7" y="681.0" type="line"/>
    </contour>
  </outline>
</glyph>
<glyph name="uogonek" format="2">
  <advance width="318.3"/>
  <unicode hex="0173"/>
  <outline>
    <contour>
      <point x="220.5" y="-220.0" type="curve" smooth="yes"/>
      <point x="235.4" y="-220.0"/>
      <point x="248.3" y="-215.2"/>
      <point x="256.4" y="-208.4" type="curve"/>
      <point x="251.6" y="-195.0" type="line"/>
      <point x="244.3" y="-199.1"/>
      <point x="235.5" y="-202.9"/>
      <point x="224.3" y="-202.9" type="curve" smooth="yes"/>
      <point x="209.1" y="-202.9"/>
      <point x="198.6" y="-191.1"/>
      <point x="198.6" y="-168.2" type="curve" smooth="yes"/>
      <point x="198.6" y="-125.0"/>
      <point x="229.5" y="-62.6"/>
      <point x="285.1" y="0.0" type="curve"/>
      <point x="280.3" y="14.3" type="line"/>
      <point x="268.1" y="9.3"/>
      <point x="255.6" y="6.3"/>
      <point x="248.6" y="6.3" type="curve" smooth="yes"/>
      <point x="229.5" y="6.3"/>
      <point x="223.8" y="17.2"/>
      <point x="223.8" y="32.9" type="curve" smooth="yes"/>
      <point x="223.8" y="44.2"/>
      <point x="226.6" y="66.1"/>
      <point x="300.5" y="530.0" type="curve"/>
      <point x="281.4" y="530.0" type="line"/>
      <point x="205.8" y="45.0" type="line"/>
      <point x="169.0" y="19.8"/>
      <point x="128.5" y="7.2"/>
      <point x="100.7" y="7.2" type="curve" smooth="yes"/>
      <point x="63.8" y="7.2"/>
      <point x="45.1" y="27.6"/>
      <point x="45.1" y="59.9" type="curve" smooth="yes"/>
      <point x="45.1" y="73.9"/>
      <point x="47.0" y="86.6"/>
      <point x="116.4" y="530.0" type="curve"/>
      <point x="97.4" y="530.0" type="line"/>
      <point x="46.0" y="209.6"/>
      <point x="27.0" y="96.1"/>
      <point x="27.0" y="57.1" type="curve" smooth="yes"/>
      <point x="27.0" y="14.9"/>
      <point x="54.2" y="-10.0"/>
      <point x="98.5" y="-10.0" type="curve" smooth="yes"/>
      <point x="135.4" y="-10.0"/>
      <point x="168.2" y="2.6"/>
      <point x="206.6" y="26.9" type="curve"/>
      <point x="209.3" y="1.5"/>
      <point x="224.1" y="-10.0"/>
      <point x="246.4" y="-10.0" type="curve" smooth="yes"/>
      <point x="250.8" y="-10.0"/>
      <point x="256.0" y="-8.4"/>
      <point x="261.4" y="-6.8" type="curve"/>
      <point x="213.0" y="-66.3"/>
      <point x="180.5" y="-121.4"/>
      <point x="180.5" y="-172.7" type="curve" smooth="yes"/>
      <point x="180.5" y="-200.9"/>
      <point x="196.8" y="-220.0"/>
    </contour>
  </outline>
</glyph>
<glyph name="longs" format="2">
  <advance width="150.2"/>
  <unicode hex="017F"/>
  <outline>
    <contour>
      <point x="-72.9" y="-220.0" type="curve" smooth="yes"/>
      <point x="-7.6" y="-220.0"/>
      <point x="22.4" y="-166.0"/>
      <point x="38.8" y="-61.2" type="curve" smooth="yes"/>
      <point x="125.1" y="484.0" type="line" smooth="yes"/>
      <point x="152.9" y="660.9"/>
      <point x="190.5" y="731.0"/>
      <point x="260.0" y="731.0" type="curve" smooth="yes"/>
      <point x="280.1" y="731.0"/>
      <point x="298.5" y="726.9"/>
      <point x="316.6" y="722.0" type="curve"/>
      <point x="323.5" y="740.0" type="line"/>
      <point x="301.4" y="747.1"/>
      <point x="282.7" y="750.0"/>
      <point x="265.0" y="750.0" type="curve" smooth="yes"/>
      <point x="180.7" y="750.0"/>
      <point x="136.2" y="676.4"/>
      <point x="106.0" y="484.0" type="curve"/>
      <point x="41.1" y="478.1" type="line"/>
      <point x="39.1" y="465.0" type="line"/>
      <point x="103.0" y="465.0" type="line"/>
      <point x="20.4" y="-57.9" type="line" smooth="yes"/>
      <point x="6.1" y="-148.0"/>
      <point x="-15.0" y="-204.8"/>
      <point x="-74.8" y="-204.8" type="curve" smooth="yes"/>
      <point x="-89.8" y="-204.8"/>
      <point x="-101.2" y="-202.7"/>
      <point x="-117.5" y="-197.5" type="curve"/>
      <point x="-121.7" y="-212.7" type="line"/>
      <point x="-107.0" y="-217.9"/>
      <point x="-91.7" y="-220.0"/>
    </contour>
  </outline>
</glyph>
<glyph name="uni018F" format="2">
  <advance width="352.25"/>
  <unicode hex="018F"/>
  <outline>
    <contour>
      <point x="107.0" y="-10.0" type="curve" smooth="yes"/>
      <point x="237.5" y="-10.0"/>
      <point x="345.0" y="234.5"/>
      <point x="345.0" y="524.25" type="curve" smooth="yes"/>
      <point x="345.0" y="663.0"/>
      <point x="299.5" y="710.0"/>
      <point x="216.25" y="710.0" type="curve" smooth="yes"/>
      <point x="166.5" y="710.0"/>
      <point x="112.75" y="697.0"/>
      <point x="70.5" y="673.75" type="curve"/>
      <point x="78.5" y="657.75" type="line"/>
      <point x="122.5" y="679.5"/>
      <point x="165.0" y="692.0"/>
      <point x="212.0" y="692.0" type="curve" smooth="yes"/>
      <point x="301.0" y="692.0"/>
      <point x="326.0" y="632.0"/>
      <point x="326.0" y="514.5" type="curve" smooth="yes"/>
      <point x="326.0" y="244.75"/>
      <point x="225.25" y="8.0"/>
      <point x="107.5" y="8.0" type="curve" smooth="yes"/>
      <point x="52.0" y="8.0"/>
      <point x="19.75" y="47.0"/>
      <point x="19.75" y="111.5" type="curve" smooth="yes"/>
      <point x="19.75" y="251.25"/>
      <point x="106.25" y="350.5"/>
      <point x="249.25" y="350.5" type="curve" smooth="yes"/>
      <point x="270.75" y="350.5"/>
      <point x="295.75" y="348.25"/>
      <point x="318.25" y="345.0" type="curve"/>
      <point x="320.5" y="363.25" type="line"/>
      <point x="299.75" y="367.0"/>
      <point x="277.5" y="368.5"/>
      <point x="257.0" y="368.5" type="curve" smooth="yes"/>
      <point x="95.25" y="368.5"/>
      <point x="0.75" y="263.75"/>
      <point x="0.75" y="108.25" type="curve" smooth="yes"/>
      <point x="0.75" y="35.25"/>
      <point x="40.25" y="-10.0"/>
    </contour>
  </outline>
</glyph>
<glyph name="florin" format="2">
  <advance width="328.4"/>
  <unicode hex="0192"/>
  <outline>
    <contour>
      <point x="155.6" y="366.0" type="line"/>
      <point x="267.4" y="366.0" type="line"/>
      <point x="270.4" y="384.2" type="line"/>
      <point x="158.6" y="384.2" type="line"/>
      <point x="167.9" y="439.7" type="line" smooth="yes"/>
      <point x="195.9" y="617.6"/>
      <point x="232.9" y="692.0"/>
      <point x="297.6" y="692.0" type="curve" smooth="yes"/>
      <point x="315.7" y="692.0"/>
      <point x="331.1" y="688.6"/>
      <point x="344.7" y="683.9" type="curve"/>
      <point x="352.5" y="701.0" type="line"/>
      <point x="337.1" y="706.6"/>
      <point x="319.0" y="710.0"/>
      <point x="301.4" y="710.0" type="curve" smooth="yes"/>
      <point x="222.8" y="710.0"/>
      <point x="182.7" y="644.5"/>
      <point x="150.0" y="439.9" type="curve" smooth="yes"/>
      <point x="140.7" y="384.2" type="line"/>
      <point x="72.7" y="384.2" type="line"/>
      <point x="69.7" y="366.0" type="line"/>
      <point x="137.7" y="366.0" type="line"/>
      <point x="47.6" y="-210.0" type="line"/>
      <point x="65.5" y="-210.0" type="line"/>
    </contour>
  </outline>
</glyph>
<glyph name="uni0237" format="2">
  <advance width="137.8"/>
  <unicode hex="0237"/>
  <anchor x="-79.9" y="-210.0" name="bottom"/>
  <anchor x="113.2" y="530.0" name="top"/>
  <outline>
    <contour>
      <point x="123.1" y="530.0" type="line"/>
      <point x="104.1" y="530.0" type="line"/>
      <point x="10.100000000000001" y="-66.0" type="line" smooth="yes"/>
      <point x="-3.0" y="-148.6"/>
      <point x="-25.7" y="-203.0"/>
      <point x="-84.0" y="-203.0" type="curve" smooth="yes"/>
      <point x="-99.0" y="-203.0"/>
      <point x="-111.1" y="-201.0"/>
      <point x="-128.1" y="-195.4" type="curve"/>
      <point x="-132.2" y="-212.4" type="line"/>
      <point x="-117.7" y="-217.9"/>
      <point x="-100.3" y="-220.0"/>
      <point x="-82.1" y="-220.0" type="curve" smooth="yes"/>
      <point x="-18.3" y="-220.0"/>
      <point x="13.100000000000001" y="-167.8"/>
      <point x="28.1" y="-71.0" type="curve" smooth="yes"/>
    </contour>
  </outline>
</glyph>
<glyph name="uni0259" format="2">
  <advance width="304.0"/>
  <unicode hex="0259"/>
  <outline>
    <contour>
      <point x="265.0" y="273.0" type="curve"/>
      <point x="265.5" y="290.25" type="line"/>
      <point x="226.5" y="286.5"/>
      <point x="183.0" y="278.0"/>
      <point x="149.5" y="262.25" type="curve" smooth="yes"/>
      <point x="56.75" y="224.5"/>
      <point x="-4.75" y="156.25"/>
      <point x="-4.75" y="73.0" type="curve" smooth="yes"/>
      <point x="-4.75" y="21.75"/>
      <point x="23.75" y="-10.0"/>
      <point x="77.25" y="-10.0" type="curve" smooth="yes"/>
      <point x="194.25" y="-10.0"/>
      <point x="277.5" y="159.25"/>
      <point x="277.5" y="380.5" type="curve" smooth="yes"/>
      <point x="277.5" y="501.5"/>
      <point x="231.0" y="540.0"/>
      <point x="164.75" y="540.0" type="curve" smooth="yes"/>
      <point x="121.75" y="540.0"/>
      <point x="87.25" y="530.25"/>
      <point x="61.75" y="516.75" type="curve"/>
      <point x="68.75" y="500.5" type="line"/>
      <point x="97.25" y="514.0"/>
      <point x="125.5" y="523.0"/>
      <point x="160.0" y="523.0" type="curve" smooth="yes"/>
      <point x="217.0" y="523.0"/>
      <point x="260.25" y="489.5"/>
      <point x="260.25" y="380.5" type="curve" smooth="yes"/>
      <point x="260.25" y="174.75"/>
      <point x="181.0" y="7.25"/>
      <point x="79.25" y="7.25" type="curve" smooth="yes"/>
      <point x="32.5" y="7.25"/>
      <point x="13.5" y="34.25"/>
      <point x="13.5" y="76.0" type="curve" smooth="yes"/>
      <point x="13.5" y="145.5"/>
      <point x="67.5" y="210.0"/>
      <point x="149.0" y="244.25" type="curve" smooth="yes"/>
      <point x="182.0" y="260.25"/>
      <point x="222.75" y="269.25"/>
    </contour>
  </outline>
</glyph>
<glyph name="gravecomb" format="2">
  <unicode hex="0300"/>
  <anchor x="-110.7" y="530.0" name="_top"/>
  <anchor x="-123.5" y="712.0" name="top"/>
  <outline>
    <contour>
      <point x="-105.1" y="596.0" type="line"/>
      <point x="-88.4" y="596.0" type="line"/>
      <point x="-143.8" y="790.0" type="line"/>
      <point x="-164.4" y="790.0" type="line"/>
    </contour>
  </outline>
</glyph>
<glyph name="acutecomb" format="2">
  <unicode hex="0301"/>
  <anchor x="-110.7" y="530.0" name="_top"/>
  <anchor x="-40.6" y="712.0" name="top"/>
  <outline>
    <contour>
      <point x="-114.5" y="596.0" type="line"/>
      <point x="-97.6" y="596.0" type="line"/>
      <point x="25.8" y="790.0" type="line"/>
      <point x="3.8000000000000007" y="790.0" type="line"/>
    </contour>
  </outline>
</glyph>
<glyph name="uni0302" format="2">
  <unicode hex="0302"/>
  <anchor x="-110.7" y="530.0" name="_top"/>
  <anchor x="-76.3" y="740.0" name="top"/>
  <anchor x="0.5" y="670.8" name="top_viet"/>
  <outline>
    <contour>
      <point x="-183.9" y="596.0" type="line"/>
      <point x="-167.0" y="596.0" type="line"/>
      <point x="-71.5" y="767.8" type="line"/>
      <point x="-31.1" y="596.0" type="line"/>
      <point x="-15.3" y="596.0" type="line"/>
      <point x="-58.900000000000006" y="790.0" type="line"/>
      <point x="-79.2" y="790.0" type="line"/>
    </contour>
  </outline>
</glyph>
<glyph name="tildecomb" format="2">
  <unicode hex="0303"/>
  <anchor x="-110.7" y="530.0" name="_top"/>
  <anchor x="-95.9" y="622.1" name="top"/>
  <outline>
    <contour>
      <point x="-186.8" y="604.8" type="curve"/>
      <point x="-171.4" y="604.8" type="line"/>
      <point x="-171.4" y="607.9"/>
      <point x="-172.1" y="604.2"/>
      <point x="-171.1" y="616.7" type="curve" smooth="yes"/>
      <point x="-170.5" y="665.4"/>
      <point x="-152.6" y="699.1"/>
      <point x="-130.2" y="699.1" type="curve" smooth="yes"/>
      <point x="-90.4" y="699.1"/>
      <point x="-102.8" y="604.8"/>
      <point x="-53.900000000000006" y="604.8" type="curve" smooth="yes"/>
      <point x="-16.900000000000002" y="604.8"/>
      <point x="5.800000000000001" y="652.1"/>
      <point x="6.5" y="714.1" type="curve" smooth="yes"/>
      <point x="6.899999999999999" y="718.7"/>
      <point x="6.800000000000001" y="719.1"/>
      <point x="6.800000000000001" y="721.5" type="curve"/>
      <point x="-8.600000000000001" y="721.5" type="line"/>
      <point x="-8.600000000000001" y="718.2"/>
      <point x="-8.5" y="716.9"/>
      <point x="-8.900000000000002" y="711.4" type="curve" smooth="yes"/>
      <point x="-9.400000000000002" y="683.6"/>
      <point x="-20.3" y="622.8"/>
      <point x="-50.900000000000006" y="622.8" type="curve" smooth="yes"/>
      <point x="-88.7" y="622.8"/>
      <point x="-74.0" y="715.2"/>
      <point x="-127.2" y="715.2" type="curve" smooth="yes"/>
      <point x="-162.7" y="715.2"/>
      <point x="-185.8" y="675.5"/>
      <point x="-186.5" y="619.4" type="curve" smooth="yes"/>
      <point x="-187.5" y="606.0"/>
      <point x="-186.8" y="608.8"/>
    </contour>
  </outline>
</glyph>
<glyph name="uni0304" format="2">
  <unicode hex="0304"/>
  <anchor x="-110.7" y="530.0" name="_top"/>
  <anchor x="-82.7" y="704.8" name="top"/>
  <outline>
    <contour>
      <point x="-164.2" y="685.0" type="line"/>
      <point x="-7.199999999999999" y="685.0" type="line"/>
      <point x="-4.199999999999999" y="704.8" type="line"/>
      <point x="-161.2" y="704.8" type="line"/>
    </contour>
  </outline>
</glyph>
<glyph name="uni0306" format="2">
  <unicode hex="0306"/>
  <anchor x="-110.7" y="530.0" name="_top"/>
  <anchor x="-84.3" y="699.1" name="top"/>
  <outline>
    <contour>
      <point x="-98.8" y="605.3" type="curve" smooth="yes"/>
      <point x="-37.0" y="605.3"/>
      <point x="-3.3000000000000007" y="641.8"/>
      <point x="9.299999999999999" y="730.0" type="curve"/>
      <point x="-6.9" y="730.2" type="line"/>
      <point x="-16.900000000000002" y="659.7"/>
      <point x="-48.1" y="622.4"/>
      <point x="-95.8" y="622.4" type="curve" smooth="yes"/>
      <point x="-135.8" y="622.4"/>
      <point x="-155.2" y="643.5"/>
      <point x="-155.8" y="691.2" type="curve" smooth="yes"/>
      <point x="-155.8" y="706.5"/>
      <point x="-154.9" y="718.3"/>
      <point x="-152.1" y="730.2" type="curve"/>
      <point x="-167.4" y="730.0" type="line"/>
      <point x="-170.2" y="719.4"/>
      <point x="-172.0" y="701.6"/>
      <point x="-172.0" y="685.7" type="curve" smooth="yes"/>
      <point x="-172.0" y="629.3"/>
      <point x="-148.6" y="605.3"/>
    </contour>
  </outline>
</glyph>
<glyph name="uni0307" format="2">
  <unicode hex="0307"/>
  <anchor x="-110.7" y="530.0" name="_top"/>
  <anchor x="-94.1" y="635.0" name="top"/>
  <outline>
    <contour>
      <point x="-87.6" y="676.0" type="curve" smooth="yes"/>
      <point x="-74.7" y="676.0"/>
      <point x="-70.5" y="686.8"/>
      <point x="-70.5" y="699.1" type="curve" smooth="yes"/>
      <point x="-70.5" y="707.1"/>
      <point x="-72.7" y="712.0"/>
      <point x="-82.7" y="712.0" type="curve" smooth="yes"/>
      <point x="-94.8" y="712.0"/>
      <point x="-99.0" y="700.3"/>
      <point x="-99.0" y="687.1" type="curve" smooth="yes"/>
      <point x="-99.0" y="680.0"/>
      <point x="-95.9" y="676.0"/>
    </contour>
  </outline>
</glyph>
<glyph name="uni0308" format="2">
  <unicode hex="0308"/>
  <anchor x="-110.7" y="530.0" name="_top"/>
  <anchor x="-94.3" y="635.0" name="top"/>
  <outline>
    <contour>
      <point x="-30.900000000000002" y="676.0" type="curve" smooth="yes"/>
      <point x="-20.0" y="676.0"/>
      <point x="-15.700000000000003" y="686.6"/>
      <point x="-15.700000000000003" y="700.0" type="curve" smooth="yes"/>
      <point x="-15.700000000000003" y="707.1"/>
      <point x="-17.8" y="712.0"/>
      <point x="-25.900000000000002" y="712.0" type="curve" smooth="yes"/>
      <point x="-37.0" y="712.0"/>
      <point x="-41.2" y="699.5"/>
      <point x="-41.2" y="686.1" type="curve" smooth="yes"/>
      <point x="-41.2" y="680.0"/>
      <point x="-39.0" y="676.0"/>
    </contour>
    <contour>
      <point x="-146.2" y="676.0" type="curve" smooth="yes"/>
      <point x="-135.3" y="676.0"/>
      <point x="-131.0" y="686.6"/>
      <point x="-131.0" y="700.0" type="curve" smooth="yes"/>
      <point x="-131.0" y="707.1"/>
      <point x="-133.1" y="712.0"/>
      <point x="-141.2" y="712.0" type="curve" smooth="yes"/>
      <point x="-153.2" y="712.0"/>
      <point x="-156.5" y="696.8"/>
      <point x="-156.5" y="686.1" type="curve" smooth="yes"/>
      <point x="-156.5" y="680.0"/>
      <point x="-154.3" y="676.0"/>
    </contour>
  </outline>
</glyph>
<glyph name="hookabovecomb" format="2">
  <unicode hex="0309"/>
  <anchor x="-110.7" y="530.0" name="_top"/>
  <anchor x="-65.5" y="794.0" name="top"/>
  <outline>
    <contour>
      <point x="-100.1" y="607.4" type="line"/>
      <point x="-44.7" y="653.7"/>
      <point x="-21.1" y="694.9"/>
      <point x="-21.1" y="737.3" type="curve" smooth="yes"/>
      <point x="-21.1" y="773.9"/>
      <point x="-41.900000000000006" y="794.0"/>
      <point x="-71.7" y="794.0" type="curve" smooth="yes"/>
      <point x="-92.1" y="794.0"/>
      <point x="-113.0" y="786.2"/>
      <point x="-130.8" y="763.4" type="curve"/>
      <point x="-118.9" y="753.1" type="line"/>
      <point x="-103.9" y="771.3"/>
      <point x="-89.1" y="777.0"/>
      <point x="-73.5" y="777.0" type="curve" smooth="yes"/>
      <point x="-53.2" y="777.0"/>
      <point x="-39.2" y="761.0"/>
      <point x="-39.2" y="735.5" type="curve" smooth="yes"/>
      <point x="-39.2" y="700.2"/>
      <point x="-59.7" y="659.4"/>
      <point x="-110.4" y="617.9" type="curve"/>
    </contour>
  </outline>
</glyph>
<glyph name="uni030A" format="2">
  <unicode hex="030A"/>
  <anchor x="-110.7" y="530.0" name="_top"/>
  <anchor x="-77.6" y="739.6" name="top"/>
  <outline>
    <contour>
      <point x="-95.9" y="617.2" type="curve" smooth="yes"/>
      <point x="-57.0" y="617.2"/>
      <point x="-26.6" y="652.9"/>
      <point x="-26.6" y="713.6" type="curve" smooth="yes"/>
      <point x="-26.6" y="753.7"/>
      <point x="-43.400000000000006" y="773.2"/>
      <point x="-72.6" y="773.2" type="curve" smooth="yes"/>
      <point x="-112.4" y="773.2"/>
      <point x="-141.9" y="736.6"/>
      <point x="-141.9" y="674.1" type="curve" smooth="yes"/>
      <point x="-141.9" y="635.8"/>
      <point x="-125.1" y="617.2"/>
    </contour>
    <contour>
      <point x="-92.9" y="634.2" type="curve" smooth="yes"/>
      <point x="-113.2" y="634.2"/>
      <point x="-123.80000000000001" y="647.6"/>
      <point x="-123.80000000000001" y="670.8" type="curve" smooth="yes"/>
      <point x="-123.80000000000001" y="723.0"/>
      <point x="-104.2" y="756.2"/>
      <point x="-75.6" y="756.2" type="curve" smooth="yes"/>
      <point x="-55.3" y="756.2"/>
      <point x="-44.7" y="741.9"/>
      <point x="-44.7" y="717.8" type="curve" smooth="yes"/>
      <point x="-44.7" y="666.5"/>
      <point x="-65.2" y="634.2"/>
    </contour>
  </outline>
</glyph>
<glyph name="uni030B" format="2">
  <unicode hex="030B"/>
  <anchor x="-110.7" y="530.0" name="_top"/>
  <anchor x="-32.1" y="790.0" name="top"/>
  <outline>
    <contour>
      <point x="-74.7" y="596.0" type="line"/>
      <point x="-57.8" y="596.0" type="line"/>
      <point x="62.9" y="790.0" type="line"/>
      <point x="41.8" y="790.0" type="line"/>
    </contour>
    <contour>
      <point x="-158.0" y="596.0" type="line"/>
      <point x="-141.1" y="596.0" type="line"/>
      <point x="-20.400000000000002" y="790.0" type="line"/>
      <point x="-41.5" y="790.0" type="line"/>
    </contour>
  </outline>
</glyph>
<glyph name="uni030F" format="2">
  <unicode hex="030F"/>
  <anchor x="-110.7" y="530.0" name="_top"/>
  <anchor x="-116.9" y="790.0" name="top"/>
  <outline>
    <contour>
      <point x="-147.3" y="596.0" type="line"/>
      <point x="-130.6" y="596.0" type="line"/>
      <point x="-175.0" y="790.0" type="line"/>
      <point x="-195.6" y="790.0" type="line"/>
    </contour>
    <contour>
      <point x="-67.1" y="596.0" type="line"/>
      <point x="-50.400000000000006" y="596.0" type="line"/>
      <point x="-94.80000000000001" y="790.0" type="line"/>
      <point x="-115.4" y="790.0" type="line"/>
    </contour>
  </outline>
</glyph>
<glyph name="uni0312" format="2">
  <unicode hex="0312"/>
  <anchor x="-110.7" y="530.0" name="_top"/>
  <outline>
    <contour>
      <point x="-89.9" y="595.0" type="line"/>
      <point x="-93.5" y="605.7"/>
      <point x="-94.5" y="617.7"/>
      <point x="-94.5" y="629.9" type="curve" smooth="yes"/>
      <point x="-94.5" y="680.7"/>
      <point x="-77.2" y="738.7"/>
      <point x="-48.0" y="790.0" type="curve"/>
      <point x="-64.7" y="790.0" type="line"/>
      <point x="-94.5" y="739.7"/>
      <point x="-111.7" y="678.0"/>
      <point x="-111.7" y="627.9" type="curve" smooth="yes"/>
      <point x="-111.7" y="615.6"/>
      <point x="-110.80000000000001" y="604.3"/>
      <point x="-107.6" y="595.0" type="curve"/>
    </contour>
  </outline>
</glyph>
<glyph name="uni031B" format="2">
  <unicode hex="031B"/>
  <anchor x="-61.400000000000006" y="530.0" name="_topright"/>
  <anchor x="68.2" y="685.8" name="topright"/>
  <outline>
    <contour>
      <point x="-67.7" y="513.0" type="line"/>
      <point x="-57.400000000000006" y="513.0" type="line" smooth="yes"/>
      <point x="15.5" y="513.0"/>
      <point x="46.1" y="594.1"/>
      <point x="22.1" y="685.3" type="curve"/>
      <point x="3.0999999999999996" y="682.0" type="line"/>
      <point x="26.2" y="600.7"/>
      <point x="1.5999999999999996" y="530.0"/>
      <point x="-57.2" y="530.0" type="curve" smooth="yes"/>
      <point x="-71.2" y="530.0" type="line"/>
    </contour>
  </outline>
</glyph>
<glyph name="uni0326" format="2">
  <unicode hex="0326"/>
  <anchor x="-191.8" y="0.0" name="_bottom"/>
  <anchor x="-250.5" y="-220.0" name="bottom"/>
  <outline>
    <contour>
      <point x="-213.9" y="-73.0" type="line"/>
      <point x="-213.2" y="-82.8"/>
      <point x="-213.8" y="-93.8"/>
      <point x="-215.6" y="-105.3" type="curve" smooth="yes"/>
      <point x="-221.0" y="-140.0"/>
      <point x="-233.8" y="-176.5"/>
      <point x="-259.8" y="-220.0" type="curve"/>
      <point x="-240.6" y="-220.0" type="line"/>
      <point x="-218.3" y="-182.9"/>
      <point x="-203.8" y="-149.1"/>
      <point x="-197.5" y="-105.0" type="curve" smooth="yes"/>
      <point x="-195.7" y="-93.3"/>
      <point x="-194.9" y="-82.6"/>
      <point x="-195.3" y="-73.0" type="curve"/>
    </contour>
  </outline>
</glyph>
<glyph name="uni0327" format="2">
  <unicode hex="0327"/>
  <anchor x="-191.8" y="0.0" name="_bottom"/>
  <anchor x="-231.7" y="-220.0" name="bottom"/>
  <outline>
    <contour>
      <point x="-272.7" y="-207.0" type="line"/>
      <point x="-259.4" y="-217.1"/>
      <point x="-244.6" y="-220.0"/>
      <point x="-230.8" y="-220.0" type="curve" smooth="yes"/>
      <point x="-184.0" y="-220.0"/>
      <point x="-163.6" y="-163.3"/>
      <point x="-163.6" y="-108.5" type="curve" smooth="yes"/>
      <point x="-163.6" y="-70.6"/>
      <point x="-171.6" y="-31.6"/>
      <point x="-184.7" y="0.0" type="curve"/>
      <point x="-204.0" y="0.0" type="line"/>
      <point x="-189.2" y="-38.2"/>
      <point x="-181.8" y="-74.4"/>
      <point x="-181.8" y="-107.8" type="curve" smooth="yes"/>
      <point x="-181.8" y="-166.9"/>
      <point x="-201.4" y="-202.9"/>
      <point x="-231.1" y="-202.9" type="curve" smooth="yes"/>
      <point x="-242.8" y="-202.9"/>
      <point x="-253.6" y="-199.1"/>
      <point x="-264.6" y="-191.8" type="curve"/>
    </contour>
  </outline>
</glyph>
<glyph name="uni0328" format="2">
  <unicode hex="0328"/>
  <anchor x="-177.0" y="0.0" name="_ogonek"/>
  <outline>
    <contour>
      <point x="-194.0" y="0.9" type="line"/>
      <point x="-254.0" y="-71.7"/>
      <point x="-281.6" y="-126.0"/>
      <point x="-281.6" y="-172.7" type="curve" smooth="yes"/>
      <point x="-281.6" y="-201.8"/>
      <point x="-264.4" y="-220.0"/>
      <point x="-241.6" y="-220.0" type="curve" smooth="yes"/>
      <point x="-226.7" y="-220.0"/>
      <point x="-213.8" y="-215.2"/>
      <point x="-205.7" y="-208.4" type="curve"/>
      <point x="-210.5" y="-195.0" type="line"/>
      <point x="-220.5" y="-200.0"/>
      <point x="-228.4" y="-202.9"/>
      <point x="-237.8" y="-202.9" type="curve" smooth="yes"/>
      <point x="-253.0" y="-202.9"/>
      <point x="-263.5" y="-190.2"/>
      <point x="-263.5" y="-168.2" type="curve" smooth="yes"/>
      <point x="-263.5" y="-124.1"/>
      <point x="-231.7" y="-61.7"/>
      <point x="-177.0" y="0.0" type="curve"/>
    </contour>
  </outline>
</glyph>
<glyph name="uni0335" format="2">
  <unicode hex="0335"/>
  <anchor x="-50.4" y="350.0" name="_center"/>
  <outline>
    <contour>
      <point x="-150.9" y="340.0" type="line"/>
      <point x="46.0" y="340.0" type="line"/>
      <point x="50.0" y="360.0" type="line"/>
      <point x="-146.9" y="360.0" type="line"/>
    </contour>
  </outline>
</glyph>
<glyph name="pi" format="2">
  <advance width="363.1"/>
  <unicode hex="03C0"/>
  <outline>
    <contour>
      <point x="248.8" y="-10.0" type="curve" smooth="yes"/>
      <point x="258.2" y="-10.0"/>
      <point x="268.6" y="-8.0"/>
      <point x="282.6" y="-1.1" type="curve"/>
      <point x="279.0" y="15.8" type="line"/>
      <point x="268.7" y="10.9"/>
      <point x="260.1" y="8.9"/>
      <point x="251.9" y="8.9" type="curve" smooth="yes"/>
      <point x="239.1" y="8.9"/>
      <point x="233.2" y="15.8"/>
      <point x="233.2" y="28.7" type="curve" smooth="yes"/>
      <point x="233.2" y="37.0"/>
      <point x="234.8" y="51.1"/>
      <point x="308.2" y="512.0" type="curve"/>
      <point x="357.7" y="512.0" type="line"/>
      <point x="359.8" y="530.0" type="line"/>
      <point x="211.5" y="530.0" type="line" smooth="yes"/>
      <point x="156.0" y="530.0"/>
      <point x="112.3" y="525.9"/>
      <point x="73.3" y="494.8" type="curve"/>
      <point x="77.3" y="478.0" type="line"/>
      <point x="112.2" y="502.6"/>
      <point x="140.9" y="509.2"/>
      <point x="159.7" y="511.1" type="curve"/>
      <point x="122.2" y="373.4"/>
      <point x="65.8" y="112.5"/>
      <point x="22.9" y="0.0" type="curve"/>
      <point x="40.8" y="0.0" type="line"/>
      <point x="86.4" y="120.6"/>
      <point x="142.9" y="377.9"/>
      <point x="177.7" y="512.0" type="curve"/>
      <point x="290.2" y="512.0" type="line"/>
      <point x="217.4" y="52.0"/>
      <point x="215.2" y="33.0"/>
      <point x="215.2" y="24.7" type="curve" smooth="yes"/>
      <point x="215.2" y="5.7"/>
      <point x="223.5" y="-10.0"/>
    </contour>
  </outline>
</glyph>
<glyph name="endash" format="2">
  <advance width="296.1"/>
  <unicode hex="2013"/>
  <outline>
    <contour>
      <point x="7.300000000000001" y="255.0" type="line"/>
      <point x="282.7" y="255.0" type="line"/>
      <point x="285.8" y="275.0" type="line"/>
      <point x="10.4" y="275.0" type="line"/>
    </contour>
  </outline>
</glyph>
<glyph name="emdash" format="2">
  <advance width="593.5"/>
  <unicode hex="2014"/>
  <outline>
    <contour>
      <point x="-1.9" y="255.0" type="line"/>
      <point x="589.3" y="255.0" type="line"/>
      <point x="592.4" y="275.0" type="line"/>
      <point x="1.2000000000000002" y="275.0" type="line"/>
    </contour>
  </outline>
</glyph>
<glyph name="quoteleft" format="2">
  <advance width="112.3"/>
  <unicode hex="2018"/>
  <outline>
    <contour>
      <point x="56.2" y="430.0" type="curve"/>
      <point x="73.4" y="430.0" type="line"/>
      <point x="84.7" y="532.7"/>
      <point x="112.7" y="618.6"/>
      <point x="165.0" y="700.0" type="curve"/>
      <point x="147.6" y="700.0" type="line"/>
      <point x="98.0" y="628.6"/>
      <point x="64.7" y="526.7"/>
    </contour>
  </outline>
</glyph>
<glyph name="quoteright" format="2">
  <advance width="112.3"/>
  <unicode hex="2019"/>
  <outline>
    <contour>
      <point x="148.1" y="700.0" type="curve"/>
      <point x="130.9" y="700.0" type="line"/>
      <point x="119.6" y="597.3"/>
      <point x="91.6" y="511.4"/>
      <point x="39.3" y="430.0" type="curve"/>
      <point x="56.7" y="430.0" type="line"/>
      <point x="106.3" y="501.4"/>
      <point x="139.6" y="603.3"/>
    </contour>
  </outline>
</glyph>
<glyph name="dagger" format="2">
  <advance width="290.5"/>
  <unicode hex="2020"/>
  <outline>
    <contour>
      <point x="58.9" y="-210.0" type="line"/>
      <point x="76.9" y="-210.0" type="line"/>
      <point x="191.0" y="511.0" type="line"/>
      <point x="298.3" y="511.0" type="line"/>
      <point x="301.3" y="531.0" type="line"/>
      <point x="194.0" y="531.0" type="line"/>
      <point x="226.9" y="740.0" type="line"/>
      <point x="208.9" y="740.0" type="line"/>
      <point x="176.0" y="531.0" type="line"/>
      <point x="69.6" y="531.0" type="line"/>
      <point x="66.6" y="511.0" type="line"/>
      <point x="173.0" y="511.0" type="line"/>
    </contour>
  </outline>
</glyph>
<glyph name="daggerdbl" format="2">
  <advance width="290.5"/>
  <unicode hex="2021"/>
  <outline>
    <contour>
      <point x="218.1" y="0.0" type="line"/>
      <point x="221.1" y="20.0" type="line"/>
      <point x="113.8" y="20.0" type="line"/>
      <point x="191.8" y="510.0" type="line"/>
      <point x="299.1" y="510.0" type="line"/>
      <point x="302.1" y="530.0" type="line"/>
      <point x="194.8" y="530.0" type="line"/>
      <point x="227.8" y="740.0" type="line"/>
      <point x="209.8" y="740.0" type="line"/>
      <point x="176.8" y="530.0" type="line"/>
      <point x="70.4" y="530.0" type="line"/>
      <point x="67.4" y="510.0" type="line"/>
      <point x="173.8" y="510.0" type="line"/>
      <point x="95.8" y="20.0" type="line"/>
      <point x="-10.6" y="20.0" type="line"/>
      <point x="-13.6" y="0.0" type="line"/>
      <point x="92.8" y="0.0" type="line"/>
      <point x="59.8" y="-210.0" type="line"/>
      <point x="77.8" y="-210.0" type="line"/>
      <point x="110.8" y="0.0" type="line"/>
    </contour>
  </outline>
</glyph>
<glyph name="bullet" format="2">
  <advance width="214.0"/>
  <unicode hex="2022"/>
  <outline>
    <contour>
      <point x="99.7" y="237.8" type="curve" smooth="yes"/>
      <point x="141.6" y="237.8"/>
      <point x="185.1" y="280.0"/>
      <point x="185.1" y="328.6" type="curve" smooth="yes"/>
      <point x="185.1" y="365.6"/>
      <point x="159.5" y="394.2"/>
      <point x="124.1" y="394.2" type="curve" smooth="yes"/>
      <point x="80.2" y="394.2"/>
      <point x="39.6" y="351.0"/>
      <point x="39.6" y="301.4" type="curve" smooth="yes"/>
      <point x="39.6" y="265.4"/>
      <point x="64.4" y="237.8"/>
    </contour>
  </outline>
</glyph>
<glyph name="minute" format="2">
  <advance width="149.5"/>
  <unicode hex="2032"/>
  <outline>
    <contour>
      <point x="68.0" y="427.2" type="line"/>
      <point x="80.0" y="427.2" type="line"/>
      <point x="169.9" y="700.0" type="line"/>
      <point x="151.5" y="700.0" type="line"/>
    </contour>
  </outline>
</glyph>
<glyph name="guilsinglleft" format="2">
  <advance width="142.6"/>
  <unicode hex="2039"/>
  <outline>
    <contour>
      <point x="72.1" y="56.6" type="line"/>
      <point x="88.6" y="64.1" type="line"/>
      <point x="40.7" y="270.0" type="line"/>
      <point x="153.4" y="476.1" type="line"/>
      <point x="138.9" y="483.8" type="line"/>
      <point x="22.0" y="273.9" type="line"/>
      <point x="20.8" y="266.5" type="line"/>
    </contour>
  </outline>
</glyph>
<glyph name="guilsinglright" format="2">
  <advance width="142.6"/>
  <unicode hex="203A"/>
  <outline>
    <contour>
      <point x="-12.7" y="64.3" type="line"/>
      <point x="1.8" y="56.6" type="line"/>
      <point x="118.7" y="266.5" type="line"/>
      <point x="119.9" y="273.9" type="line"/>
      <point x="68.6" y="483.8" type="line"/>
      <point x="52.1" y="476.3" type="line"/>
      <point x="100.9" y="270.4" type="line"/>
    </contour>
  </outline>
</glyph>
<glyph name="fraction" format="2">
  <advance width="69.6"/>
  <unicode hex="2044"/>
  <outline>
    <contour>
      <point x="-149.4" y="-11.0" type="line"/>
      <point x="263.8" y="741.5" type="line"/>
      <point x="248.7" y="748.9" type="line"/>
      <point x="-164.4" y="-3.6" type="line"/>
    </contour>
  </outline>
</glyph>
<glyph name="uni2052" format="2">
  <advance width="328.4"/>
  <unicode hex="2052"/>
  <outline>
    <contour>
      <point x="-22.6" y="5.0" type="line"/>
      <point x="-7.1" y="-2.9" type="line"/>
      <point x="374.9" y="695.0" type="line"/>
      <point x="359.4" y="702.9" type="line"/>
    </contour>
    <component base="period" xOffset="108.2" yOffset="666.0"/>
    <component base="period" xOffset="224.5"/>
  </outline>
</glyph>
